{
.appVersion = "939";
copyright = "Copyright 2011 The Sigmar One Project Authors (contact@sansoxygen.com)";
customParameters = (
{
name = license;
value = "This Font Software is licensed under the SIL Open Font License, Version 1.1. This license is available with a FAQ at: http://scripts.sil.org/OFL";
},
{
name = licenseURL;
value = "http://scripts.sil.org/OFL";
},
{
name = vendorID;
value = NeWT;
},
{
name = panose;
value = (
0,
0,
5,
0,
0,
0,
0,
0,
0,
0
);
},
{
name = unicodeRanges;
value = (
0,
1,
2,
29
);
},
{
name = codePageRanges;
value = (
1252,
1250,
1254,
1257,
1258
);
},
{
name = glyphOrder;
value = (
.notdef,
NULL,
uni000D,
space,
A,
Aacute,
Abreve,
uni1EAE,
uni1EB6,
uni1EB0,
uni1EB2,
uni1EB4,
Acircumflex,
uni1EA4,
uni1EAC,
uni1EA6,
uni1EA8,
uni1EAA,
uni0200,
Adieresis,
uni1EA0,
Agrave,
uni1EA2,
uni0202,
Amacron,
Aogonek,
Aring,
Aringacute,
Atilde,
AE,
AEacute,
B,
C,
Cacute,
Ccaron,
Ccedilla,
Ccircumflex,
Cdotaccent,
D,
uni01C4,
Eth,
Dcaron,
Dcroat,
uni01C5,
E,
Eacute,
Ebreve,
Ecaron,
Ecircumflex,
uni1EBE,
uni1EC6,
uni1EC0,
uni1EC2,
uni1EC4,
uni0204,
Edieresis,
Edotaccent,
uni1EB8,
Egrave,
uni1EBA,
uni0206,
Emacron,
Eogonek,
uni1EBC,
F,
G,
Gbreve,
Gcaron,
Gcircumflex,
Gcommaaccent,
Gdotaccent,
H,
Hbar,
Hcircumflex,
I,
IJ,
Iacute,
Ibreve,
Icircumflex,
uni0208,
Idieresis,
Idotaccent,
uni1ECA,
Igrave,
uni1EC8,
uni020A,
Imacron,
Iogonek,
Itilde,
J,
Jcircumflex,
K,
Kcommaaccent,
L,
uni01C7,
Lacute,
Lcaron,
Lcommaaccent,
Ldot,
uni01C8,
Lslash,
M,
N,
uni01CA,
Nacute,
Ncaron,
Ncommaaccent,
Eng,
uni01CB,
Ntilde,
O,
Oacute,
Obreve,
Ocircumflex,
uni1ED0,
uni1ED8,
uni1ED2,
uni1ED4,
uni1ED6,
uni020C,
Odieresis,
uni022A,
uni0230,
uni1ECC,
Ograve,
uni1ECE,
Ohorn,
uni1EDA,
uni1EE2,
uni1EDC,
uni1EDE,
uni1EE0,
Ohungarumlaut,
uni020E,
Omacron,
uni01EA,
Oslash,
Oslashacute,
Otilde,
uni022C,
OE,
P,
Thorn,
Q,
R,
Racute,
Rcaron,
Rcommaaccent,
uni0210,
uni0212,
S,
Sacute,
Scaron,
Scedilla,
Scircumflex,
Scommaaccent,
uni1E9E,
uni018F,
T,
Tbar,
Tcaron,
uni0162,
uni021A,
U,

glyphs = (
{
glyphname = A;
lastChange = "2017-08-15 16:32:00 +0000";
layers = (
{
layerId = "CBDECE4A-293B-4E5C-B714-A3FD26C7130D";
paths = (
{
closed = 1;
nodes = (
"755 -2 LINE SMOOTH",
"763 -2 OFFCURVE",
"769 4 OFFCURVE",
"772 18 CURVE",
"776 19 OFFCURVE",
"776 22 OFFCURVE",
"776 27 CURVE SMOOTH",
"776 38 OFFCURVE",
"767 65 OFFCURVE",
"766 74 CURVE SMOOTH",
"765 80 OFFCURVE",
"764 83 OFFCURVE",
"762 97 CURVE",
"727 249 OFFCURVE",
"661 524 OFFCURVE",
"629 651 CURVE",
"629 652 OFFCURVE",
"624 660 OFFCURVE",
"620 662 CURVE",
"616 662 LINE",
"616 660 OFFCURVE",
"615 660 OFFCURVE",
"612 660 CURVE SMOOTH",
"605 660 OFFCURVE",
"596 660 OFFCURVE",
"586 665 CURVE SMOOTH",
"577 670 OFFCURVE",
"569 667 OFFCURVE",
"561 667 CURVE SMOOTH",
"547 667 OFFCURVE",
"536 666 OFFCURVE",
"522 665 CURVE",
"519 665 OFFCURVE",
"511 665 OFFCURVE",
"504 664 CURVE SMOOTH",
"497 663 OFFCURVE",
"489 662 OFFCURVE",
"483 662 CURVE SMOOTH",
"480 662 OFFCURVE",
"476 664 OFFCURVE",
"474 665 CURVE",
"424 665 LINE",
"418 666 OFFCURVE",
"414 666 OFFCURVE",
"408 666 CURVE SMOOTH",
"403 666 OFFCURVE",
"399 666 OFFCURVE",
"399 667 CURVE",
"384 667 LINE",
"353 667 LINE",
"304 667 LINE SMOOTH",
"277 667 OFFCURVE",
"263 666 OFFCURVE",
"251 665 CURVE",
"248 665 OFFCURVE",
"239 665 OFFCURVE",
"239 662 CURVE",
"234 662 OFFCURVE",
"227 662 OFFCURVE",
"224 664 CURVE SMOOTH",
"221 666 OFFCURVE",
"217 665 OFFCURVE",
"214 665 CURVE",
"204 666 OFFCURVE",
"196 667 OFFCURVE",
"187 667 CURVE SMOOTH",
"184 667 OFFCURVE",
"179 666 OFFCURVE",
"175 665 CURVE SMOOTH",
"171 664 OFFCURVE",
"168 660 OFFCURVE",
"162 660 CURVE",
"160 662 LINE",
"156 662 LINE",
"151 659 OFFCURVE",
"147 652 OFFCURVE",
"147 651 CURVE",
"68 327 OFFCURVE",
"19 110 OFFCURVE",
"15 86 CURVE",
"15 82 OFFCURVE",
"14 78 OFFCURVE",
"12 71 CURVE",
"10 68 OFFCURVE",
"8 62 OFFCURVE",
"7 55 CURVE SMOOTH",
"6 47 OFFCURVE",
"6 41 OFFCURVE",
"6 35 CURVE",
"5 32 OFFCURVE",
"5 31 OFFCURVE",
"5 25 CURVE SMOOTH",
"5 18 OFFCURVE",
"7 10 OFFCURVE",
"12 3 CURVE",
"14 0 OFFCURVE",
"20 -2 OFFCURVE",
"23 -2 CURVE SMOOTH",
"33 -2 LINE SMOOTH",
"44 -2 OFFCURVE",
"51 -2 OFFCURVE",
"56 0 CURVE",
"80 0 LINE",
"103 0 LINE",
"124 0 LINE SMOOTH",
"128 0 OFFCURVE",
"130 0 OFFCURVE",
"130 0 CURVE",
"189 0 LINE",
"189 2 LINE",
"192 3 OFFCURVE",
"196 3 OFFCURVE",
"200 3 CURVE",
"200 3 OFFCURVE",
"200 3 OFFCURVE",
"200 3 CURVE",
"202 3 OFFCURVE",
"202 3 OFFCURVE",
"203 2 CURVE",
"203 1 OFFCURVE",
"203 0 OFFCURVE",
"204 0 CURVE SMOOTH",
"206 0 LINE",
"213 0 LINE",
"215 1 OFFCURVE",
"224 2 OFFCURVE",
"232 2 CURVE",
"252 3 OFFCURVE",
"266 3 OFFCURVE",
"277 3 CURVE",
"284 14 OFFCURVE",
"294 54 OFFCURVE",
"303 104 CURVE",
"304 116 OFFCURVE",
"306 122 OFFCURVE",
"306 127 CURVE",
"323 123 OFFCURVE",
"338 122 OFFCURVE",
"359 122 CURVE SMOOTH",
"387 122 LINE",
"415 122 LINE",
"423 94 LINE SMOOTH",
"438 41 OFFCURVE",
"439 14 OFFCURVE",
"442 3 CURVE",
"444 3 OFFCURVE",
"449 3 OFFCURVE",
"453 2 CURVE",
"453 1 OFFCURVE",
"454 1 OFFCURVE",
"457 1 CURVE",
"458 0 OFFCURVE",
"458 0 OFFCURVE",
"458 0 CURVE",
"461 0 LINE SMOOTH",
"466 0 OFFCURVE",
"468 1 OFFCURVE",
"469 2 CURVE",
"470 3 OFFCURVE",
"473 3 OFFCURVE",
"474 3 CURVE",
"517 2 LINE",
"532 2 LINE",
"547 2 LINE",
"551 1 OFFCURVE",
"553 0 OFFCURVE",
"555 0 CURVE SMOOTH",
"559 0 LINE",
"645 0 LINE",
"655 0 LINE",
"662 0 OFFCURVE",
"676 0 OFFCURVE",
"696 0 CURVE SMOOTH",
"721 0 LINE",
"727 -2 OFFCURVE",
"733 -2 OFFCURVE",
"743 -2 CURVE SMOOTH"
);
},
{
closed = 1;
nodes = (
"324 271 OFFCURVE",
"325 286 OFFCURVE",
"325 286 CURVE",
"328 304 OFFCURVE",
"332 342 OFFCURVE",
"342 397 CURVE SMOOTH",
"348 429 OFFCURVE",
"351 444 OFFCURVE",
"351 444 CURVE",
"353 455 OFFCURVE",
"354 465 OFFCURVE",
"357 476 CURVE",
"357 488 LINE",
"359 491 OFFCURVE",
"361 494 OFFCURVE",
"361 498 CURVE",
"361 502 LINE",
"362 502 OFFCURVE",
"362 501 OFFCURVE",
"362 498 CURVE SMOOTH",
"362 494 OFFCURVE",
"363 494 OFFCURVE",
"364 493 CURVE",
"364 488 LINE",
"366 476 LINE",
"367 467 OFFCURVE",
"369 456 OFFCURVE",
"373 444 CURVE",
"377 416 LINE SMOOTH",
"382 378 OFFCURVE",
"387 347 OFFCURVE",
"387 340 CURVE SMOOTH",
"387 331 OFFCURVE",
"389 322 OFFCURVE",
"393 307 CURVE SMOOTH",
"394 303 OFFCURVE",
"395 297 OFFCURVE",
"397 288 CURVE",
"404 243 LINE",
"357 243 LINE",
"350 248 LINE",
"349 248 LINE SMOOTH",
"340 248 OFFCURVE",
"333 244 OFFCURVE",
"330 243 CURVE",
"328 243 OFFCURVE",
"327 243 OFFCURVE",
"324 243 CURVE",
"324 242 OFFCURVE",
"322 241 OFFCURVE",
"318 241 CURVE"
);
}
);
width = 781;
}
);
note = A;
unicode = 0041;
},
{
glyphname = Aogonek;
lastChange = "2017-08-15 16:34:01 +0000";
layers = (
{
layerId = "CBDECE4A-293B-4E5C-B714-A3FD26C7130D";
paths = (
{
closed = 1;
nodes = (
"808 -144 OFFCURVE",
"779 -150 OFFCURVE",
"752 -150 CURVE SMOOTH",
"743 -150 OFFCURVE",
"737 -150 OFFCURVE",
"732 -151 CURVE",
"724 -154 OFFCURVE",
"714 -149 OFFCURVE",
"711 -148 CURVE",
"696 -144 OFFCURVE",
"688 -136 OFFCURVE",
"688 -116 CURVE SMOOTH",
"688 -108 OFFCURVE",
"692 -96 OFFCURVE",
"701 -80 CURVE SMOOTH",
"714 -57 OFFCURVE",
"728 -39 OFFCURVE",
"747 -23 CURVE",
"759 -9 LINE",
"765 -7 OFFCURVE",
"769 -1 OFFCURVE",
"772 11 CURVE",
"776 12 OFFCURVE",
"776 15 OFFCURVE",
"776 20 CURVE SMOOTH",
"776 31 OFFCURVE",
"767 58 OFFCURVE",
"766 67 CURVE",
"765 73 OFFCURVE",
"764 76 OFFCURVE",
"762 90 CURVE",
"742 177 OFFCURVE",
"726 258 OFFCURVE",
"707 322 CURVE",
"640 654 LINE",
"640 655 OFFCURVE",
"635 663 OFFCURVE",
"631 665 CURVE",
"627 665 LINE",
"627 663 OFFCURVE",
"626 663 OFFCURVE",
"623 663 CURVE SMOOTH",
"616 663 OFFCURVE",
"607 663 OFFCURVE",
"597 668 CURVE",
"588 673 OFFCURVE",
"580 670 OFFCURVE",
"572 670 CURVE SMOOTH",
"558 670 OFFCURVE",
"547 669 OFFCURVE",
"533 668 CURVE",
"530 668 OFFCURVE",
"522 668 OFFCURVE",
"515 667 CURVE SMOOTH",
"508 666 OFFCURVE",
"500 665 OFFCURVE",
"494 665 CURVE SMOOTH",
"491 665 OFFCURVE",
"487 667 OFFCURVE",
"485 668 CURVE",
"424 668 LINE",
"418 669 OFFCURVE",
"414 669 OFFCURVE",
"408 669 CURVE SMOOTH",
"403 669 OFFCURVE",
"399 669 OFFCURVE",
"399 670 CURVE",
"313 670 LINE SMOOTH",
"278 670 OFFCURVE",
"254 669 OFFCURVE",
"242 668 CURVE",
"239 668 OFFCURVE",
"230 668 OFFCURVE",
"230 665 CURVE",
"225 665 OFFCURVE",
"218 665 OFFCURVE",
"215 667 CURVE SMOOTH",
"212 669 OFFCURVE",
"208 668 OFFCURVE",
"205 668 CURVE",
"195 669 OFFCURVE",
"187 670 OFFCURVE",
"178 670 CURVE SMOOTH",
"175 670 OFFCURVE",
"170 669 OFFCURVE",
"166 668 CURVE SMOOTH",
"162 667 OFFCURVE",
"159 663 OFFCURVE",
"153 663 CURVE",
"151 665 LINE",
"147 665 LINE",
"142 662 OFFCURVE",
"138 655 OFFCURVE",
"138 654 CURVE",
"72 322 LINE",
"51 249 OFFCURVE",
"30 161 OFFCURVE",
"15 79 CURVE",
"15 75 OFFCURVE",
"14 71 OFFCURVE",
"12 64 CURVE",
"10 61 OFFCURVE",
"8 55 OFFCURVE",
"7 48 CURVE SMOOTH",
"6 40 OFFCURVE",
"6 34 OFFCURVE",
"6 28 CURVE",
"5 25 OFFCURVE",
"5 24 OFFCURVE",
"5 18 CURVE SMOOTH",
"5 11 OFFCURVE",
"7 3 OFFCURVE",
"12 -4 CURVE SMOOTH",
"14 -7 OFFCURVE",
"20 -9 OFFCURVE",
"23 -9 CURVE SMOOTH",
"33 -9 LINE SMOOTH",
"44 -9 OFFCURVE",
"51 -9 OFFCURVE",
"56 -7 CURVE",
"124 -7 LINE",
"130 -7 LINE",
"189 -7 LINE",
"189 -5 LINE",
"192 -4 OFFCURVE",
"196 -4 OFFCURVE",
"200 -4 CURVE SMOOTH",
"202 -4 OFFCURVE",
"202 -4 OFFCURVE",
"203 -5 CURVE",
"203 -6 OFFCURVE",
"203 -7 OFFCURVE",
"204 -7 CURVE SMOOTH",
"213 -7 LINE",
"215 -6 OFFCURVE",
"224 -5 OFFCURVE",
"232 -5 CURVE",
"252 -4 OFFCURVE",
"266 -4 OFFCURVE",
"277 -4 CURVE",
"284 7 OFFCURVE",
"294 47 OFFCURVE",
"303 97 CURVE",
"304 109 OFFCURVE",
"306 115 OFFCURVE",
"306 120 CURVE",
"323 116 OFFCURVE",
"338 115 OFFCURVE",
"359 115 CURVE SMOOTH",
"415 115 LINE",
"423 87 LINE SMOOTH",
"438 34 OFFCURVE",
"439 7 OFFCURVE",
"442 -4 CURVE",
"444 -4 OFFCURVE",
"449 -4 OFFCURVE",
"453 -5 CURVE",
"453 -6 OFFCURVE",
"454 -6 OFFCURVE",
"457 -6 CURVE",
"458 -7 LINE",
"461 -7 LINE SMOOTH",
"466 -7 OFFCURVE",
"468 -6 OFFCURVE",
"469 -5 CURVE SMOOTH",
"470 -4 OFFCURVE",
"473 -4 OFFCURVE",
"474 -4 CURVE SMOOTH",
"517 -5 LINE",
"547 -5 LINE",
"551 -6 OFFCURVE",
"553 -7 OFFCURVE",
"555 -7 CURVE SMOOTH",
"589 -7 LINE",
"587 -8 OFFCURVE",
"586 -8 OFFCURVE",
"585 -9 CURVE",
"577 -14 OFFCURVE",
"571 -18 OFFCURVE",
"566 -23 CURVE",
"510 -60 OFFCURVE",
"483 -93 OFFCURVE",
"483 -153 CURVE SMOOTH",
"483 -165 OFFCURVE",
"485 -176 OFFCURVE",
"488 -185 CURVE",
"499 -210 OFFCURVE",
"522 -230 OFFCURVE",
"559 -243 CURVE SMOOTH",
"598 -257 OFFCURVE",
"653 -266 OFFCURVE",
"726 -266 CURVE",
"736 -264 LINE",
"738 -263 OFFCURVE",
"741 -263 OFFCURVE",
"744 -263 CURVE SMOOTH",
"747 -263 OFFCURVE",
"751 -262 OFFCURVE",
"756 -261 CURVE",
"767 -260 OFFCURVE",
"783 -255 OFFCURVE",
"803 -248 CURVE",
"816 -241 OFFCURVE",
"828 -235 OFFCURVE",
"829 -230 CURVE SMOOTH",
"846 -148 LINE",
"846 -143 LINE SMOOTH",
"846 -138 OFFCURVE",
"844 -135 OFFCURVE",
"839 -133 CURVE"
);
},
{
closed = 1;
nodes = (
"350 241 LINE",
"349 241 LINE SMOOTH",
"340 241 OFFCURVE",
"333 237 OFFCURVE",
"330 236 CURVE",
"324 236 LINE",
"324 235 OFFCURVE",
"322 234 OFFCURVE",
"318 234 CURVE",
"324 264 OFFCURVE",
"325 279 OFFCURVE",
"325 279 CURVE",
"328 297 OFFCURVE",
"332 335 OFFCURVE",
"342 390 CURVE SMOOTH",
"351 437 LINE SMOOTH",
"353 448 OFFCURVE",
"354 458 OFFCURVE",
"357 469 CURVE",
"357 481 LINE",
"359 484 OFFCURVE",
"361 487 OFFCURVE",
"361 491 CURVE SMOOTH",
"361 495 LINE",
"362 495 OFFCURVE",
"362 494 OFFCURVE",
"362 491 CURVE SMOOTH",
"362 487 OFFCURVE",
"363 487 OFFCURVE",
"364 486 CURVE",
"364 481 LINE",
"366 469 LINE",
"367 460 OFFCURVE",
"369 449 OFFCURVE",
"373 437 CURVE",
"377 409 LINE SMOOTH",
"382 371 OFFCURVE",
"387 340 OFFCURVE",
"387 333 CURVE SMOOTH",
"387 324 OFFCURVE",
"389 315 OFFCURVE",
"393 300 CURVE",
"397 281 LINE",
"404 236 LINE",
"357 236 LINE"
);
}
);
width = 793;
}
);
note = Aogonek;
unicode = 0104;
},
{
glyphname = Aringacute;
lastChange = "2017-08-15 16:35:34 +0000";
layers = (
{
layerId = "CBDECE4A-293B-4E5C-B714-A3FD26C7130D";
paths = (
{
closed = 1;
nodes = (
"484 980 OFFCURVE",
"490 979 OFFCURVE",
"492 978 CURVE SMOOTH",
"496 976 OFFCURVE",
"501 976 OFFCURVE",
"502 977 CURVE",
"506 974 OFFCURVE",
"506 974 OFFCURVE",
"508 973 CURVE SMOOTH",
"525 967 LINE",
"527 967 LINE",
"532 964 LINE",
"535 964 OFFCURVE",
"538 961 OFFCURVE",
"542 960 CURVE SMOOTH",
"554 957 LINE SMOOTH",
"557 956 OFFCURVE",
"561 958 OFFCURVE",
"566 961 CURVE",
"582 979 OFFCURVE",
"595 993 OFFCURVE",
"602 1001 CURVE",
"605 1006 OFFCURVE",
"607 1009 OFFCURVE",
"610 1014 CURVE",
"614 1017 OFFCURVE",
"615 1019 OFFCURVE",
"618 1020 CURVE SMOOTH",
"624 1022 OFFCURVE",
"632 1035 OFFCURVE",
"647 1051 CURVE",
"653 1057 OFFCURVE",
"661 1075 OFFCURVE",
"675 1082 CURVE SMOOTH",
"677 1083 OFFCURVE",
"680 1085 OFFCURVE",
"682 1087 CURVE",
"684 1089 OFFCURVE",
"686 1090 OFFCURVE",
"688 1093 CURVE",
"691 1095 OFFCURVE",
"694 1096 OFFCURVE",
"694 1099 CURVE SMOOTH",
"694 1105 OFFCURVE",
"700 1101 OFFCURVE",
"701 1105 CURVE",
"709 1111 OFFCURVE",
"712 1117 OFFCURVE",
"713 1117 CURVE",
"723 1126 OFFCURVE",
"729 1134 OFFCURVE",
"735 1138 CURVE SMOOTH",
"747 1146 OFFCURVE",
"735 1154 OFFCURVE",
"731 1158 CURVE",
"727 1159 OFFCURVE",
"724 1160 OFFCURVE",
"722 1163 CURVE",
"720 1163 LINE",
"719 1163 OFFCURVE",
"719 1163 OFFCURVE",
"718 1164 CURVE",
"712 1167 LINE",
"688 1178 LINE",
"685 1178 LINE",
"682 1181 LINE",
"676 1183 LINE SMOOTH",
"673 1184 OFFCURVE",
"671 1185 OFFCURVE",
"669 1185 CURVE",
"667 1188 LINE",
"634 1198 LINE",
"597 1211 LINE",
"570 1216 LINE",
"564 1214 LINE",
"551 1191 OFFCURVE",
"535 1163 OFFCURVE",
"517 1127 CURVE",
"506 1096 LINE SMOOTH",
"504 1091 OFFCURVE",
"502 1086 OFFCURVE",
"500 1081 CURVE SMOOTH",
"498 1076 OFFCURVE",
"495 1073 OFFCURVE",
"493 1067 CURVE SMOOTH",
"478 1027 LINE SMOOTH",
"475 1018 OFFCURVE",
"472 1011 OFFCURVE",
"471 1007 CURVE",
"468 994 OFFCURVE",
"468 988 OFFCURVE",
"476 984 CURVE SMOOTH"
);
},
{
closed = 1;
nodes = (
"456 725 OFFCURVE",
"476 726 OFFCURVE",
"508 736 CURVE SMOOTH",
"544 747 OFFCURVE",
"568 766 OFFCURVE",
"583 792 CURVE",
"588 793 LINE",
"611 828 OFFCURVE",
"620 873 OFFCURVE",
"618 916 CURVE SMOOTH",
"614 995 OFFCURVE",
"590 1034 OFFCURVE",
"519 1079 CURVE",
"486 1094 OFFCURVE",
"439 1093 OFFCURVE",
"393 1093 CURVE SMOOTH",
"389 1093 OFFCURVE",
"388 1092 OFFCURVE",
"389 1090 CURVE",
"384 1091 OFFCURVE",
"377 1092 OFFCURVE",
"368 1091 CURVE SMOOTH",
"321 1086 OFFCURVE",
"284 1065 OFFCURVE",
"257 1022 CURVE SMOOTH",
"233 984 OFFCURVE",
"222 935 OFFCURVE",
"223 891 CURVE SMOOTH",
"224 860 OFFCURVE",
"231 831 OFFCURVE",
"242 809 CURVE SMOOTH",
"275 743 OFFCURVE",
"335 720 OFFCURVE",
"404 723 CURVE SMOOTH"
);
},
{
closed = 1;
nodes = (
"400 837 OFFCURVE",
"391 839 OFFCURVE",
"381 844 CURVE SMOOTH",
"365 852 OFFCURVE",
"354 865 OFFCURVE",
"354 875 CURVE SMOOTH",
"354 877 OFFCURVE",
"354 879 OFFCURVE",
"353 880 CURVE SMOOTH",
"352 881 OFFCURVE",
"351 882 OFFCURVE",
"350 882 CURVE",
"350 888 LINE",
"350 893 LINE SMOOTH",
"350 928 OFFCURVE",
"354 954 OFFCURVE",
"369 968 CURVE",
"378 980 OFFCURVE",
"391 987 OFFCURVE",
"405 988 CURVE SMOOTH",
"420 989 OFFCURVE",
"433 987 OFFCURVE",
"445 985 CURVE SMOOTH",
"481 979 OFFCURVE",
"498 946 OFFCURVE",
"498 934 CURVE SMOOTH",
"498 930 LINE SMOOTH",
"498 922 OFFCURVE",
"497 913 OFFCURVE",
"495 903 CURVE SMOOTH",
"492 887 OFFCURVE",
"483 873 OFFCURVE",
"471 861 CURVE",
"459 847 OFFCURVE",
"441 840 OFFCURVE",
"414 838 CURVE SMOOTH"
);
},
{
closed = 1;
nodes = (
"796 -1 LINE SMOOTH",
"805 -1 OFFCURVE",
"811 6 OFFCURVE",
"814 19 CURVE",
"815 21 OFFCURVE",
"815 24 OFFCURVE",
"815 29 CURVE SMOOTH",
"815 42 OFFCURVE",
"809 70 OFFCURVE",
"807 80 CURVE SMOOTH",
"806 85 OFFCURVE",
"806 88 OFFCURVE",
"805 91 CURVE",
"785 185 OFFCURVE",
"765 268 OFFCURVE",
"746 339 CURVE",
"676 655 LINE",
"676 658 OFFCURVE",
"671 665 OFFCURVE",
"666 666 CURVE",
"661 666 LINE",
"661 665 OFFCURVE",
"660 665 OFFCURVE",
"658 665 CURVE SMOOTH",
"650 665 OFFCURVE",
"641 666 OFFCURVE",
"631 668 CURVE SMOOTH",
"621 670 OFFCURVE",
"612 671 OFFCURVE",
"604 671 CURVE SMOOTH",
"589 671 OFFCURVE",
"576 670 OFFCURVE",
"563 668 CURVE",
"557 668 OFFCURVE",
"550 668 OFFCURVE",
"543 667 CURVE SMOOTH",
"536 666 OFFCURVE",
"528 666 OFFCURVE",
"520 666 CURVE SMOOTH",
"517 666 OFFCURVE",
"514 667 OFFCURVE",
"511 668 CURVE",
"493 668 LINE",
"470 668 LINE",
"446 669 LINE",
"441 670 OFFCURVE",
"436 670 OFFCURVE",
"429 670 CURVE SMOOTH",
"424 670 OFFCURVE",
"421 670 OFFCURVE",
"421 671 CURVE",
"405 671 LINE",
"371 671 LINE",
"329 671 LINE SMOOTH",
"292 671 OFFCURVE",
"267 670 OFFCURVE",
"255 669 CURVE",
"251 669 OFFCURVE",
"241 669 OFFCURVE",
"240 666 CURVE",
"235 666 OFFCURVE",
"231 666 OFFCURVE",
"226 667 CURVE SMOOTH",
"221 668 OFFCURVE",
"217 668 OFFCURVE",
"213 668 CURVE",
"204 670 OFFCURVE",
"195 671 OFFCURVE",
"186 671 CURVE SMOOTH",
"182 671 OFFCURVE",
"178 670 OFFCURVE",
"174 668 CURVE SMOOTH",
"170 666 OFFCURVE",
"166 665 OFFCURVE",
"161 665 CURVE",
"156 666 LINE",
"153 666 LINE",
"149 663 OFFCURVE",
"143 658 OFFCURVE",
"143 655 CURVE",
"73 339 LINE",
"52 261 OFFCURVE",
"32 178 OFFCURVE",
"15 91 CURVE",
"15 87 OFFCURVE",
"14 83 OFFCURVE",
"11 78 CURVE",
"10 73 OFFCURVE",
"9 67 OFFCURVE",
"8 59 CURVE SMOOTH",
"7 51 OFFCURVE",
"6 44 OFFCURVE",
"6 39 CURVE",
"5 36 OFFCURVE",
"5 33 OFFCURVE",
"5 28 CURVE SMOOTH",
"5 19 OFFCURVE",
"7 11 OFFCURVE",
"11 5 CURVE",
"14 1 OFFCURVE",
"18 -1 OFFCURVE",
"23 -1 CURVE SMOOTH",
"36 -1 LINE SMOOTH",
"46 -1 OFFCURVE",
"54 -1 OFFCURVE",
"59 0 CURVE",
"85 0 LINE",
"110 0 LINE",
"130 0 LINE SMOOTH",
"135 0 OFFCURVE",
"138 0 OFFCURVE",
"138 1 CURVE",
"201 1 LINE",
"201 3 LINE",
"204 4 OFFCURVE",
"207 5 OFFCURVE",
"211 5 CURVE",
"211 5 OFFCURVE",
"211 5 OFFCURVE",
"211 5 CURVE",
"212 4 OFFCURVE",
"212 4 OFFCURVE",
"213 3 CURVE",
"213 2 OFFCURVE",
"214 1 OFFCURVE",
"215 1 CURVE SMOOTH",
"218 1 LINE",
"226 1 LINE",
"229 2 OFFCURVE",
"236 3 OFFCURVE",
"246 3 CURVE",
"266 4 OFFCURVE",
"282 5 OFFCURVE",
"293 5 CURVE",
"301 17 OFFCURVE",
"310 57 OFFCURVE",
"319 101 CURVE",
"320 112 OFFCURVE",
"322 119 OFFCURVE",
"323 123 CURVE",
"337 120 OFFCURVE",
"355 119 OFFCURVE",
"378 119 CURVE SMOOTH",
"409 119 LINE",
"438 119 LINE",
"445 87 LINE SMOOTH",
"454 43 OFFCURVE",
"461 16 OFFCURVE",
"466 5 CURVE",
"469 5 OFFCURVE",
"472 4 OFFCURVE",
"476 3 CURVE",
"477 2 OFFCURVE",
"478 2 OFFCURVE",
"479 2 CURVE",
"480 1 OFFCURVE",
"481 1 OFFCURVE",
"481 1 CURVE",
"485 1 LINE SMOOTH",
"489 1 OFFCURVE",
"492 2 OFFCURVE",
"494 3 CURVE",
"495 4 OFFCURVE",
"497 5 OFFCURVE",
"499 5 CURVE",
"544 3 LINE",
"560 3 LINE",
"575 3 LINE",
"578 2 OFFCURVE",
"581 1 OFFCURVE",
"585 1 CURVE SMOOTH",
"589 1 LINE",
"681 1 LINE",
"690 1 LINE",
"697 0 OFFCURVE",
"712 0 OFFCURVE",
"735 0 CURVE SMOOTH",
"761 0 LINE",
"766 -1 OFFCURVE",
"774 -1 OFFCURVE",
"784 -1 CURVE SMOOTH"
);
},
{
closed = 1;
nodes = (
"339 277 OFFCURVE",
"341 293 OFFCURVE",
"341 293 CURVE",
"345 312 OFFCURVE",
"350 341 OFFCURVE",
"361 400 CURVE SMOOTH",
"366 432 OFFCURVE",
"369 448 OFFCURVE",
"369 448 CURVE",
"371 461 OFFCURVE",
"373 473 OFFCURVE",
"375 483 CURVE",
"376 496 LINE",
"378 499 OFFCURVE",
"379 502 OFFCURVE",
"379 505 CURVE",
"380 511 LINE",
"381 510 OFFCURVE",
"381 508 OFFCURVE",
"381 505 CURVE SMOOTH",
"381 502 OFFCURVE",
"382 501 OFFCURVE",
"383 500 CURVE",
"383 496 LINE",
"385 483 LINE",
"386 474 OFFCURVE",
"388 462 OFFCURVE",
"391 449 CURVE",
"396 421 LINE SMOOTH",
"403 379 OFFCURVE",
"408 355 OFFCURVE",
"409 348 CURVE SMOOTH",
"410 341 OFFCURVE",
"411 330 OFFCURVE",
"414 315 CURVE SMOOTH",
"415 310 OFFCURVE",
"417 303 OFFCURVE",
"418 294 CURVE",
"426 248 LINE",
"375 248 LINE",
"368 250 LINE",
"366 250 LINE SMOOTH",
"358 250 OFFCURVE",
"352 249 OFFCURVE",
"348 248 CURVE",
"345 248 OFFCURVE",
"343 248 OFFCURVE",
"340 247 CURVE",
"338 246 OFFCURVE",
"336 245 OFFCURVE",
"334 244 CURVE"
);
}
);
width = 844;
}
);
note = Aringacute;
unicode = 01FA;
},
{
glyphname = AE;
lastChange = "2017-08-04 01:31:49 +0000";
layers = (
{
layerId = "CBDECE4A-293B-4E5C-B714-A3FD26C7130D";
paths = (
{
closed = 1;
nodes = (
"41 -1 OFFCURVE",
"48 -1 OFFCURVE",
"53 0 CURVE",
"79 0 LINE SMOOTH",
"102 0 OFFCURVE",
"117 0 OFFCURVE",
"124 1 CURVE",
"133 1 LINE",
"185 1 LINE",
"189 1 LINE SMOOTH",
"193 1 OFFCURVE",
"197 2 OFFCURVE",
"200 3 CURVE",
"214 3 LINE",
"232 3 LINE",
"277 5 LINE",
"282 3 LINE",
"283 2 OFFCURVE",
"285 1 OFFCURVE",
"289 1 CURVE SMOOTH",
"292 1 LINE SMOOTH",
"294 1 OFFCURVE",
"296 2 OFFCURVE",
"299 3 CURVE",
"308 5 LINE",
"314 12 OFFCURVE",
"321 25 OFFCURVE",
"329 42 CURVE SMOOTH",
"337 59 OFFCURVE",
"348 84 OFFCURVE",
"363 119 CURVE",
"418 119 LINE",
"435 118 OFFCURVE",
"452 120 OFFCURVE",
"469 123 CURVE",
"468 104 OFFCURVE",
"468 79 OFFCURVE",
"468 48 CURVE SMOOTH",
"468 27 OFFCURVE",
"469 12 OFFCURVE",
"472 5 CURVE",
"483 5 OFFCURVE",
"499 4 OFFCURVE",
"519 3 CURVE",
"528 3 OFFCURVE",
"535 2 OFFCURVE",
"539 1 CURVE",
"547 1 LINE",
"550 1 LINE SMOOTH",
"551 1 OFFCURVE",
"551 1 OFFCURVE",
"552 2 CURVE",
"552 3 OFFCURVE",
"552 3 OFFCURVE",
"553 3 CURVE SMOOTH",
"564 3 LINE",
"564 1 LINE",
"572 1 LINE",
"576 0 OFFCURVE",
"580 0 OFFCURVE",
"585 0 CURVE SMOOTH",
"612 0 LINE",
"665 0 LINE",
"670 -1 OFFCURVE",
"678 -1 OFFCURVE",
"687 -1 CURVE SMOOTH",
"702 -1 LINE",
"708 0 LINE",
"743 0 OFFCURVE",
"769 0 OFFCURVE",
"787 1 CURVE",
"892 1 LINE SMOOTH",
"920 1 OFFCURVE",
"940 2 OFFCURVE",
"953 3 CURVE",
"978 4 OFFCURVE",
"999 5 OFFCURVE",
"1014 5 CURVE SMOOTH",
"1027 5 OFFCURVE",
"1034 12 OFFCURVE",
"1034 26 CURVE",
"1033 41 LINE",
"1030 69 LINE",
"1027 91 LINE SMOOTH",
"1024 110 OFFCURVE",
"1022 125 OFFCURVE",
"1019 136 CURVE SMOOTH",
"1017 143 LINE",
"920 143 LINE",
"793 143 LINE",
"793 160 OFFCURVE",
"793 171 OFFCURVE",
"794 178 CURVE",
"796 185 OFFCURVE",
"797 197 OFFCURVE",
"797 213 CURVE SMOOTH",
"797 228 OFFCURVE",
"798 238 OFFCURVE",
"800 243 CURVE",
"801 248 OFFCURVE",
"805 251 OFFCURVE",
"812 253 CURVE",
"817 254 OFFCURVE",
"829 254 OFFCURVE",
"848 254 CURVE",
"859 253 OFFCURVE",
"881 253 OFFCURVE",
"915 253 CURVE SMOOTH",
"954 253 OFFCURVE",
"980 255 OFFCURVE",
"995 258 CURVE",
"1020 260 OFFCURVE",
"1032 267 OFFCURVE",
"1032 278 CURVE SMOOTH",
"1032 281 LINE",
"1027 370 LINE",
"1022 383 LINE",
"1019 387 OFFCURVE",
"1014 390 OFFCURVE",
"1007 393 CURVE",
"993 393 LINE",
"960 396 OFFCURVE",
"930 398 OFFCURVE",
"905 398 CURVE SMOOTH",
"815 398 LINE SMOOTH",
"803 398 OFFCURVE",
"800 401 OFFCURVE",
"800 418 CURVE SMOOTH",
"800 427 OFFCURVE",
"801 435 OFFCURVE",
"802 443 CURVE",
"803 466 OFFCURVE",
"807 486 OFFCURVE",
"812 503 CURVE",
"813 510 OFFCURVE",
"816 515 OFFCURVE",
"819 515 CURVE SMOOTH",
"862 515 OFFCURVE",
"895 515 OFFCURVE",
"917 516 CURVE",
"1012 516 LINE",
"1019 516 LINE",
"1022 515 OFFCURVE",
"1024 518 OFFCURVE",
"1025 525 CURVE",
"1025 543 LINE",
"1024 548 OFFCURVE",
"1023 555 OFFCURVE",
"1022 564 CURVE SMOOTH",
"1021 572 OFFCURVE",
"1020 579 OFFCURVE",
"1019 585 CURVE",
"1017 616 OFFCURVE",
"1013 640 OFFCURVE",
"1008 658 CURVE",
"1005 665 OFFCURVE",
"1001 669 OFFCURVE",
"997 669 CURVE",
"964 672 OFFCURVE",
"928 674 OFFCURVE",
"889 674 CURVE",
"875 675 OFFCURVE",
"855 675 OFFCURVE",
"828 675 CURVE",
"602 670 LINE",
"625 671 OFFCURVE",
"595 671 OFFCURVE",
"552 671 CURVE SMOOTH",
"514 671 LINE",
"494 671 LINE",
"494 670 OFFCURVE",
"492 670 OFFCURVE",
"489 670 CURVE SMOOTH",
"412 668 LINE",
"399 670 OFFCURVE",
"385 671 OFFCURVE",
"372 671 CURVE SMOOTH",
"362 671 OFFCURVE",
"352 670 OFFCURVE",
"343 668 CURVE SMOOTH",
"333 666 OFFCURVE",
"324 665 OFFCURVE",
"317 665 CURVE SMOOTH",
"314 665 OFFCURVE",
"312 665 OFFCURVE",
"312 666 CURVE",
"308 666 LINE",
"303 665 OFFCURVE",
"295 658 OFFCURVE",
"295 655 CURVE",
"144 339 LINE SMOOTH",
"104 256 OFFCURVE",
"66 173 OFFCURVE",
"30 91 CURVE",
"29 86 OFFCURVE",
"27 82 OFFCURVE",
"24 78 CURVE",
"21 69 OFFCURVE",
"18 62 OFFCURVE",
"17 59 CURVE SMOOTH",
"11 40 OFFCURVE",
"6 27 OFFCURVE",
"5 19 CURVE",
"4 6 OFFCURVE",
"8 -1 OFFCURVE",
"17 -1 CURVE SMOOTH",
"32 -1 LINE SMOOTH"
);
},
{
closed = 1;
nodes = (
"478 247 OFFCURVE",
"465 248 OFFCURVE",
"445 248 CURVE SMOOTH",
"404 248 LINE",
"415 275 OFFCURVE",
"421 291 OFFCURVE",
"422 294 CURVE",
"424 303 OFFCURVE",
"427 312 OFFCURVE",
"431 323 CURVE SMOOTH",
"435 334 OFFCURVE",
"438 342 OFFCURVE",
"440 348 CURVE",
"449 372 OFFCURVE",
"456 390 OFFCURVE",
"460 403 CURVE",
"462 408 OFFCURVE",
"468 423 OFFCURVE",
"477 449 CURVE",
"479 454 OFFCURVE",
"481 460 OFFCURVE",
"483 466 CURVE",
"484 471 OFFCURVE",
"486 477 OFFCURVE",
"489 483 CURVE",
"490 486 OFFCURVE",
"491 489 OFFCURVE",
"492 492 CURVE",
"493 494 OFFCURVE",
"493 495 OFFCURVE",
"493 496 CURVE",
"495 500 LINE SMOOTH",
"496 502 OFFCURVE",
"497 504 OFFCURVE",
"498 506 CURVE",
"498 507 OFFCURVE",
"498 509 OFFCURVE",
"499 511 CURVE",
"499 505 LINE",
"499 500 LINE",
"499 496 LINE",
"498 483 LINE",
"497 448 LINE SMOOTH",
"497 443 OFFCURVE",
"496 433 OFFCURVE",
"495 420 CURVE SMOOTH",
"494 400 LINE SMOOTH",
"493 377 OFFCURVE",
"492 359 OFFCURVE",
"492 346 CURVE",
"485 244 LINE"
);
}
);
width = 1049;
}
);
note = AE;
unicode = 00C6;
},
{
glyphname = B;
lastChange = "2017-08-15 19:26:07 +0000";
layers = (
{
layerId = "CBDECE4A-293B-4E5C-B714-A3FD26C7130D";
paths = (
{
closed = 1;
nodes = (
"287 -13 OFFCURVE",
"325 -12 OFFCURVE",
"360 -8 CURVE SMOOTH",
"453 3 OFFCURVE",
"637 11 OFFCURVE",
"725 80 CURVE SMOOTH",
"771 116 OFFCURVE",
"792 163 OFFCURVE",
"792 200 CURVE SMOOTH",
"792 226 OFFCURVE",
"781 251 OFFCURVE",
"760 275 CURVE",
"731 302 OFFCURVE",
"694 325 OFFCURVE",
"648 344 CURVE",
"647 345 OFFCURVE",
"646 346 OFFCURVE",
"646 346 CURVE",
"646 347 OFFCURVE",
"646 347 OFFCURVE",
"646 348 CURVE",
"645 348 OFFCURVE",
"645 348 OFFCURVE",
"645 348 CURVE",
"648 353 OFFCURVE",
"652 357 OFFCURVE",
"655 358 CURVE",
"664 363 OFFCURVE",
"674 368 OFFCURVE",
"686 371 CURVE",
"689 372 OFFCURVE",
"691 374 OFFCURVE",
"694 375 CURVE SMOOTH",
"697 376 OFFCURVE",
"700 377 OFFCURVE",
"703 379 CURVE SMOOTH",
"748 409 OFFCURVE",
"772 450 OFFCURVE",
"772 506 CURVE SMOOTH",
"772 549 OFFCURVE",
"756 575 OFFCURVE",
"723 603 CURVE",
"672 641 OFFCURVE",
"535 669 OFFCURVE",
"432 670 CURVE SMOOTH",
"358 671 OFFCURVE",
"295 675 OFFCURVE",
"240 675 CURVE SMOOTH",
"231 675 OFFCURVE",
"179 671 OFFCURVE",
"165 670 CURVE",
"142 669 OFFCURVE",
"126 668 OFFCURVE",
"115 668 CURVE SMOOTH",
"107 668 OFFCURVE",
"100 668 OFFCURVE",
"93 667 CURVE SMOOTH",
"86 666 OFFCURVE",
"79 666 OFFCURVE",
"73 666 CURVE SMOOTH",
"64 666 OFFCURVE",
"56 665 OFFCURVE",
"51 663 CURVE",
"42 657 OFFCURVE",
"37 648 OFFCURVE",
"36 636 CURVE",
"36 633 OFFCURVE",
"36 628 OFFCURVE",
"33 621 CURVE",
"31 610 OFFCURVE",
"30 593 OFFCURVE",
"30 570 CURVE SMOOTH",
"30 558 LINE",
"30 525 LINE SMOOTH",
"30 458 OFFCURVE",
"32 400 OFFCURVE",
"35 353 CURVE",
"36 293 LINE SMOOTH",
"37 242 OFFCURVE",
"38 204 OFFCURVE",
"38 179 CURVE SMOOTH",
"38 172 OFFCURVE",
"38 165 OFFCURVE",
"37 158 CURVE",
"37 131 OFFCURVE",
"36 122 OFFCURVE",
"35 109 CURVE",
"35 84 LINE SMOOTH",
"35 41 OFFCURVE",
"50 18 OFFCURVE",
"85 3 CURVE",
"118 -9 OFFCURVE",
"151 -13 OFFCURVE",
"246 -13 CURVE SMOOTH"
);
},
{
closed = 1;
nodes = (
"368 399 OFFCURVE",
"366 400 OFFCURVE",
"366 403 CURVE SMOOTH",
"366 409 LINE SMOOTH",
"366 416 OFFCURVE",
"366 422 OFFCURVE",
"366 436 CURVE SMOOTH",
"366 462 OFFCURVE",
"368 513 OFFCURVE",
"406 513 CURVE SMOOTH",
"452 513 OFFCURVE",
"495 507 OFFCURVE",
"495 464 CURVE SMOOTH",
"495 460 OFFCURVE",
"494 458 OFFCURVE",
"491 458 CURVE",
"484 454 LINE",
"474 449 LINE",
"471 448 OFFCURVE",
"466 442 OFFCURVE",
"458 437 CURVE",
"449 430 OFFCURVE",
"440 425 OFFCURVE",
"431 422 CURVE",
"418 414 OFFCURVE",
"400 409 OFFCURVE",
"385 402 CURVE",
"380 400 OFFCURVE",
"376 399 OFFCURVE",
"374 399 CURVE SMOOTH"
);
},
{
closed = 1;
nodes = (
"338 153 OFFCURVE",
"360 222 OFFCURVE",
"362 243 CURVE SMOOTH",
"363 252 OFFCURVE",
"364 256 OFFCURVE",
"370 256 CURVE SMOOTH",
"388 256 OFFCURVE",
"400 255 OFFCURVE",
"429 254 CURVE",
"449 252 OFFCURVE",
"449 252 OFFCURVE",
"469 252 CURVE",
"480 251 OFFCURVE",
"485 249 OFFCURVE",
"484 234 CURVE",
"484 175 OFFCURVE",
"444 153 OFFCURVE",
"390 153 CURVE SMOOTH",
"387 153 LINE SMOOTH"
);
}
);
width = 797;
}
);
note = B;
unicode = 0042;
},
{
glyphname = C;
lastChange = "2017-08-21 16:22:40 +0000";
layers = (
{
background = {
paths = (
{
closed = 0;
nodes = (
"1381 328 LINE SMOOTH",
"1381 451 OFFCURVE",
"1432 493 OFFCURVE",
"1516 493 CURVE SMOOTH",
"1526 493 OFFCURVE",
"1539 492 OFFCURVE",
"1555 489 CURVE SMOOTH",
"1572 486 OFFCURVE",
"1599 480 OFFCURVE",
"1636 471 CURVE",
"1667 462 LINE",
"1671 461 OFFCURVE",
"1675 462 OFFCURVE",
"1676 467 CURVE SMOOTH",
"1711 623 LINE SMOOTH",
"1712 627 OFFCURVE",
"1711 631 OFFCURVE",
"1707 633 CURVE SMOOTH",
"1618 674 OFFCURVE",
"1532 695 OFFCURVE",
"1449 695 CURVE SMOOTH",
"1333 695 OFFCURVE",
"1232 662 OFFCURVE",
"1159 601 CURVE SMOOTH",
"1084 538 OFFCURVE",
"1043 446 OFFCURVE",
"1043 333 CURVE SMOOTH"
);
},
{
closed = 0;
nodes = (
"1043 332 LINE SMOOTH",
"1043 219 OFFCURVE",
"1084 119 OFFCURVE",
"1159 56 CURVE SMOOTH",
"1232 -5 OFFCURVE",
"1333 -38 OFFCURVE",
"1449 -38 CURVE SMOOTH",
"1532 -38 OFFCURVE",
"1619 -20 OFFCURVE",
"1707 24 CURVE SMOOTH",
"1711 26 OFFCURVE",
"1712 30 OFFCURVE",
"1711 34 CURVE SMOOTH",
"1676 190 LINE SMOOTH",
"1675 195 OFFCURVE",
"1671 196 OFFCURVE",
"1667 195 CURVE",
"1636 186 LINE",
"1599 177 OFFCURVE",
"1572 171 OFFCURVE",
"1555 168 CURVE SMOOTH",
"1539 165 OFFCURVE",
"1526 164 OFFCURVE",
"1516 164 CURVE SMOOTH",
"1432 164 OFFCURVE",
"1381 206 OFFCURVE",
"1381 329 CURVE SMOOTH"
);
},
{
closed = 1;
nodes = (
"635 -24 OFFCURVE",
"740 6 OFFCURVE",
"792 58 CURVE SMOOTH",
"793 59 OFFCURVE",
"794 61 OFFCURVE",
"794 64 CURVE",
"784 213 LINE",
"784 219 OFFCURVE",
"778 221 OFFCURVE",
"774 218 CURVE",
"713 186 OFFCURVE",
"690 154 OFFCURVE",
"609 154 CURVE SMOOTH",
"538 154 OFFCURVE",
"448 162 OFFCURVE",
"448 337 CURVE SMOOTH",
"448 471 OFFCURVE",
"542 503 OFFCURVE",
"620 499 CURVE SMOOTH",
"641 498 OFFCURVE",
"682 491 OFFCURVE",
"711 481 CURVE SMOOTH",
"745 469 LINE",
"750 467 OFFCURVE",
"755 472 OFFCURVE",
"755 476 CURVE",
"802 625 LINE",
"802 629 OFFCURVE",
"801 631 OFFCURVE",
"798 633 CURVE SMOOTH",
"784 642 OFFCURVE",
"767 655 OFFCURVE",
"750 662 CURVE SMOOTH",
"731 670 OFFCURVE",
"719 670 OFFCURVE",
"713 673 CURVE",
"640 694 OFFCURVE",
"582 699 OFFCURVE",
"527 695 CURVE SMOOTH",
"513 694 LINE",
"501 694 LINE SMOOTH",
"379 694 OFFCURVE",
"231 621 OFFCURVE",
"173 513 CURVE SMOOTH",
"142 455 OFFCURVE",
"123 389 OFFCURVE",
"123 313 CURVE SMOOTH",
"123 248 OFFCURVE",
"133 193 OFFCURVE",
"152 146 CURVE SMOOTH",
"161 125 OFFCURVE",
"166 108 OFFCURVE",
"177 96 CURVE",
"192 73 OFFCURVE",
"218 52 OFFCURVE",
"241 33 CURVE",
"252 25 OFFCURVE",
"271 14 OFFCURVE",
"280 11 CURVE SMOOTH",
"403 -30 OFFCURVE",
"471 -24 OFFCURVE",
"563 -24 CURVE SMOOTH"
);
}
);
};
layerId = "CBDECE4A-293B-4E5C-B714-A3FD26C7130D";
paths = (
{
closed = 1;
nodes = (
"528 -6 OFFCURVE",
"528 -6 OFFCURVE",
"529 -6 CURVE",
"528 -6 LINE SMOOTH"
);
},
{
closed = 1;
nodes = (
"529 -6 OFFCURVE",
"529 -6 OFFCURVE",
"529 -6 CURVE SMOOTH"
);
},
{
closed = 1;
nodes = (
"603 172 OFFCURVE",
"579 171 OFFCURVE",
"554 168 CURVE SMOOTH",
"511 163 LINE SMOOTH",
"429 153 OFFCURVE",
"359 201 OFFCURVE",
"359 308 CURVE SMOOTH",
"359 425 OFFCURVE",
"439 472 OFFCURVE",
"524 472 CURVE",
"524 472 OFFCURVE",
"525 472 OFFCURVE",
"525 473 CURVE",
"549 474 OFFCURVE",
"537 472 OFFCURVE",
"558 472 CURVE SMOOTH",
"572 472 LINE",
"656 460 LINE",
"673 472 OFFCURVE",
"676 489 OFFCURVE",
"676 522 CURVE SMOOTH",
"676 540 OFFCURVE",
"676 570 OFFCURVE",
"674 586 CURVE",
"673 596 OFFCURVE",
"672 607 OFFCURVE",
"672 618 CURVE",
"670 638 LINE",
"667 638 LINE SMOOTH",
"665 638 OFFCURVE",
"662 639 OFFCURVE",
"659 642 CURVE",
"657 643 OFFCURVE",
"656 646 OFFCURVE",
"655 648 CURVE",
"652 649 OFFCURVE",
"651 650 OFFCURVE",
"650 650 CURVE SMOOTH",
"641 650 OFFCURVE",
"624 655 OFFCURVE",
"613 657 CURVE SMOOTH",
"580 662 LINE",
"571 663 OFFCURVE",
"563 666 OFFCURVE",
"555 666 CURVE",
"496 673 OFFCURVE",
"489 677 OFFCURVE",
"457 677 CURVE SMOOTH",
"340 677 OFFCURVE",
"209 645 OFFCURVE",
"135 588 CURVE SMOOTH",
"58 528 OFFCURVE",
"20 448 OFFCURVE",
"20 310 CURVE SMOOTH",
"20 186 OFFCURVE",
"62 99 OFFCURVE",
"135 38 CURVE SMOOTH",
"208 -23 OFFCURVE",
"298 -53 OFFCURVE",
"416 -53 CURVE SMOOTH",
"511 -53 OFFCURVE",
"621 -47 OFFCURVE",
"692 27 CURVE",
"692 74 OFFCURVE",
"687 126 OFFCURVE",
"667 182 CURVE",
"667 185 LINE",
"666 194 OFFCURVE",
"662 199 OFFCURVE",
"654 202 CURVE"
);
}
);
width = 707;
}
);
note = C;
unicode = 0043;
},
{
glyphname = Ccedilla;
lastChange = "2017-08-15 16:36:42 +0000";
layers = (
{
layerId = "CBDECE4A-293B-4E5C-B714-A3FD26C7130D";
paths = (
{
closed = 1;
nodes = (
"389 -2 LINE",
"378 -68 LINE",
"376 -108 LINE",
"389 -102 OFFCURVE",
"423 -99 OFFCURVE",
"438 -99 CURVE",
"477 -99 OFFCURVE",
"481 -118 OFFCURVE",
"481 -153 CURVE SMOOTH",
"481 -186 OFFCURVE",
"461 -219 OFFCURVE",
"416 -219 CURVE SMOOTH",
"391 -219 OFFCURVE",
"368 -214 OFFCURVE",
"347 -205 CURVE",
"346 -206 OFFCURVE",
"345 -209 OFFCURVE",
"343 -214 CURVE SMOOTH",
"341 -219 OFFCURVE",
"339 -226 OFFCURVE",
"336 -233 CURVE",
"326 -288 LINE",
"332 -295 OFFCURVE",
"341 -301 OFFCURVE",
"352 -305 CURVE SMOOTH",
"375 -313 OFFCURVE",
"396 -318 OFFCURVE",
"416 -318 CURVE SMOOTH",
"433 -318 LINE SMOOTH",
"602 -318 OFFCURVE",
"656 -251 OFFCURVE",
"656 -164 CURVE SMOOTH",
"656 -105 OFFCURVE",
"604 -55 OFFCURVE",
"491 -38 CURVE",
"496 -14 LINE"
);
},
{
closed = 1;
nodes = (
"420 -20 OFFCURVE",
"420 -20 OFFCURVE",
"421 -20 CURVE",
"420 -20 LINE SMOOTH"
);
},
{
closed = 1;
nodes = (
"421 -20 OFFCURVE",
"421 -20 OFFCURVE",
"421 -20 CURVE SMOOTH"
);
},
{
closed = 1;
nodes = (
"608 203 OFFCURVE",
"584 200 OFFCURVE",
"559 197 CURVE SMOOTH",
"505 190 LINE",
"489 189 LINE",
"489 189 LINE",
"478 189 LINE SMOOTH",
"405 189 OFFCURVE",
"363 230 OFFCURVE",
"363 338 CURVE SMOOTH",
"363 455 OFFCURVE",
"444 501 OFFCURVE",
"528 501 CURVE",
"528 501 OFFCURVE",
"529 501 OFFCURVE",
"529 502 CURVE",
"555 505 OFFCURVE",
"542 501 OFFCURVE",
"564 501 CURVE SMOOTH",
"578 501 LINE",
"661 490 LINE",
"678 501 OFFCURVE",
"682 520 OFFCURVE",
"682 552 CURVE SMOOTH",
"682 570 OFFCURVE",
"681 600 OFFCURVE",
"679 616 CURVE",
"677 627 OFFCURVE",
"676 637 OFFCURVE",
"676 647 CURVE",
"674 667 LINE",
"672 667 LINE SMOOTH",
"669 667 OFFCURVE",
"667 668 OFFCURVE",
"664 673 CURVE",
"663 674 OFFCURVE",
"661 676 OFFCURVE",
"660 678 CURVE",
"658 680 OFFCURVE",
"657 681 OFFCURVE",
"656 681 CURVE SMOOTH",
"645 681 OFFCURVE",
"629 685 OFFCURVE",
"616 687 CURVE SMOOTH",
"586 692 LINE",
"575 693 OFFCURVE",
"567 695 OFFCURVE",
"561 696 CURVE",
"502 703 OFFCURVE",
"494 707 OFFCURVE",
"461 707 CURVE SMOOTH",
"345 707 OFFCURVE",
"214 675 OFFCURVE",
"141 617 CURVE SMOOTH",
"66 557 OFFCURVE",
"25 469 OFFCURVE",
"25 332 CURVE SMOOTH",
"25 341 LINE SMOOTH",
"25 223 OFFCURVE",
"66 128 OFFCURVE",
"141 68 CURVE SMOOTH",
"214 10 OFFCURVE",
"304 -22 OFFCURVE",
"420 -22 CURVE SMOOTH",
"515 -22 OFFCURVE",
"626 -17 OFFCURVE",
"697 58 CURVE",
"696 104 OFFCURVE",
"692 156 OFFCURVE",
"672 212 CURVE",
"672 215 LINE",
"671 223 OFFCURVE",
"666 228 OFFCURVE",
"659 232 CURVE"
);
}
);
width = 717;
}
);
note = Ccedilla;
unicode = 00C7;
},
{
glyphname = D;
lastChange = "2017-08-21 16:23:34 +0000";
layers = (
{
layerId = "CBDECE4A-293B-4E5C-B714-A3FD26C7130D";
paths = (
{
closed = 1;
nodes = (
"517 -2 OFFCURVE",
"624 24 OFFCURVE",
"692 83 CURVE SMOOTH",
"760 142 OFFCURVE",
"790 233 OFFCURVE",
"790 373 CURVE SMOOTH",
"790 447 OFFCURVE",
"774 509 OFFCURVE",
"741 560 CURVE SMOOTH",
"686 644 OFFCURVE",
"595 673 OFFCURVE",
"512 673 CURVE SMOOTH",
"488 673 OFFCURVE",
"455 672 OFFCURVE",
"414 671 CURVE SMOOTH",
"377 670 LINE SMOOTH",
"349 669 OFFCURVE",
"310 669 OFFCURVE",
"260 669 CURVE SMOOTH",
"227 669 OFFCURVE",
"199 669 OFFCURVE",
"177 670 CURVE",
"61 671 LINE SMOOTH",
"49 671 OFFCURVE",
"35 657 OFFCURVE",
"35 645 CURVE SMOOTH",
"35 425 LINE SMOOTH",
"35 352 OFFCURVE",
"37 283 OFFCURVE",
"38 218 CURVE SMOOTH",
"39 173 OFFCURVE",
"40 121 OFFCURVE",
"40 63 CURVE SMOOTH",
"40 46 OFFCURVE",
"42 32 OFFCURVE",
"45 23 CURVE",
"48 8 OFFCURVE",
"56 1 OFFCURVE",
"67 1 CURVE SMOOTH",
"220 0 LINE",
"352 -1 LINE SMOOTH"
);
},
{
closed = 1;
nodes = (
"362 301 OFFCURVE",
"363 325 OFFCURVE",
"364 358 CURVE SMOOTH",
"365 382 LINE SMOOTH",
"366 403 OFFCURVE",
"369 419 OFFCURVE",
"369 430 CURVE SMOOTH",
"370 550 LINE",
"378 553 OFFCURVE",
"381 554 OFFCURVE",
"382 555 CURVE",
"387 556 OFFCURVE",
"401 560 OFFCURVE",
"419 560 CURVE SMOOTH",
"427 560 OFFCURVE",
"437 555 OFFCURVE",
"447 546 CURVE",
"472 518 OFFCURVE",
"482 430 OFFCURVE",
"482 395 CURVE SMOOTH",
"482 376 LINE SMOOTH",
"482 348 OFFCURVE",
"480 315 OFFCURVE",
"475 276 CURVE",
"457 185 OFFCURVE",
"440 140 OFFCURVE",
"419 121 CURVE",
"417 120 OFFCURVE",
"413 120 OFFCURVE",
"412 119 CURVE",
"409 118 OFFCURVE",
"406 117 OFFCURVE",
"401 116 CURVE",
"388 115 OFFCURVE",
"378 114 OFFCURVE",
"370 114 CURVE SMOOTH",
"362 114 OFFCURVE",
"359 114 OFFCURVE",
"354 115 CURVE",
"361 286 LINE SMOOTH"
);
}
);
width = 810;
}
);
note = D;
unicode = 0044;
},
{
glyphname = Eth;
lastChange = "2017-08-01 16:28:02 +0000";
layers = (
{
layerId = "CBDECE4A-293B-4E5C-B714-A3FD26C7130D";
paths = (
{
closed = 1;
nodes = (
"547 1 OFFCURVE",
"651 27 OFFCURVE",
"721 82 CURVE SMOOTH",
"793 139 OFFCURVE",
"820 232 OFFCURVE",
"820 373 CURVE SMOOTH",
"820 446 OFFCURVE",
"804 509 OFFCURVE",
"772 562 CURVE SMOOTH",
"721 646 OFFCURVE",
"623 673 OFFCURVE",
"543 673 CURVE SMOOTH",
"518 673 OFFCURVE",
"484 672 OFFCURVE",
"444 671 CURVE SMOOTH",
"407 670 LINE SMOOTH",
"379 669 OFFCURVE",
"340 670 OFFCURVE",
"290 670 CURVE SMOOTH",
"257 670 OFFCURVE",
"228 670 OFFCURVE",
"208 670 CURVE",
"91 671 LINE SMOOTH",
"79 671 OFFCURVE",
"63 658 OFFCURVE",
"63 645 CURVE SMOOTH",
"63 424 LINE SMOOTH",
"63 354 OFFCURVE",
"69 283 OFFCURVE",
"70 218 CURVE SMOOTH",
"71 174 OFFCURVE",
"70 121 OFFCURVE",
"70 63 CURVE SMOOTH",
"70 46 OFFCURVE",
"71 31 OFFCURVE",
"74 21 CURVE",
"79 7 OFFCURVE",
"87 2 OFFCURVE",
"97 2 CURVE SMOOTH",
"249 1 LINE",
"379 1 LINE SMOOTH"
);
},
{
closed = 1;
nodes = (
"407 301 OFFCURVE",
"408 323 OFFCURVE",
"409 356 CURVE SMOOTH",
"410 381 LINE SMOOTH",
"411 402 OFFCURVE",
"412 418 OFFCURVE",
"412 429 CURVE SMOOTH",
"412 549 LINE",
"420 553 OFFCURVE",
"422 553 OFFCURVE",
"424 554 CURVE",
"426 555 OFFCURVE",
"438 561 OFFCURVE",
"455 561 CURVE SMOOTH",
"464 561 OFFCURVE",
"471 554 OFFCURVE",
"479 544 CURVE",
"499 517 OFFCURVE",
"509 429 OFFCURVE",
"509 394 CURVE SMOOTH",
"509 375 LINE SMOOTH",
"509 349 OFFCURVE",
"505 313 OFFCURVE",
"503 275 CURVE",
"489 185 OFFCURVE",
"473 140 OFFCURVE",
"455 121 CURVE",
"453 120 OFFCURVE",
"450 120 OFFCURVE",
"449 118 CURVE",
"447 118 OFFCURVE",
"444 116 OFFCURVE",
"438 116 CURVE",
"428 114 OFFCURVE",
"420 113 OFFCURVE",
"412 113 CURVE SMOOTH",
"407 113 OFFCURVE",
"404 113 OFFCURVE",
"399 114 CURVE",
"406 284 LINE SMOOTH"
);
},
{
closed = 1;
nodes = (
"56 408 LINE",
"32 408 LINE SMOOTH",
"19 408 OFFCURVE",
"5 398 OFFCURVE",
"5 394 CURVE SMOOTH",
"5 368 OFFCURVE",
"5 354 OFFCURVE",
"6 340 CURVE",
"6 284 LINE SMOOTH",
"6 279 OFFCURVE",
"15 274 OFFCURVE",
"29 271 CURVE",
"36 271 OFFCURVE",
"56 269 OFFCURVE",
"79 269 CURVE",
"79 408 LINE"
);
},
{
closed = 1;
nodes = (
"401 271 LINE",
"413 271 OFFCURVE",
"425 272 OFFCURVE",
"434 274 CURVE",
"448 275 OFFCURVE",
"460 283 OFFCURVE",
"460 300 CURVE SMOOTH",
"460 323 LINE",
"460 328 OFFCURVE",
"461 335 OFFCURVE",
"461 342 CURVE SMOOTH",
"464 394 LINE SMOOTH",
"464 397 OFFCURVE",
"455 406 OFFCURVE",
"443 406 CURVE",
"425 407 OFFCURVE",
"412 408 OFFCURVE",
"402 408 CURVE",
"401 408 LINE"
);
}
);
width = 835;
}
);
note = Eth;
unicode = 00D0;
},
{
glyphname = E;
lastChange = "2017-08-14 17:15:33 +0000";
layers = (
{
layerId = "CBDECE4A-293B-4E5C-B714-A3FD26C7130D";
paths = (
{
closed = 1;
nodes = (
"310 -4 OFFCURVE",
"413 -3 OFFCURVE",
"484 -3 CURVE SMOOTH",
"515 -3 OFFCURVE",
"540 -3 OFFCURVE",
"555 -2 CURVE SMOOTH",
"583 0 OFFCURVE",
"608 1 OFFCURVE",
"626 1 CURVE SMOOTH",
"637 1 OFFCURVE",
"645 8 OFFCURVE",
"645 22 CURVE SMOOTH",
"645 27 OFFCURVE",
"644 32 OFFCURVE",
"643 37 CURVE SMOOTH",
"635 77 OFFCURVE",
"622 139 OFFCURVE",
"615 152 CURVE",
"611 158 OFFCURVE",
"610 159 OFFCURVE",
"607 159 CURVE SMOOTH",
"567 159 OFFCURVE",
"534 158 OFFCURVE",
"512 157 CURVE",
"490 155 OFFCURVE",
"458 154 OFFCURVE",
"365 154 CURVE",
"365 171 OFFCURVE",
"365 185 OFFCURVE",
"367 193 CURVE",
"369 248 OFFCURVE",
"364 244 OFFCURVE",
"385 249 CURVE SMOOTH",
"389 250 OFFCURVE",
"401 250 OFFCURVE",
"420 250 CURVE",
"430 249 OFFCURVE",
"452 249 OFFCURVE",
"485 249 CURVE SMOOTH",
"525 249 OFFCURVE",
"552 250 OFFCURVE",
"567 254 CURVE",
"590 255 OFFCURVE",
"601 263 OFFCURVE",
"601 274 CURVE SMOOTH",
"601 277 LINE",
"599 376 LINE",
"597 385 OFFCURVE",
"594 396 OFFCURVE",
"576 398 CURVE",
"566 398 LINE",
"532 402 OFFCURVE",
"502 404 OFFCURVE",
"477 404 CURVE SMOOTH",
"388 404 LINE SMOOTH",
"374 404 OFFCURVE",
"370 407 OFFCURVE",
"370 425 CURVE",
"372 459 LINE SMOOTH",
"373 471 OFFCURVE",
"378 471 OFFCURVE",
"382 480 CURVE",
"385 487 OFFCURVE",
"388 491 OFFCURVE",
"390 491 CURVE",
"403 492 OFFCURVE",
"420 493 OFFCURVE",
"442 496 CURVE",
"494 500 LINE",
"536 506 OFFCURVE",
"570 507 OFFCURVE",
"599 507 CURVE SMOOTH",
"602 507 OFFCURVE",
"607 507 OFFCURVE",
"610 506 CURVE",
"617 506 OFFCURVE",
"620 509 OFFCURVE",
"621 515 CURVE",
"621 516 OFFCURVE",
"621 519 OFFCURVE",
"622 523 CURVE",
"622 526 OFFCURVE",
"622 530 OFFCURVE",
"621 534 CURVE",
"618 549 OFFCURVE",
"615 561 OFFCURVE",
"613 591 CURVE",
"610 610 OFFCURVE",
"608 622 OFFCURVE",
"606 628 CURVE",
"601 652 OFFCURVE",
"594 665 OFFCURVE",
"583 665 CURVE",
"554 667 OFFCURVE",
"513 671 OFFCURVE",
"457 671 CURVE SMOOTH",
"413 671 LINE SMOOTH",
"372 671 OFFCURVE",
"314 670 OFFCURVE",
"235 669 CURVE",
"210 666 OFFCURVE",
"170 666 OFFCURVE",
"116 666 CURVE SMOOTH",
"94 666 OFFCURVE",
"76 665 OFFCURVE",
"67 664 CURVE",
"49 658 OFFCURVE",
"42 653 OFFCURVE",
"42 646 CURVE",
"35 567 OFFCURVE",
"35 473 OFFCURVE",
"35 390 CURVE SMOOTH",
"35 344 OFFCURVE",
"35 315 OFFCURVE",
"36 301 CURVE SMOOTH",
"37 287 OFFCURVE",
"35 267 OFFCURVE",
"37 242 CURVE SMOOTH",
"39 212 LINE SMOOTH",
"40 193 OFFCURVE",
"40 179 OFFCURVE",
"40 167 CURVE",
"42 125 LINE",
"43 113 OFFCURVE",
"46 99 OFFCURVE",
"46 78 CURVE",
"48 50 OFFCURVE",
"49 27 OFFCURVE",
"49 10 CURVE",
"48 9 OFFCURVE",
"49 9 OFFCURVE",
"49 8 CURVE",
"50 7 OFFCURVE",
"54 5 OFFCURVE",
"57 5 CURVE",
"78 0 LINE",
"87 -2 OFFCURVE",
"95 -2 OFFCURVE",
"102 -3 CURVE SMOOTH",
"109 -4 OFFCURVE",
"114 -4 OFFCURVE",
"117 -4 CURVE SMOOTH",
"275 -4 LINE SMOOTH"
);
}
);
width = 650;
}
);
note = E;
unicode = 0045;
},
{
glyphname = Eogonek;
lastChange = "2017-08-15 17:07:16 +0000";
layers = (
{
layerId = "CBDECE4A-293B-4E5C-B714-A3FD26C7130D";
paths = (
{
closed = 1;
nodes = (
"665 -151 OFFCURVE",
"636 -157 OFFCURVE",
"609 -157 CURVE SMOOTH",
"600 -157 OFFCURVE",
"594 -157 OFFCURVE",
"589 -158 CURVE",
"581 -161 OFFCURVE",
"571 -156 OFFCURVE",
"568 -155 CURVE",
"553 -151 OFFCURVE",
"545 -143 OFFCURVE",
"545 -123 CURVE SMOOTH",
"545 -115 OFFCURVE",
"549 -103 OFFCURVE",
"558 -87 CURVE SMOOTH",
"571 -64 OFFCURVE",
"585 -46 OFFCURVE",
"604 -30 CURVE",
"641 8 LINE",
"654 8 OFFCURVE",
"415 4 OFFCURVE",
"475 4 CURVE",
"458 -7 LINE SMOOTH",
"455 -9 OFFCURVE",
"449 -12 OFFCURVE",
"442 -16 CURVE",
"434 -21 OFFCURVE",
"428 -25 OFFCURVE",
"423 -30 CURVE",
"367 -67 OFFCURVE",
"340 -100 OFFCURVE",
"340 -160 CURVE SMOOTH",
"340 -172 OFFCURVE",
"342 -183 OFFCURVE",
"345 -192 CURVE",
"356 -217 OFFCURVE",
"379 -237 OFFCURVE",
"416 -250 CURVE SMOOTH",
"455 -264 OFFCURVE",
"510 -273 OFFCURVE",
"583 -273 CURVE",
"593 -271 LINE",
"595 -270 OFFCURVE",
"598 -270 OFFCURVE",
"601 -270 CURVE SMOOTH",
"604 -270 OFFCURVE",
"608 -269 OFFCURVE",
"613 -268 CURVE",
"624 -267 OFFCURVE",
"640 -262 OFFCURVE",
"660 -255 CURVE",
"673 -248 OFFCURVE",
"685 -242 OFFCURVE",
"686 -237 CURVE SMOOTH",
"703 -155 LINE",
"703 -150 LINE SMOOTH",
"703 -145 OFFCURVE",
"701 -142 OFFCURVE",
"696 -140 CURVE"
);
},
{
closed = 1;
nodes = (
"310 1 OFFCURVE",
"413 1 OFFCURVE",
"483 1 CURVE SMOOTH",
"516 1 OFFCURVE",
"540 2 OFFCURVE",
"555 3 CURVE SMOOTH",
"584 5 OFFCURVE",
"608 5 OFFCURVE",
"625 5 CURVE SMOOTH",
"638 5 OFFCURVE",
"645 12 OFFCURVE",
"645 26 CURVE SMOOTH",
"645 31 OFFCURVE",
"644 36 OFFCURVE",
"643 41 CURVE SMOOTH",
"635 81 OFFCURVE",
"622 143 OFFCURVE",
"615 156 CURVE",
"612 161 OFFCURVE",
"610 163 OFFCURVE",
"607 163 CURVE SMOOTH",
"566 163 OFFCURVE",
"534 162 OFFCURVE",
"511 160 CURVE",
"490 159 OFFCURVE",
"458 158 OFFCURVE",
"365 158 CURVE",
"365 175 OFFCURVE",
"365 188 OFFCURVE",
"366 196 CURVE",
"370 252 OFFCURVE",
"364 248 OFFCURVE",
"385 253 CURVE SMOOTH",
"389 254 OFFCURVE",
"401 254 OFFCURVE",
"420 254 CURVE",
"430 253 OFFCURVE",
"452 253 OFFCURVE",
"486 253 CURVE SMOOTH",
"525 253 OFFCURVE",
"552 255 OFFCURVE",
"566 258 CURVE",
"590 260 OFFCURVE",
"602 267 OFFCURVE",
"602 278 CURVE SMOOTH",
"602 281 LINE",
"598 380 LINE",
"597 389 OFFCURVE",
"594 399 OFFCURVE",
"577 403 CURVE",
"565 403 LINE",
"532 406 OFFCURVE",
"502 408 OFFCURVE",
"476 408 CURVE SMOOTH",
"387 408 LINE SMOOTH",
"374 408 OFFCURVE",
"371 411 OFFCURVE",
"371 428 CURVE",
"373 463 LINE SMOOTH",
"374 474 OFFCURVE",
"379 474 OFFCURVE",
"382 483 CURVE",
"385 491 OFFCURVE",
"388 495 OFFCURVE",
"390 495 CURVE",
"403 496 OFFCURVE",
"420 497 OFFCURVE",
"442 500 CURVE",
"495 504 LINE",
"536 509 OFFCURVE",
"570 511 OFFCURVE",
"598 511 CURVE SMOOTH",
"603 511 OFFCURVE",
"607 511 OFFCURVE",
"610 510 CURVE",
"617 510 OFFCURVE",
"620 513 OFFCURVE",
"621 520 CURVE",
"621 521 OFFCURVE",
"621 523 OFFCURVE",
"622 527 CURVE",
"622 530 OFFCURVE",
"622 534 OFFCURVE",
"621 538 CURVE",
"618 553 OFFCURVE",
"615 565 OFFCURVE",
"613 595 CURVE",
"610 614 OFFCURVE",
"608 626 OFFCURVE",
"606 631 CURVE",
"601 656 OFFCURVE",
"594 669 OFFCURVE",
"583 669 CURVE",
"554 672 OFFCURVE",
"512 674 OFFCURVE",
"457 675 CURVE SMOOTH",
"413 675 LINE SMOOTH",
"373 675 OFFCURVE",
"314 674 OFFCURVE",
"235 673 CURVE",
"210 671 OFFCURVE",
"170 670 OFFCURVE",
"116 670 CURVE SMOOTH",
"93 670 OFFCURVE",
"76 669 OFFCURVE",
"66 668 CURVE",
"50 663 OFFCURVE",
"42 657 OFFCURVE",
"42 650 CURVE",
"35 570 OFFCURVE",
"35 477 OFFCURVE",
"35 393 CURVE SMOOTH",
"35 348 OFFCURVE",
"35 319 OFFCURVE",
"36 305 CURVE SMOOTH",
"37 291 OFFCURVE",
"37 271 OFFCURVE",
"37 246 CURVE SMOOTH",
"38 215 LINE SMOOTH",
"39 198 OFFCURVE",
"40 183 OFFCURVE",
"40 172 CURVE",
"42 129 LINE",
"43 118 OFFCURVE",
"45 103 OFFCURVE",
"45 83 CURVE",
"47 54 OFFCURVE",
"48 31 OFFCURVE",
"48 14 CURVE",
"47 13 OFFCURVE",
"48 13 OFFCURVE",
"50 12 CURVE",
"51 11 OFFCURVE",
"54 10 OFFCURVE",
"57 9 CURVE",
"78 4 LINE",
"87 3 OFFCURVE",
"95 3 OFFCURVE",
"102 2 CURVE SMOOTH",
"109 1 OFFCURVE",
"114 0 OFFCURVE",
"117 0 CURVE SMOOTH",
"275 0 LINE SMOOTH"
);
}
);
width = 650;
}
);
note = Eogonek;
unicode = 0118;
},
{
glyphname = F;
lastChange = "2017-08-03 20:16:07 +0000";
layers = (
{
layerId = "CBDECE4A-293B-4E5C-B714-A3FD26C7130D";
paths = (
{
closed = 1;
nodes = (
"156 -2 LINE",
"159 -1 OFFCURVE",
"162 0 OFFCURVE",
"165 1 CURVE",
"167 1 OFFCURVE",
"168 1 OFFCURVE",
"169 2 CURVE",
"248 -8 LINE",
"251 -5 OFFCURVE",
"255 -4 OFFCURVE",
"256 -4 CURVE SMOOTH",
"258 -4 OFFCURVE",
"259 -4 OFFCURVE",
"259 -5 CURVE",
"262 -6 LINE",
"263 -6 OFFCURVE",
"265 -6 OFFCURVE",
"266 -7 CURVE SMOOTH",
"267 -8 OFFCURVE",
"269 -8 OFFCURVE",
"272 -8 CURVE SMOOTH",
"274 -8 LINE",
"282 -8 LINE",
"285 -7 OFFCURVE",
"291 -6 OFFCURVE",
"302 -6 CURVE",
"324 -5 OFFCURVE",
"341 -4 OFFCURVE",
"353 -4 CURVE",
"358 10 OFFCURVE",
"360 32 OFFCURVE",
"362 61 CURVE SMOOTH",
"362 83 OFFCURVE",
"364 122 OFFCURVE",
"364 180 CURVE",
"367 186 OFFCURVE",
"371 189 OFFCURVE",
"373 190 CURVE",
"376 193 OFFCURVE",
"383 194 OFFCURVE",
"393 194 CURVE SMOOTH",
"406 194 LINE",
"414 195 OFFCURVE",
"420 196 OFFCURVE",
"425 197 CURVE",
"428 198 OFFCURVE",
"435 199 OFFCURVE",
"445 199 CURVE SMOOTH",
"464 199 LINE",
"505 201 LINE",
"510 202 OFFCURVE",
"515 203 OFFCURVE",
"520 203 CURVE SMOOTH",
"528 203 OFFCURVE",
"532 206 OFFCURVE",
"535 218 CURVE",
"535 242 LINE",
"535 299 LINE SMOOTH",
"535 329 OFFCURVE",
"534 348 OFFCURVE",
"531 356 CURVE SMOOTH",
"527 367 OFFCURVE",
"521 370 OFFCURVE",
"505 370 CURVE SMOOTH",
"391 370 LINE",
"388 373 OFFCURVE",
"387 376 OFFCURVE",
"387 379 CURVE",
"388 381 LINE",
"388 423 OFFCURVE",
"393 487 OFFCURVE",
"394 496 CURVE",
"394 498 OFFCURVE",
"394 500 OFFCURVE",
"395 501 CURVE SMOOTH",
"396 502 OFFCURVE",
"396 504 OFFCURVE",
"396 505 CURVE",
"397 505 OFFCURVE",
"398 505 OFFCURVE",
"399 506 CURVE SMOOTH",
"400 507 OFFCURVE",
"401 507 OFFCURVE",
"403 508 CURVE",
"404 507 OFFCURVE",
"412 507 OFFCURVE",
"426 507 CURVE SMOOTH",
"440 507 OFFCURVE",
"450 508 OFFCURVE",
"456 510 CURVE",
"484 511 LINE",
"527 511 LINE",
"541 511 LINE SMOOTH",
"556 511 OFFCURVE",
"574 510 OFFCURVE",
"574 523 CURVE SMOOTH",
"574 545 OFFCURVE",
"575 561 OFFCURVE",
"575 572 CURVE SMOOTH",
"575 584 OFFCURVE",
"577 601 OFFCURVE",
"577 605 CURVE SMOOTH",
"577 610 OFFCURVE",
"576 617 OFFCURVE",
"575 623 CURVE",
"574 650 OFFCURVE",
"566 664 OFFCURVE",
"552 664 CURVE",
"550 662 OFFCURVE",
"548 661 OFFCURVE",
"545 661 CURVE SMOOTH",
"538 661 OFFCURVE",
"532 662 OFFCURVE",
"527 663 CURVE",
"524 664 OFFCURVE",
"520 664 OFFCURVE",
"515 664 CURVE SMOOTH",
"487 664 OFFCURVE",
"469 665 OFFCURVE",
"457 666 CURVE",
"359 666 LINE",
"349 667 OFFCURVE",
"333 667 OFFCURVE",
"313 667 CURVE SMOOTH",
"304 667 LINE",
"286 667 LINE SMOOTH",
"278 667 OFFCURVE",
"273 667 OFFCURVE",
"269 668 CURVE",
"259 668 LINE SMOOTH",
"226 668 OFFCURVE",
"185 667 OFFCURVE",
"138 666 CURVE SMOOTH",
"101 665 OFFCURVE",
"73 663 OFFCURVE",
"51 663 CURVE",
"48 664 LINE",
"42 664 LINE",
"37 663 OFFCURVE",
"35 659 OFFCURVE",
"35 653 CURVE SMOOTH",
"35 323 LINE",
"36 313 OFFCURVE",
"40 284 OFFCURVE",
"40 261 CURVE",
"42 237 OFFCURVE",
"44 197 OFFCURVE",
"47 138 CURVE",
"47 118 OFFCURVE",
"48 89 OFFCURVE",
"50 67 CURVE",
"50 46 LINE SMOOTH",
"50 29 OFFCURVE",
"52 -10 OFFCURVE",
"79 -10 CURVE",
"96 -9 LINE"
);
}
);
width = 582;
}
);
note = F;
unicode = 0046;
},
{
glyphname = G;
lastChange = "2017-08-16 16:30:13 +0000";
layers = (
{
layerId = "CBDECE4A-293B-4E5C-B714-A3FD26C7130D";
paths = (
{
closed = 1;
nodes = (
"733 350 OFFCURVE",
"728 358 OFFCURVE",
"711 361 CURVE SMOOTH",
"706 362 OFFCURVE",
"694 362 OFFCURVE",
"676 362 CURVE",
"668 361 OFFCURVE",
"647 361 OFFCURVE",
"616 361 CURVE SMOOTH",
"512 361 LINE SMOOTH",
"503 361 OFFCURVE",
"497 361 OFFCURVE",
"494 362 CURVE",
"484 362 OFFCURVE",
"481 359 OFFCURVE",
"481 346 CURVE SMOOTH",
"481 322 LINE SMOOTH",
"481 294 OFFCURVE",
"481 252 OFFCURVE",
"482 238 CURVE SMOOTH",
"483 219 LINE SMOOTH",
"484 199 OFFCURVE",
"485 193 OFFCURVE",
"485 183 CURVE",
"464 165 OFFCURVE",
"465 159 OFFCURVE",
"449 159 CURVE SMOOTH",
"421 159 OFFCURVE",
"391 173 OFFCURVE",
"377 195 CURVE",
"362 215 OFFCURVE",
"352 251 OFFCURVE",
"352 342 CURVE SMOOTH",
"352 456 OFFCURVE",
"402 489 OFFCURVE",
"483 489 CURVE SMOOTH",
"484 489 OFFCURVE",
"484 490 OFFCURVE",
"485 490 CURVE",
"485 489 LINE",
"485 489 OFFCURVE",
"485 489 OFFCURVE",
"485 490 CURVE",
"512 493 OFFCURVE",
"528 488 OFFCURVE",
"550 488 CURVE SMOOTH",
"564 488 LINE",
"674 468 LINE",
"690 480 OFFCURVE",
"696 498 OFFCURVE",
"696 530 CURVE SMOOTH",
"696 546 OFFCURVE",
"694 564 OFFCURVE",
"691 595 CURVE",
"689 605 OFFCURVE",
"689 616 OFFCURVE",
"689 626 CURVE",
"687 644 LINE",
"685 644 LINE SMOOTH",
"681 644 OFFCURVE",
"680 646 OFFCURVE",
"677 650 CURVE",
"676 651 OFFCURVE",
"674 653 OFFCURVE",
"673 655 CURVE",
"671 656 OFFCURVE",
"670 657 OFFCURVE",
"670 657 CURVE SMOOTH",
"661 657 OFFCURVE",
"644 661 OFFCURVE",
"621 665 CURVE SMOOTH",
"591 670 LINE",
"580 672 OFFCURVE",
"572 673 OFFCURVE",
"567 673 CURVE",
"509 681 OFFCURVE",
"471 684 OFFCURVE",
"440 684 CURVE",
"318 684 OFFCURVE",
"201 652 OFFCURVE",
"134 596 CURVE SMOOTH",
"63 536 OFFCURVE",
"20 452 OFFCURVE",
"20 346 CURVE SMOOTH",
"20 159 OFFCURVE",
"90 50 OFFCURVE",
"181 10 CURVE",
"222 -12 OFFCURVE",
"268 -24 OFFCURVE",
"320 -24 CURVE SMOOTH",
"416 -24 OFFCURVE",
"478 13 OFFCURVE",
"491 75 CURVE",
"492 61 OFFCURVE",
"493 49 OFFCURVE",
"494 42 CURVE",
"496 28 OFFCURVE",
"499 15 OFFCURVE",
"503 3 CURVE",
"505 -2 OFFCURVE",
"508 -3 OFFCURVE",
"510 -3 CURVE SMOOTH",
"513 -3 OFFCURVE",
"517 -3 OFFCURVE",
"518 -2 CURVE",
"643 -2 LINE",
"644 -2 LINE",
"644 -1 OFFCURVE",
"644 -1 OFFCURVE",
"645 0 CURVE",
"649 0 LINE",
"649 -1 OFFCURVE",
"649 0 OFFCURVE",
"651 -2 CURVE SMOOTH",
"652 -3 OFFCURVE",
"654 -2 OFFCURVE",
"661 -2 CURVE SMOOTH",
"663 -2 LINE",
"682 -2 LINE",
"691 -1 OFFCURVE",
"706 0 OFFCURVE",
"722 0 CURVE",
"728 15 OFFCURVE",
"731 51 OFFCURVE",
"731 132 CURVE SMOOTH",
"731 136 LINE SMOOTH",
"731 142 OFFCURVE",
"733 149 OFFCURVE",
"734 154 CURVE",
"734 326 LINE",
"733 328 OFFCURVE",
"733 331 OFFCURVE",
"733 334 CURVE SMOOTH"
);
}
);
width = 749;
}
);
note = G;
unicode = 0047;
},
{
glyphname = H;
lastChange = "2017-08-03 17:24:39 +0000";
layers = (
{
layerId = "CBDECE4A-293B-4E5C-B714-A3FD26C7130D";
paths = (
{
closed = 1;
nodes = (
"259 -4 OFFCURVE",
"294 -3 OFFCURVE",
"346 0 CURVE SMOOTH",
"362 1 LINE",
"383 8 OFFCURVE",
"383 57 OFFCURVE",
"383 68 CURVE",
"383 90 OFFCURVE",
"383 142 OFFCURVE",
"383 225 CURVE SMOOTH",
"383 237 OFFCURVE",
"386 242 OFFCURVE",
"391 242 CURVE SMOOTH",
"400 242 LINE SMOOTH",
"407 242 OFFCURVE",
"422 241 OFFCURVE",
"446 240 CURVE",
"458 239 OFFCURVE",
"471 239 OFFCURVE",
"490 239 CURVE SMOOTH",
"497 239 LINE",
"508 54 LINE",
"509 45 OFFCURVE",
"510 38 OFFCURVE",
"511 33 CURVE SMOOTH",
"513 21 OFFCURVE",
"514 14 OFFCURVE",
"518 6 CURVE",
"520 4 OFFCURVE",
"522 1 OFFCURVE",
"524 1 CURVE SMOOTH",
"799 1 LINE SMOOTH",
"808 1 OFFCURVE",
"822 17 OFFCURVE",
"822 23 CURVE",
"847 393 LINE",
"847 395 OFFCURVE",
"847 396 OFFCURVE",
"847 397 CURVE",
"846 400 OFFCURVE",
"844 405 OFFCURVE",
"844 413 CURVE SMOOTH",
"844 439 OFFCURVE",
"845 473 OFFCURVE",
"847 515 CURVE",
"848 560 OFFCURVE",
"849 594 OFFCURVE",
"849 620 CURVE SMOOTH",
"849 640 OFFCURVE",
"847 649 OFFCURVE",
"838 655 CURVE",
"834 658 OFFCURVE",
"823 660 OFFCURVE",
"807 660 CURVE SMOOTH",
"780 660 LINE",
"763 659 OFFCURVE",
"727 658 OFFCURVE",
"674 658 CURVE SMOOTH",
"617 658 LINE",
"604 657 OFFCURVE",
"588 656 OFFCURVE",
"569 656 CURVE",
"543 656 LINE",
"526 656 OFFCURVE",
"518 655 OFFCURVE",
"514 654 CURVE",
"509 654 OFFCURVE",
"504 650 OFFCURVE",
"499 645 CURVE",
"496 637 OFFCURVE",
"495 619 OFFCURVE",
"495 600 CURVE SMOOTH",
"495 591 LINE",
"494 550 LINE SMOOTH",
"494 539 OFFCURVE",
"494 531 OFFCURVE",
"493 524 CURVE",
"492 456 LINE",
"480 456 OFFCURVE",
"471 457 OFFCURVE",
"465 458 CURVE",
"453 458 OFFCURVE",
"426 459 OFFCURVE",
"410 463 CURVE",
"383 463 LINE",
"384 504 LINE",
"385 512 OFFCURVE",
"385 525 OFFCURVE",
"385 542 CURVE SMOOTH",
"385 548 OFFCURVE",
"385 550 OFFCURVE",
"384 553 CURVE SMOOTH",
"383 556 OFFCURVE",
"383 557 OFFCURVE",
"383 561 CURVE",
"383 574 LINE",
"385 589 LINE",
"385 592 OFFCURVE",
"385 593 OFFCURVE",
"386 597 CURVE SMOOTH",
"387 601 OFFCURVE",
"387 602 OFFCURVE",
"387 605 CURVE SMOOTH",
"387 615 LINE SMOOTH",
"387 650 OFFCURVE",
"374 658 OFFCURVE",
"340 658 CURVE SMOOTH",
"325 658 LINE",
"288 658 LINE",
"241 658 LINE",
"231 659 OFFCURVE",
"213 659 OFFCURVE",
"195 659 CURVE SMOOTH",
"178 659 OFFCURVE",
"165 659 OFFCURVE",
"158 660 CURVE",
"141 660 LINE",
"84 660 LINE SMOOTH",
"71 660 OFFCURVE",
"61 657 OFFCURVE",
"55 651 CURVE",
"53 649 OFFCURVE",
"49 646 OFFCURVE",
"46 644 CURVE",
"42 641 OFFCURVE",
"39 638 OFFCURVE",
"38 637 CURVE",
"38 637 OFFCURVE",
"38 636 OFFCURVE",
"38 634 CURVE",
"36 631 OFFCURVE",
"36 628 OFFCURVE",
"36 620 CURVE",
"35 602 OFFCURVE",
"34 583 OFFCURVE",
"34 563 CURVE",
"34 556 OFFCURVE",
"34 547 OFFCURVE",
"34 533 CURVE",
"32 481 LINE",
"32 460 OFFCURVE",
"32 445 OFFCURVE",
"31 432 CURVE SMOOTH",
"30 422 OFFCURVE",
"30 413 OFFCURVE",
"30 408 CURVE SMOOTH",
"30 387 LINE",
"49 35 LINE",
"49 28 OFFCURVE",
"55 9 OFFCURVE",
"60 9 CURVE",
"108 -4 OFFCURVE",
"154 -5 OFFCURVE",
"238 -5 CURVE"
);
}
);
width = 879;
}
);
note = H;
unicode = 0048;
},
{
glyphname = Hbar;
lastChange = "2017-08-03 17:29:04 +0000";
layers = (
{
layerId = "CBDECE4A-293B-4E5C-B714-A3FD26C7130D";
paths = (
{
closed = 1;
nodes = (
"287 -5 OFFCURVE",
"323 -4 OFFCURVE",
"375 -1 CURVE SMOOTH",
"390 0 LINE",
"410 7 OFFCURVE",
"410 55 OFFCURVE",
"410 66 CURVE",
"411 89 OFFCURVE",
"411 71 OFFCURVE",
"411 154 CURVE SMOOTH",
"411 165 OFFCURVE",
"414 171 OFFCURVE",
"420 171 CURVE SMOOTH",
"428 171 LINE SMOOTH",
"434 171 OFFCURVE",
"450 170 OFFCURVE",
"475 169 CURVE",
"486 168 OFFCURVE",
"500 168 OFFCURVE",
"518 168 CURVE SMOOTH",
"525 168 LINE",
"536 53 LINE",
"537 44 OFFCURVE",
"538 37 OFFCURVE",
"539 32 CURVE SMOOTH",
"541 20 OFFCURVE",
"542 12 OFFCURVE",
"546 5 CURVE",
"548 2 OFFCURVE",
"550 0 OFFCURVE",
"552 0 CURVE SMOOTH",
"827 0 LINE SMOOTH",
"836 0 OFFCURVE",
"850 16 OFFCURVE",
"850 23 CURVE",
"875 333 LINE",
"875 334 OFFCURVE",
"875 335 OFFCURVE",
"874 337 CURVE",
"873 340 OFFCURVE",
"871 345 OFFCURVE",
"871 353 CURVE SMOOTH",
"872 408 LINE",
"873 415 OFFCURVE",
"873 477 OFFCURVE",
"873 493 CURVE",
"886 493 LINE SMOOTH",
"907 493 OFFCURVE",
"923 496 OFFCURVE",
"932 503 CURVE",
"937 506 OFFCURVE",
"940 512 OFFCURVE",
"940 521 CURVE SMOOTH",
"940 533 LINE SMOOTH",
"940 534 OFFCURVE",
"940 536 OFFCURVE",
"939 537 CURVE SMOOTH",
"938 538 OFFCURVE",
"938 540 OFFCURVE",
"938 541 CURVE SMOOTH",
"938 544 OFFCURVE",
"938 545 OFFCURVE",
"937 546 CURVE",
"936 553 LINE",
"936 556 OFFCURVE",
"936 559 OFFCURVE",
"935 560 CURVE",
"935 573 LINE SMOOTH",
"935 574 OFFCURVE",
"934 576 OFFCURVE",
"932 577 CURVE",
"929 578 OFFCURVE",
"926 578 OFFCURVE",
"922 579 CURVE",
"920 579 OFFCURVE",
"916 580 OFFCURVE",
"910 581 CURVE SMOOTH",
"904 582 OFFCURVE",
"898 583 OFFCURVE",
"892 583 CURVE SMOOTH",
"885 583 OFFCURVE",
"880 583 OFFCURVE",
"877 584 CURVE",
"877 631 LINE SMOOTH",
"877 650 OFFCURVE",
"875 659 OFFCURVE",
"867 664 CURVE",
"862 668 OFFCURVE",
"851 670 OFFCURVE",
"835 670 CURVE SMOOTH",
"808 670 LINE",
"791 669 OFFCURVE",
"755 668 OFFCURVE",
"702 668 CURVE SMOOTH",
"645 668 LINE",
"632 667 OFFCURVE",
"616 666 OFFCURVE",
"597 666 CURVE",
"570 665 LINE",
"555 665 OFFCURVE",
"546 664 OFFCURVE",
"542 663 CURVE",
"537 663 OFFCURVE",
"532 660 OFFCURVE",
"528 655 CURVE",
"524 648 OFFCURVE",
"523 610 OFFCURVE",
"523 589 CURVE SMOOTH",
"523 586 LINE",
"445 586 LINE",
"413 586 LINE",
"413 591 OFFCURVE",
"414 594 OFFCURVE",
"415 595 CURVE",
"415 605 LINE SMOOTH",
"415 640 OFFCURVE",
"403 668 OFFCURVE",
"368 668 CURVE SMOOTH",
"353 668 LINE",
"316 668 LINE",
"270 668 LINE",
"258 669 OFFCURVE",
"242 669 OFFCURVE",
"223 669 CURVE SMOOTH",
"205 669 OFFCURVE",
"193 669 OFFCURVE",
"186 670 CURVE",
"170 670 LINE",
"112 670 LINE SMOOTH",
"99 670 OFFCURVE",
"90 667 OFFCURVE",
"83 661 CURVE",
"80 659 OFFCURVE",
"77 657 OFFCURVE",
"74 654 CURVE",
"70 651 OFFCURVE",
"67 649 OFFCURVE",
"66 648 CURVE",
"65 645 OFFCURVE",
"65 640 OFFCURVE",
"65 633 CURVE",
"64 606 OFFCURVE",
"64 597 OFFCURVE",
"63 588 CURVE",
"55 588 LINE SMOOTH",
"52 588 OFFCURVE",
"49 588 OFFCURVE",
"46 587 CURVE SMOOTH",
"43 586 OFFCURVE",
"40 586 OFFCURVE",
"37 586 CURVE",
"21 583 OFFCURVE",
"11 581 OFFCURVE",
"7 579 CURVE",
"6 579 OFFCURVE",
"2 578 OFFCURVE",
"2 575 CURVE SMOOTH",
"2 567 OFFCURVE",
"2 561 OFFCURVE",
"3 558 CURVE",
"3 543 LINE SMOOTH",
"3 536 OFFCURVE",
"4 531 OFFCURVE",
"5 526 CURVE",
"5 508 LINE SMOOTH",
"5 504 OFFCURVE",
"10 501 OFFCURVE",
"20 499 CURVE",
"47 496 OFFCURVE",
"60 495 OFFCURVE",
"60 495 CURVE",
"61 495 LINE",
"60 490 OFFCURVE",
"60 482 OFFCURVE",
"60 471 CURVE SMOOTH",
"60 375 LINE",
"59 367 OFFCURVE",
"58 358 OFFCURVE",
"58 348 CURVE SMOOTH",
"58 328 LINE",
"77 34 LINE",
"77 27 OFFCURVE",
"83 8 OFFCURVE",
"88 8 CURVE",
"136 -5 OFFCURVE",
"182 -6 OFFCURVE",
"266 -6 CURVE"
);
},
{
closed = 1;
nodes = (
"508 396 OFFCURVE",
"499 397 OFFCURVE",
"493 398 CURVE",
"482 398 OFFCURVE",
"454 399 OFFCURVE",
"437 403 CURVE",
"411 403 LINE",
"412 494 LINE",
"412 495 LINE",
"421 495 LINE",
"466 495 LINE SMOOTH",
"489 495 OFFCURVE",
"507 495 OFFCURVE",
"520 494 CURVE",
"520 396 LINE"
);
}
);
width = 938;
}
);
note = Hbar;
unicode = 0126;
},
{
glyphname = I;
lastChange = "2017-08-03 19:52:52 +0000";
layers = (
{
layerId = "CBDECE4A-293B-4E5C-B714-A3FD26C7130D";
paths = (
{
closed = 1;
nodes = (
"131 -16 LINE",
"161 -11 LINE",
"178 -11 LINE",
"264 -11 LINE",
"265 -7 OFFCURVE",
"267 -6 OFFCURVE",
"270 -6 CURVE",
"286 -7 LINE",
"299 -10 OFFCURVE",
"309 -11 OFFCURVE",
"313 -11 CURVE",
"314 -10 OFFCURVE",
"317 -9 OFFCURVE",
"321 -7 CURVE",
"326 -7 LINE",
"326 -6 OFFCURVE",
"327 -6 OFFCURVE",
"328 -6 CURVE",
"333 -7 LINE",
"334 -9 LINE",
"344 -9 OFFCURVE",
"350 -6 OFFCURVE",
"354 0 CURVE SMOOTH",
"362 11 OFFCURVE",
"365 28 OFFCURVE",
"365 60 CURVE",
"364 72 OFFCURVE",
"365 88 OFFCURVE",
"367 108 CURVE",
"370 151 LINE",
"370 375 LINE SMOOTH",
"370 391 OFFCURVE",
"371 413 OFFCURVE",
"374 441 CURVE",
"375 448 OFFCURVE",
"376 454 OFFCURVE",
"377 458 CURVE",
"378 461 OFFCURVE",
"378 463 OFFCURVE",
"378 464 CURVE",
"375 645 LINE",
"375 651 OFFCURVE",
"369 664 OFFCURVE",
"351 663 CURVE",
"290 663 LINE SMOOTH",
"289 663 OFFCURVE",
"286 664 OFFCURVE",
"283 665 CURVE SMOOTH",
"279 666 OFFCURVE",
"277 666 OFFCURVE",
"275 666 CURVE SMOOTH",
"275 666 OFFCURVE",
"275 666 OFFCURVE",
"273 666 CURVE SMOOTH",
"272 666 OFFCURVE",
"272 666 OFFCURVE",
"271 665 CURVE",
"266 665 OFFCURVE",
"259 664 OFFCURVE",
"258 663 CURVE",
"254 663 LINE SMOOTH",
"250 663 OFFCURVE",
"248 664 OFFCURVE",
"245 666 CURVE",
"195 666 LINE",
"191 663 LINE",
"167 663 OFFCURVE",
"147 664 OFFCURVE",
"137 665 CURVE",
"131 665 OFFCURVE",
"124 666 OFFCURVE",
"113 667 CURVE SMOOTH",
"102 668 OFFCURVE",
"91 668 OFFCURVE",
"83 668 CURVE SMOOTH",
"55 668 OFFCURVE",
"30 664 OFFCURVE",
"30 651 CURVE SMOOTH",
"30 372 LINE SMOOTH",
"30 339 OFFCURVE",
"30 291 OFFCURVE",
"36 222 CURVE SMOOTH",
"40 178 LINE SMOOTH",
"44 130 OFFCURVE",
"45 95 OFFCURVE",
"46 72 CURVE",
"47 69 OFFCURVE",
"47 63 OFFCURVE",
"47 50 CURVE SMOOTH",
"47 32 OFFCURVE",
"49 -23 OFFCURVE",
"77 -23 CURVE",
"103 -19 LINE"
);
}
);
width = 408;
}
);
note = I;
unicode = 0049;
},
{
glyphname = IJ;
lastChange = "2017-08-04 01:35:26 +0000";
layers = (
{
layerId = "CBDECE4A-293B-4E5C-B714-A3FD26C7130D";
paths = (
{
closed = 1;
nodes = (
"126 280 LINE",
"164 280 LINE SMOOTH",
"174 280 OFFCURVE",
"179 280 OFFCURVE",
"180 281 CURVE",
"272 281 LINE SMOOTH",
"273 281 OFFCURVE",
"277 283 OFFCURVE",
"280 284 CURVE",
"289 283 LINE",
"289 282 OFFCURVE",
"291 281 OFFCURVE",
"296 281 CURVE SMOOTH",
"299 281 LINE",
"309 281 LINE SMOOTH",
"318 281 OFFCURVE",
"325 282 OFFCURVE",
"330 283 CURVE",
"382 284 LINE",
"387 290 OFFCURVE",
"389 297 OFFCURVE",
"389 304 CURVE",
"392 323 OFFCURVE",
"394 346 OFFCURVE",
"394 375 CURVE SMOOTH",
"394 420 LINE",
"395 431 LINE",
"395 441 OFFCURVE",
"395 450 OFFCURVE",
"396 458 CURVE",
"397 490 LINE",
"398 497 OFFCURVE",
"399 508 OFFCURVE",
"399 523 CURVE SMOOTH",
"399 535 OFFCURVE",
"399 543 OFFCURVE",
"400 548 CURVE",
"400 559 LINE",
"400 625 LINE SMOOTH",
"400 640 OFFCURVE",
"400 650 OFFCURVE",
"399 655 CURVE",
"396 663 OFFCURVE",
"389 675 OFFCURVE",
"379 677 CURVE SMOOTH",
"374 678 OFFCURVE",
"365 678 OFFCURVE",
"354 678 CURVE SMOOTH",
"353 678 OFFCURVE",
"351 678 OFFCURVE",
"350 677 CURVE SMOOTH",
"349 676 OFFCURVE",
"347 676 OFFCURVE",
"346 676 CURVE SMOOTH",
"342 676 OFFCURVE",
"339 677 OFFCURVE",
"337 678 CURVE",
"320 681 OFFCURVE",
"282 682 OFFCURVE",
"265 679 CURVE",
"255 678 LINE",
"155 678 LINE",
"56 678 LINE SMOOTH",
"44 678 OFFCURVE",
"39 677 OFFCURVE",
"39 670 CURVE SMOOTH",
"39 519 LINE",
"37 490 OFFCURVE",
"36 461 OFFCURVE",
"36 431 CURVE SMOOTH",
"35 344 LINE",
"35 335 LINE SMOOTH",
"35 329 OFFCURVE",
"35 324 OFFCURVE",
"36 321 CURVE",
"39 298 OFFCURVE",
"44 279 OFFCURVE",
"64 279 CURVE",
"89 280 LINE"
);
},
{
closed = 1;
nodes = (
"578 -29 OFFCURVE",
"623 -25 OFFCURVE",
"680 -8 CURVE",
"787 29 OFFCURVE",
"846 80 OFFCURVE",
"866 173 CURVE SMOOTH",
"874 209 OFFCURVE",
"875 241 OFFCURVE",
"875 294 CURVE",
"876 303 LINE",
"876 323 LINE SMOOTH",
"876 333 OFFCURVE",
"876 341 OFFCURVE",
"877 346 CURVE",
"878 349 OFFCURVE",
"878 353 OFFCURVE",
"878 358 CURVE SMOOTH",
"878 364 OFFCURVE",
"878 368 OFFCURVE",
"879 370 CURVE",
"879 388 LINE",
"879 396 LINE",
"879 591 LINE SMOOTH",
"879 612 OFFCURVE",
"878 626 OFFCURVE",
"877 633 CURVE",
"876 644 OFFCURVE",
"873 651 OFFCURVE",
"869 655 CURVE",
"862 664 OFFCURVE",
"852 666 OFFCURVE",
"832 666 CURVE SMOOTH",
"734 666 LINE",
"634 666 LINE",
"530 665 LINE SMOOTH",
"521 665 OFFCURVE",
"517 662 OFFCURVE",
"517 655 CURVE SMOOTH",
"519 449 LINE",
"519 406 LINE SMOOTH",
"519 400 OFFCURVE",
"519 393 OFFCURVE",
"518 386 CURVE SMOOTH",
"517 378 OFFCURVE",
"513 297 OFFCURVE",
"513 278 CURVE SMOOTH",
"513 261 OFFCURVE",
"513 249 OFFCURVE",
"512 243 CURVE SMOOTH",
"511 238 OFFCURVE",
"509 231 OFFCURVE",
"506 223 CURVE",
"505 216 OFFCURVE",
"502 209 OFFCURVE",
"497 200 CURVE",
"488 181 OFFCURVE",
"474 171 OFFCURVE",
"439 171 CURVE SMOOTH",
"390 171 OFFCURVE",
"353 175 OFFCURVE",
"265 200 CURVE",
"265 200 OFFCURVE",
"258 205 OFFCURVE",
"257 196 CURVE SMOOTH",
"256 190 OFFCURVE",
"254 185 OFFCURVE",
"254 181 CURVE",
"252 169 OFFCURVE",
"251 157 OFFCURVE",
"251 146 CURVE",
"250 137 OFFCURVE",
"249 130 OFFCURVE",
"249 125 CURVE",
"246 117 OFFCURVE",
"243 41 OFFCURVE",
"243 33 CURVE SMOOTH",
"243 30 OFFCURVE",
"243 29 OFFCURVE",
"244 28 CURVE",
"299 8 LINE SMOOTH",
"368 -17 OFFCURVE",
"446 -29 OFFCURVE",
"533 -29 CURVE SMOOTH"
);
}
);
width = 911;
}
);
note = IJ;
unicode = 0132;
},
{
glyphname = Iogonek;
lastChange = "2017-08-04 01:36:47 +0000";
layers = (
{
layerId = "CBDECE4A-293B-4E5C-B714-A3FD26C7130D";
paths = (
{
closed = 1;
nodes = (
"403 642 OFFCURVE",
"400 649 OFFCURVE",
"397 655 CURVE",
"390 664 OFFCURVE",
"380 666 OFFCURVE",
"360 666 CURVE",
"356 665 OFFCURVE",
"353 664 OFFCURVE",
"352 664 CURVE",
"350 663 OFFCURVE",
"347 663 OFFCURVE",
"343 666 CURVE",
"318 670 OFFCURVE",
"288 671 OFFCURVE",
"271 668 CURVE",
"269 668 OFFCURVE",
"267 668 OFFCURVE",
"266 667 CURVE SMOOTH",
"265 666 OFFCURVE",
"263 666 OFFCURVE",
"261 666 CURVE SMOOTH",
"161 666 LINE",
"138 665 OFFCURVE",
"104 665 OFFCURVE",
"58 665 CURVE SMOOTH",
"49 665 OFFCURVE",
"45 662 OFFCURVE",
"45 655 CURVE SMOOTH",
"45 339 LINE",
"43 298 OFFCURVE",
"42 257 OFFCURVE",
"42 215 CURVE SMOOTH",
"41 91 LINE",
"41 78 LINE SMOOTH",
"41 70 OFFCURVE",
"41 64 OFFCURVE",
"42 59 CURVE",
"43 44 OFFCURVE",
"45 31 OFFCURVE",
"48 19 CURVE",
"52 7 OFFCURVE",
"61 -1 OFFCURVE",
"70 -1 CURVE",
"95 0 LINE",
"132 0 LINE",
"163 0 LINE",
"148 -10 LINE SMOOTH",
"145 -12 OFFCURVE",
"139 -15 OFFCURVE",
"132 -19 CURVE",
"124 -24 OFFCURVE",
"118 -28 OFFCURVE",
"113 -33 CURVE",
"57 -70 OFFCURVE",
"30 -103 OFFCURVE",
"30 -163 CURVE SMOOTH",
"30 -175 OFFCURVE",
"32 -186 OFFCURVE",
"35 -195 CURVE",
"46 -220 OFFCURVE",
"69 -240 OFFCURVE",
"106 -253 CURVE SMOOTH",
"145 -268 OFFCURVE",
"200 -276 OFFCURVE",
"273 -276 CURVE",
"283 -274 LINE",
"285 -273 OFFCURVE",
"288 -273 OFFCURVE",
"291 -273 CURVE SMOOTH",
"294 -273 OFFCURVE",
"298 -272 OFFCURVE",
"303 -271 CURVE",
"314 -270 OFFCURVE",
"330 -265 OFFCURVE",
"350 -258 CURVE",
"363 -251 OFFCURVE",
"375 -245 OFFCURVE",
"376 -240 CURVE SMOOTH",
"393 -158 LINE",
"393 -153 LINE SMOOTH",
"393 -148 OFFCURVE",
"391 -145 OFFCURVE",
"386 -143 CURVE",
"355 -154 OFFCURVE",
"326 -160 OFFCURVE",
"299 -160 CURVE SMOOTH",
"290 -160 OFFCURVE",
"284 -160 OFFCURVE",
"279 -161 CURVE",
"271 -164 OFFCURVE",
"261 -159 OFFCURVE",
"258 -158 CURVE",
"243 -154 OFFCURVE",
"235 -146 OFFCURVE",
"235 -126 CURVE SMOOTH",
"235 -118 OFFCURVE",
"239 -106 OFFCURVE",
"248 -90 CURVE SMOOTH",
"261 -67 OFFCURVE",
"275 -49 OFFCURVE",
"294 -33 CURVE",
"329 3 LINE",
"336 3 LINE",
"359 4 OFFCURVE",
"376 5 OFFCURVE",
"388 5 CURVE",
"393 14 OFFCURVE",
"395 24 OFFCURVE",
"395 33 CURVE",
"398 61 OFFCURVE",
"400 95 OFFCURVE",
"400 135 CURVE SMOOTH",
"400 199 LINE",
"401 215 LINE",
"401 230 OFFCURVE",
"401 243 OFFCURVE",
"402 253 CURVE",
"403 298 LINE",
"404 309 OFFCURVE",
"405 325 OFFCURVE",
"405 345 CURVE SMOOTH",
"405 364 OFFCURVE",
"405 376 OFFCURVE",
"406 381 CURVE",
"406 396 LINE",
"406 591 LINE SMOOTH",
"406 612 OFFCURVE",
"406 626 OFFCURVE",
"405 633 CURVE"
);
}
);
width = 436;
}
);
note = Iogonek;
unicode = 012E;
},
{
glyphname = J;
lastChange = "2017-08-09 15:04:41 +0000";
layers = (
{
layerId = "CBDECE4A-293B-4E5C-B714-A3FD26C7130D";
paths = (
{
closed = 1;
nodes = (
"405 -9 OFFCURVE",
"497 61 OFFCURVE",
"517 180 CURVE SMOOTH",
"523 215 OFFCURVE",
"525 246 OFFCURVE",
"525 298 CURVE",
"526 306 LINE",
"526 323 LINE SMOOTH",
"526 335 OFFCURVE",
"526 344 OFFCURVE",
"527 349 CURVE",
"528 352 OFFCURVE",
"528 355 OFFCURVE",
"528 359 CURVE",
"527 363 OFFCURVE",
"527 366 OFFCURVE",
"528 370 CURVE",
"528 372 OFFCURVE",
"528 375 OFFCURVE",
"528 378 CURVE SMOOTH",
"528 382 OFFCURVE",
"528 387 OFFCURVE",
"530 387 CURVE",
"530 397 LINE",
"530 595 LINE SMOOTH",
"530 602 OFFCURVE",
"527 614 OFFCURVE",
"527 632 CURVE SMOOTH",
"527 644 OFFCURVE",
"524 651 OFFCURVE",
"521 656 CURVE",
"513 664 OFFCURVE",
"503 666 OFFCURVE",
"483 666 CURVE SMOOTH",
"392 666 LINE",
"295 666 LINE",
"215 665 LINE SMOOTH",
"208 665 OFFCURVE",
"180 664 OFFCURVE",
"180 633 CURVE SMOOTH",
"181 524 LINE",
"181 481 LINE",
"179 394 OFFCURVE",
"178 340 OFFCURVE",
"178 309 CURVE SMOOTH",
"178 292 OFFCURVE",
"178 279 OFFCURVE",
"177 274 CURVE",
"177 274 OFFCURVE",
"176 266 OFFCURVE",
"173 254 CURVE SMOOTH",
"170 243 OFFCURVE",
"168 236 OFFCURVE",
"166 233 CURVE",
"160 213 OFFCURVE",
"147 203 OFFCURVE",
"135 203 CURVE SMOOTH",
"107 203 OFFCURVE",
"101 208 OFFCURVE",
"29 233 CURVE",
"20 240 OFFCURVE",
"17 234 OFFCURVE",
"17 233 CURVE",
"16 231 OFFCURVE",
"16 231 OFFCURVE",
"16 229 CURVE SMOOTH",
"16 226 OFFCURVE",
"15 221 OFFCURVE",
"15 213 CURVE",
"11 193 OFFCURVE",
"11 105 OFFCURVE",
"11 88 CURVE",
"9 82 OFFCURVE",
"8 75 OFFCURVE",
"7 68 CURVE SMOOTH",
"5 47 LINE",
"5 43 OFFCURVE",
"5 43 OFFCURVE",
"6 42 CURVE",
"50 21 LINE SMOOTH",
"105 -5 OFFCURVE",
"127 -13 OFFCURVE",
"194 -13 CURVE SMOOTH",
"219 -13 OFFCURVE",
"243 -15 OFFCURVE",
"271 -12 CURVE"
);
}
);
width = 562;
}
);
note = J;
unicode = 004A;
},
{
glyphname = K;
lastChange = "2017-08-22 22:01:40 +0000";
layers = (
{
layerId = "CBDECE4A-293B-4E5C-B714-A3FD26C7130D";
paths = (
{
closed = 1;
nodes = (
"578 14 OFFCURVE",
"615 -31 OFFCURVE",
"618 -34 CURVE SMOOTH",
"633 -49 OFFCURVE",
"649 -50 OFFCURVE",
"663 -39 CURVE",
"689 -29 OFFCURVE",
"686 -22 OFFCURVE",
"700 -12 CURVE",
"728 15 LINE",
"740 23 OFFCURVE",
"737 28 OFFCURVE",
"749 35 CURVE SMOOTH",
"769 47 OFFCURVE",
"769 67 OFFCURVE",
"792 70 CURVE",
"804 75 OFFCURVE",
"807 87 OFFCURVE",
"819 99 CURVE",
"827 107 OFFCURVE",
"828 110 OFFCURVE",
"828 118 CURVE SMOOTH",
"828 124 OFFCURVE",
"823 129 OFFCURVE",
"816 139 CURVE",
"782 178 OFFCURVE",
"729 234 OFFCURVE",
"698 266 CURVE",
"668 295 OFFCURVE",
"662 308 OFFCURVE",
"639 325 CURVE",
"635 329 OFFCURVE",
"635 332 OFFCURVE",
"630 336 CURVE",
"658 358 LINE",
"671 371 LINE",
"674 375 OFFCURVE",
"677 378 OFFCURVE",
"678 378 CURVE",
"688 390 LINE",
"714 412 LINE",
"715 414 OFFCURVE",
"717 416 OFFCURVE",
"718 416 CURVE SMOOTH",
"719 416 OFFCURVE",
"720 418 OFFCURVE",
"721 418 CURVE",
"725 425 OFFCURVE",
"730 431 OFFCURVE",
"739 439 CURVE",
"774 473 LINE SMOOTH",
"796 494 OFFCURVE",
"821 518 OFFCURVE",
"817 526 CURVE SMOOTH",
"816 528 LINE",
"808 542 OFFCURVE",
"773 570 OFFCURVE",
"759 585 CURVE",
"741 604 OFFCURVE",
"724 611 OFFCURVE",
"706 625 CURVE",
"684 637 OFFCURVE",
"684 656 OFFCURVE",
"659 667 CURVE",
"668 655 OFFCURVE",
"640 675 OFFCURVE",
"645 675 CURVE",
"641 674 OFFCURVE",
"628 673 OFFCURVE",
"614 664 CURVE",
"576 628 OFFCURVE",
"526 579 OFFCURVE",
"492 545 CURVE SMOOTH",
"463 516 OFFCURVE",
"397 451 OFFCURVE",
"416 470 CURVE SMOOTH",
"418 472 OFFCURVE",
"411 467 OFFCURVE",
"411 466 CURVE",
"411 466 OFFCURVE",
"391 442 OFFCURVE",
"381 442 CURVE",
"384 539 LINE",
"384 572 OFFCURVE",
"386 598 OFFCURVE",
"386 616 CURVE SMOOTH",
"386 629 LINE SMOOTH",
"386 637 OFFCURVE",
"386 640 OFFCURVE",
"384 642 CURVE",
"383 654 OFFCURVE",
"379 660 OFFCURVE",
"369 660 CURVE SMOOTH",
"337 660 LINE",
"282 660 LINE",
"212 660 LINE",
"99 660 LINE",
"78 660 LINE SMOOTH",
"68 660 OFFCURVE",
"60 659 OFFCURVE",
"54 656 CURVE",
"36 654 OFFCURVE",
"28 644 OFFCURVE",
"30 629 CURVE",
"30 620 LINE SMOOTH",
"30 611 OFFCURVE",
"30 606 OFFCURVE",
"31 600 CURVE",
"31 579 OFFCURVE",
"31 561 OFFCURVE",
"32 550 CURVE",
"32 529 LINE",
"32 515 LINE SMOOTH",
"32 492 OFFCURVE",
"31 477 OFFCURVE",
"30 465 CURVE",
"30 457 OFFCURVE",
"30 454 OFFCURVE",
"30 452 CURVE SMOOTH",
"30 451 OFFCURVE",
"30 449 OFFCURVE",
"30 447 CURVE SMOOTH",
"30 443 OFFCURVE",
"31 439 OFFCURVE",
"31 435 CURVE",
"32 415 LINE",
"32 392 OFFCURVE",
"32 375 OFFCURVE",
"30 366 CURVE",
"30 356 LINE SMOOTH",
"30 345 OFFCURVE",
"30 330 OFFCURVE",
"31 307 CURVE SMOOTH",
"32 281 LINE",
"36 247 OFFCURVE",
"38 223 OFFCURVE",
"38 208 CURVE SMOOTH",
"39 129 LINE SMOOTH",
"39 109 OFFCURVE",
"40 95 OFFCURVE",
"41 83 CURVE",
"41 45 LINE",
"42 36 OFFCURVE",
"44 26 OFFCURVE",
"42 15 CURVE SMOOTH",
"41 8 OFFCURVE",
"42 4 OFFCURVE",
"43 4 CURVE",
"48 -4 LINE",
"93 -8 LINE",
"99 -8 LINE",
"104 -9 OFFCURVE",
"109 -9 OFFCURVE",
"119 -9 CURVE SMOOTH",
"140 -9 LINE",
"156 -9 LINE",
"271 -9 LINE SMOOTH",
"288 -9 OFFCURVE",
"313 -9 OFFCURVE",
"349 -8 CURVE",
"356 -9 OFFCURVE",
"361 -9 OFFCURVE",
"364 -6 CURVE",
"369 -5 OFFCURVE",
"371 -1 OFFCURVE",
"371 5 CURVE SMOOTH",
"371 10 LINE",
"371 24 LINE",
"371 36 LINE",
"374 116 LINE",
"374 119 OFFCURVE",
"403 153 OFFCURVE",
"421 172 CURVE",
"444 153 LINE",
"449 150 OFFCURVE",
"453 143 OFFCURVE",
"458 138 CURVE SMOOTH",
"465 131 OFFCURVE",
"466 129 OFFCURVE",
"467 127 CURVE",
"549 33 LINE",
"549 32 OFFCURVE",
"553 29 OFFCURVE",
"557 26 CURVE",
"570 15 LINE"
);
}
);
width = 849;
}
);
note = K;
unicode = 004B;
},
{
glyphname = L;
lastChange = "2017-08-03 19:54:49 +0000";
layers = (
{
layerId = "CBDECE4A-293B-4E5C-B714-A3FD26C7130D";
paths = (
{
closed = 1;
nodes = (
"541 -10 OFFCURVE",
"556 -9 OFFCURVE",
"565 -7 CURVE",
"580 -6 OFFCURVE",
"595 1 OFFCURVE",
"595 11 CURVE SMOOTH",
"595 13 LINE",
"595 212 LINE SMOOTH",
"595 221 OFFCURVE",
"584 232 OFFCURVE",
"569 232 CURVE SMOOTH",
"530 232 OFFCURVE",
"503 232 OFFCURVE",
"483 231 CURVE",
"407 231 LINE SMOOTH",
"394 231 OFFCURVE",
"385 231 OFFCURVE",
"385 243 CURVE SMOOTH",
"385 255 LINE",
"385 319 LINE",
"385 393 LINE",
"385 505 LINE",
"384 511 LINE",
"384 514 OFFCURVE",
"383 519 OFFCURVE",
"383 527 CURVE",
"380 538 OFFCURVE",
"379 548 OFFCURVE",
"379 556 CURVE SMOOTH",
"379 562 OFFCURVE",
"380 568 OFFCURVE",
"383 578 CURVE",
"383 587 OFFCURVE",
"384 592 OFFCURVE",
"384 595 CURVE",
"385 603 LINE",
"385 653 OFFCURVE",
"361 656 OFFCURVE",
"336 656 CURVE SMOOTH",
"321 656 OFFCURVE",
"313 656 OFFCURVE",
"310 656 CURVE SMOOTH",
"254 656 LINE",
"243 657 OFFCURVE",
"226 657 OFFCURVE",
"204 657 CURVE SMOOTH",
"194 657 OFFCURVE",
"184 657 OFFCURVE",
"179 658 CURVE",
"139 659 OFFCURVE",
"103 660 OFFCURVE",
"69 660 CURVE SMOOTH",
"62 660 OFFCURVE",
"54 657 OFFCURVE",
"51 651 CURVE",
"44 640 OFFCURVE",
"41 623 OFFCURVE",
"41 604 CURVE SMOOTH",
"41 580 LINE",
"36 506 OFFCURVE",
"34 461 OFFCURVE",
"35 403 CURVE SMOOTH",
"36 347 LINE",
"36 248 LINE",
"36 20 LINE SMOOTH",
"36 6 OFFCURVE",
"50 -7 OFFCURVE",
"63 -7 CURVE SMOOTH",
"148 -8 LINE",
"162 -9 OFFCURVE",
"185 -9 OFFCURVE",
"216 -9 CURVE SMOOTH",
"248 -9 OFFCURVE",
"300 -10 OFFCURVE",
"371 -10 CURVE SMOOTH",
"522 -10 LINE SMOOTH"
);
}
);
width = 610;
}
);
note = L;
unicode = 004C;
},
{
glyphname = uni01C7;
lastChange = "2017-08-15 17:35:21 +0000";
layers = (
{
components = (
{
name = L;
}
);
layerId = "CBDECE4A-293B-4E5C-B714-A3FD26C7130D";
paths = (
{
closed = 1;
nodes = (
"1029 -9 OFFCURVE",
"1121 61 OFFCURVE",
"1141 180 CURVE SMOOTH",
"1147 215 OFFCURVE",
"1149 246 OFFCURVE",
"1149 298 CURVE",
"1150 306 LINE",
"1150 323 LINE SMOOTH",
"1150 335 OFFCURVE",
"1150 344 OFFCURVE",
"1151 349 CURVE",
"1152 352 OFFCURVE",
"1152 355 OFFCURVE",
"1152 359 CURVE",
"1151 363 OFFCURVE",
"1151 366 OFFCURVE",
"1152 370 CURVE",
"1152 372 OFFCURVE",
"1152 375 OFFCURVE",
"1152 378 CURVE SMOOTH",
"1152 382 OFFCURVE",
"1152 387 OFFCURVE",
"1154 387 CURVE",
"1154 397 LINE",
"1154 595 LINE SMOOTH",
"1154 602 OFFCURVE",
"1151 614 OFFCURVE",
"1151 632 CURVE SMOOTH",
"1151 644 OFFCURVE",
"1148 651 OFFCURVE",
"1145 656 CURVE",
"1137 664 OFFCURVE",
"1127 666 OFFCURVE",
"1107 666 CURVE SMOOTH",
"1016 666 LINE",
"919 666 LINE",
"839 665 LINE SMOOTH",
"832 665 OFFCURVE",
"804 664 OFFCURVE",
"804 633 CURVE SMOOTH",
"805 524 LINE",
"805 481 LINE",
"803 394 OFFCURVE",
"802 340 OFFCURVE",
"802 309 CURVE SMOOTH",
"802 292 OFFCURVE",
"802 279 OFFCURVE",
"801 274 CURVE",
"801 274 OFFCURVE",
"800 266 OFFCURVE",
"797 254 CURVE SMOOTH",
"794 243 OFFCURVE",
"792 236 OFFCURVE",
"790 233 CURVE",
"784 213 OFFCURVE",
"771 203 OFFCURVE",
"759 203 CURVE SMOOTH",
"731 203 OFFCURVE",
"725 208 OFFCURVE",
"653 233 CURVE",
"644 240 OFFCURVE",
"641 234 OFFCURVE",
"641 233 CURVE",
"640 231 OFFCURVE",
"640 231 OFFCURVE",
"640 229 CURVE SMOOTH",
"640 226 OFFCURVE",
"639 221 OFFCURVE",
"639 213 CURVE",
"635 193 OFFCURVE",
"635 105 OFFCURVE",
"635 88 CURVE",
"633 82 OFFCURVE",
"632 75 OFFCURVE",
"631 68 CURVE SMOOTH",
"629 47 LINE",
"629 43 OFFCURVE",
"629 43 OFFCURVE",
"630 42 CURVE",
"674 21 LINE SMOOTH",
"729 -5 OFFCURVE",
"751 -13 OFFCURVE",
"818 -13 CURVE SMOOTH",
"843 -13 OFFCURVE",
"867 -15 OFFCURVE",
"895 -12 CURVE"
);
}
);
width = 1179;
}
);
note = uni01C7;
unicode = 01C7;
},
{
glyphname = Ldot;
lastChange = "2017-08-04 01:37:40 +0000";
layers = (
{
layerId = "CBDECE4A-293B-4E5C-B714-A3FD26C7130D";
paths = (
{
closed = 1;
nodes = (
"523 0 OFFCURVE",
"536 1 OFFCURVE",
"545 3 CURVE",
"561 4 OFFCURVE",
"574 10 OFFCURVE",
"574 21 CURVE SMOOTH",
"574 23 LINE",
"574 214 LINE SMOOTH",
"574 223 OFFCURVE",
"564 234 OFFCURVE",
"549 234 CURVE SMOOTH",
"512 234 OFFCURVE",
"485 234 OFFCURVE",
"467 233 CURVE",
"394 233 LINE SMOOTH",
"381 233 OFFCURVE",
"372 233 OFFCURVE",
"372 244 CURVE SMOOTH",
"372 256 LINE",
"372 318 LINE",
"372 383 LINE",
"372 523 LINE",
"371 529 LINE",
"371 532 OFFCURVE",
"370 537 OFFCURVE",
"369 545 CURVE",
"367 556 OFFCURVE",
"366 566 OFFCURVE",
"366 573 CURVE SMOOTH",
"366 578 OFFCURVE",
"367 585 OFFCURVE",
"369 595 CURVE",
"370 603 OFFCURVE",
"371 608 OFFCURVE",
"371 610 CURVE",
"372 618 LINE",
"372 666 OFFCURVE",
"350 669 OFFCURVE",
"324 669 CURVE SMOOTH",
"311 669 OFFCURVE",
"303 669 OFFCURVE",
"300 669 CURVE SMOOTH",
"246 669 LINE",
"235 670 OFFCURVE",
"219 670 OFFCURVE",
"197 670 CURVE SMOOTH",
"187 670 OFFCURVE",
"179 670 OFFCURVE",
"174 671 CURVE",
"135 672 OFFCURVE",
"100 673 OFFCURVE",
"67 673 CURVE SMOOTH",
"60 673 OFFCURVE",
"54 670 OFFCURVE",
"51 664 CURVE",
"44 653 OFFCURVE",
"40 638 OFFCURVE",
"40 619 CURVE SMOOTH",
"40 596 LINE",
"36 524 OFFCURVE",
"35 481 OFFCURVE",
"35 426 CURVE SMOOTH",
"36 344 LINE",
"36 248 LINE",
"36 28 LINE SMOOTH",
"36 16 OFFCURVE",
"49 3 OFFCURVE",
"61 3 CURVE SMOOTH",
"143 2 LINE",
"158 1 OFFCURVE",
"180 1 OFFCURVE",
"209 1 CURVE SMOOTH",
"240 0 OFFCURVE",
"290 0 OFFCURVE",
"359 0 CURVE SMOOTH",
"504 0 LINE SMOOTH"
);
},
{
closed = 1;
nodes = (
"499 351 LINE",
"503 353 LINE",
"503 354 OFFCURVE",
"503 354 OFFCURVE",
"504 354 CURVE",
"509 353 LINE",
"510 352 OFFCURVE",
"512 351 OFFCURVE",
"515 351 CURVE",
"519 353 LINE",
"524 354 LINE",
"539 355 LINE",
"544 357 LINE",
"544 357 LINE",
"547 357 LINE",
"547 356 OFFCURVE",
"547 356 OFFCURVE",
"548 356 CURVE",
"548 356 OFFCURVE",
"548 356 OFFCURVE",
"548 356 CURVE",
"557 357 LINE",
"561 359 OFFCURVE",
"563 362 OFFCURVE",
"564 367 CURVE",
"567 375 LINE",
"567 441 LINE SMOOTH",
"567 448 OFFCURVE",
"567 454 OFFCURVE",
"567 457 CURVE",
"566 460 OFFCURVE",
"566 463 OFFCURVE",
"566 464 CURVE SMOOTH",
"566 473 LINE",
"566 479 LINE SMOOTH",
"566 484 OFFCURVE",
"566 487 OFFCURVE",
"567 490 CURVE",
"567 491 LINE SMOOTH",
"567 496 OFFCURVE",
"562 499 OFFCURVE",
"551 499 CURVE SMOOTH",
"542 499 LINE",
"533 499 LINE",
"528 499 LINE",
"521 499 LINE",
"513 499 LINE",
"506 499 LINE",
"486 499 LINE",
"483 498 OFFCURVE",
"477 497 OFFCURVE",
"470 497 CURVE SMOOTH",
"465 497 OFFCURVE",
"461 497 OFFCURVE",
"458 498 CURVE",
"454 499 OFFCURVE",
"450 499 OFFCURVE",
"446 499 CURVE SMOOTH",
"422 499 LINE SMOOTH",
"412 499 OFFCURVE",
"406 496 OFFCURVE",
"404 490 CURVE",
"404 471 LINE",
"403 460 OFFCURVE",
"402 452 OFFCURVE",
"402 446 CURVE",
"401 434 OFFCURVE",
"400 416 OFFCURVE",
"400 393 CURVE SMOOTH",
"400 376 OFFCURVE",
"400 366 OFFCURVE",
"401 362 CURVE",
"406 357 LINE",
"460 353 LINE",
"464 353 OFFCURVE",
"468 352 OFFCURVE",
"472 351 CURVE",
"483 351 LINE"
);
}
);
width = 601;
}
);
note = Ldot;
unicode = 013F;
},
{
glyphname = Lslash;
lastChange = "2017-06-13 13:43:49 +0000";
layers = (
{
layerId = "CBDECE4A-293B-4E5C-B714-A3FD26C7130D";
paths = (
{
closed = 1;
nodes = (
"588 0 OFFCURVE",
"601 1 OFFCURVE",
"610 3 CURVE",
"626 4 OFFCURVE",
"639 10 OFFCURVE",
"639 21 CURVE SMOOTH",
"639 23 LINE",
"639 214 LINE SMOOTH",
"639 223 OFFCURVE",
"627 234 OFFCURVE",
"614 234 CURVE SMOOTH",
"577 234 OFFCURVE",
"550 234 OFFCURVE",
"533 233 CURVE",
"458 233 LINE SMOOTH",
"445 233 OFFCURVE",
"438 232 OFFCURVE",
"438 244 CURVE SMOOTH",
"438 256 LINE",
"438 386 LINE",
"445 388 LINE",
"495 401 LINE",
"499 403 LINE",
"501 403 OFFCURVE",
"503 404 OFFCURVE",
"504 405 CURVE",
"508 407 OFFCURVE",
"510 408 OFFCURVE",
"511 408 CURVE",
"555 419 OFFCURVE",
"563 440 OFFCURVE",
"563 476 CURVE",
"564 552 OFFCURVE",
"565 543 OFFCURVE",
"565 564 CURVE SMOOTH",
"565 575 OFFCURVE",
"558 581 OFFCURVE",
"544 583 CURVE",
"536 583 OFFCURVE",
"523 580 OFFCURVE",
"504 575 CURVE",
"498 574 OFFCURVE",
"492 573 OFFCURVE",
"486 572 CURVE",
"480 570 OFFCURVE",
"474 569 OFFCURVE",
"468 568 CURVE",
"465 567 OFFCURVE",
"453 564 OFFCURVE",
"433 561 CURVE",
"432 562 OFFCURVE",
"431 565 OFFCURVE",
"431 568 CURVE SMOOTH",
"431 573 LINE",
"434 595 LINE SMOOTH",
"435 603 OFFCURVE",
"436 608 OFFCURVE",
"436 610 CURVE",
"437 614 OFFCURVE",
"438 617 OFFCURVE",
"438 618 CURVE SMOOTH",
"438 642 OFFCURVE",
"431 657 OFFCURVE",
"418 664 CURVE SMOOTH",
"410 668 OFFCURVE",
"399 669 OFFCURVE",
"382 669 CURVE SMOOTH",
"373 669 OFFCURVE",
"368 669 OFFCURVE",
"365 669 CURVE SMOOTH",
"311 669 LINE",
"300 670 OFFCURVE",
"284 670 OFFCURVE",
"263 670 CURVE",
"236 671 LINE SMOOTH",
"197 672 OFFCURVE",
"163 673 OFFCURVE",
"133 673 CURVE SMOOTH",
"125 673 OFFCURVE",
"119 670 OFFCURVE",
"116 664 CURVE",
"109 654 OFFCURVE",
"105 639 OFFCURVE",
"105 619 CURVE SMOOTH",
"105 596 LINE",
"102 558 OFFCURVE",
"101 515 OFFCURVE",
"100 468 CURVE",
"97 468 OFFCURVE",
"95 468 OFFCURVE",
"93 467 CURVE",
"90 466 OFFCURVE",
"88 465 OFFCURVE",
"86 464 CURVE",
"46 454 LINE",
"35 450 OFFCURVE",
"20 433 OFFCURVE",
"20 422 CURVE SMOOTH",
"20 398 OFFCURVE",
"21 329 OFFCURVE",
"21 305 CURVE SMOOTH",
"21 291 OFFCURVE",
"30 284 OFFCURVE",
"47 284 CURVE SMOOTH",
"53 284 OFFCURVE",
"88 292 OFFCURVE",
"101 295 CURVE",
"101 28 LINE SMOOTH",
"101 16 OFFCURVE",
"114 3 OFFCURVE",
"126 3 CURVE SMOOTH",
"208 2 LINE",
"223 1 OFFCURVE",
"245 1 OFFCURVE",
"274 1 CURVE SMOOTH",
"305 0 OFFCURVE",
"355 0 OFFCURVE",
"423 0 CURVE SMOOTH",
"569 0 LINE SMOOTH"
);
}
);
width = 676;
}
);
note = Lslash;
unicode = 0141;
},
{
glyphname = M;
lastChange = "2017-08-03 20:19:37 +0000";
layers = (
{
layerId = "CBDECE4A-293B-4E5C-B714-A3FD26C7130D";
paths = (
{
closed = 1;
nodes = (
"185 -10 OFFCURVE",
"201 -6 OFFCURVE",
"217 -5 CURVE SMOOTH",
"230 -4 OFFCURVE",
"248 -2 OFFCURVE",
"271 -1 CURVE",
"276 -2 LINE",
"283 -2 LINE SMOOTH",
"285 -2 OFFCURVE",
"287 2 OFFCURVE",
"288 10 CURVE",
"295 37 OFFCURVE",
"297 92 OFFCURVE",
"297 184 CURVE SMOOTH",
"297 230 LINE SMOOTH",
"297 235 OFFCURVE",
"299 238 OFFCURVE",
"304 238 CURVE SMOOTH",
"305 238 OFFCURVE",
"306 233 OFFCURVE",
"312 225 CURVE SMOOTH",
"337 189 LINE",
"360 138 OFFCURVE",
"404 93 OFFCURVE",
"431 50 CURVE",
"451 50 LINE",
"473 50 LINE",
"478 49 OFFCURVE",
"485 48 OFFCURVE",
"492 48 CURVE SMOOTH",
"507 48 LINE SMOOTH",
"513 48 OFFCURVE",
"520 50 OFFCURVE",
"528 55 CURVE",
"557 76 OFFCURVE",
"576 115 OFFCURVE",
"587 142 CURVE SMOOTH",
"592 154 LINE",
"596 161 OFFCURVE",
"598 169 OFFCURVE",
"601 177 CURVE SMOOTH",
"610 202 LINE",
"621 228 LINE SMOOTH",
"624 235 OFFCURVE",
"626 238 OFFCURVE",
"629 238 CURVE SMOOTH",
"634 238 OFFCURVE",
"636 235 OFFCURVE",
"636 230 CURVE SMOOTH",
"636 208 OFFCURVE",
"636 191 OFFCURVE",
"637 179 CURVE",
"638 125 LINE",
"639 113 OFFCURVE",
"639 97 OFFCURVE",
"639 76 CURVE SMOOTH",
"639 44 OFFCURVE",
"641 21 OFFCURVE",
"645 9 CURVE",
"646 2 OFFCURVE",
"648 -2 OFFCURVE",
"651 -2 CURVE SMOOTH",
"659 -2 LINE",
"660 -1 OFFCURVE",
"661 -1 OFFCURVE",
"662 -1 CURVE",
"700 -4 LINE",
"717 -4 OFFCURVE",
"729 -6 OFFCURVE",
"738 -7 CURVE",
"763 -8 LINE SMOOTH",
"784 -9 OFFCURVE",
"800 -10 OFFCURVE",
"812 -10 CURVE SMOOTH",
"819 -10 OFFCURVE",
"824 -9 OFFCURVE",
"829 -8 CURVE",
"849 -8 LINE",
"867 -8 LINE",
"874 -8 LINE",
"918 3 LINE",
"921 10 LINE",
"921 21 LINE",
"921 50 LINE",
"918 65 OFFCURVE",
"918 95 OFFCURVE",
"918 134 CURVE SMOOTH",
"918 153 OFFCURVE",
"918 167 OFFCURVE",
"917 176 CURVE",
"917 210 LINE",
"919 230 LINE",
"920 246 OFFCURVE",
"926 314 OFFCURVE",
"926 359 CURVE SMOOTH",
"926 416 LINE SMOOTH",
"926 476 OFFCURVE",
"925 519 OFFCURVE",
"924 547 CURVE SMOOTH",
"921 644 LINE",
"919 654 OFFCURVE",
"917 659 OFFCURVE",
"916 659 CURVE SMOOTH",
"894 659 LINE",
"882 659 LINE",
"872 659 LINE",
"857 659 LINE",
"689 659 LINE",
"612 659 LINE SMOOTH",
"611 659 OFFCURVE",
"610 658 OFFCURVE",
"609 657 CURVE SMOOTH",
"608 656 OFFCURVE",
"607 655 OFFCURVE",
"605 654 CURVE",
"602 651 OFFCURVE",
"599 647 OFFCURVE",
"596 642 CURVE",
"586 627 OFFCURVE",
"581 617 OFFCURVE",
"578 611 CURVE",
"577 610 OFFCURVE",
"576 608 OFFCURVE",
"575 605 CURVE",
"574 601 OFFCURVE",
"572 596 OFFCURVE",
"570 591 CURVE",
"553 555 LINE",
"513 471 LINE",
"498 438 LINE",
"495 433 OFFCURVE",
"494 429 OFFCURVE",
"493 427 CURVE",
"492 424 OFFCURVE",
"492 423 OFFCURVE",
"491 422 CURVE",
"487 411 OFFCURVE",
"483 387 OFFCURVE",
"476 387 CURVE SMOOTH",
"471 387 OFFCURVE",
"448 411 OFFCURVE",
"443 422 CURVE",
"443 423 OFFCURVE",
"442 424 OFFCURVE",
"441 427 CURVE",
"439 429 OFFCURVE",
"437 432 OFFCURVE",
"436 437 CURVE",
"434 442 OFFCURVE",
"432 448 OFFCURVE",
"430 453 CURVE",
"427 458 OFFCURVE",
"425 464 OFFCURVE",
"423 469 CURVE SMOOTH",
"415 488 OFFCURVE",
"410 502 OFFCURVE",
"405 511 CURVE",
"382 542 LINE SMOOTH",
"368 561 OFFCURVE",
"368 580 OFFCURVE",
"363 591 CURVE",
"345 611 OFFCURVE",
"341 619 OFFCURVE",
"337 627 CURVE",
"329 640 OFFCURVE",
"322 649 OFFCURVE",
"317 654 CURVE SMOOTH",
"316 655 OFFCURVE",
"314 656 OFFCURVE",
"313 657 CURVE SMOOTH",
"312 658 OFFCURVE",
"311 659 OFFCURVE",
"310 659 CURVE SMOOTH",
"233 659 LINE",
"105 659 LINE SMOOTH",
"88 659 OFFCURVE",
"76 657 OFFCURVE",
"65 654 CURVE SMOOTH",
"49 650 OFFCURVE",
"37 640 OFFCURVE",
"37 627 CURVE SMOOTH",
"37 626 OFFCURVE",
"38 624 OFFCURVE",
"39 623 CURVE SMOOTH",
"40 622 OFFCURVE",
"40 621 OFFCURVE",
"40 620 CURVE SMOOTH",
"40 610 OFFCURVE",
"40 602 OFFCURVE",
"41 595 CURVE",
"42 567 LINE",
"42 548 OFFCURVE",
"41 528 OFFCURVE",
"40 506 CURVE",
"38 488 OFFCURVE",
"37 471 OFFCURVE",
"37 454 CURVE",
"38 447 LINE",
"38 442 OFFCURVE",
"39 438 OFFCURVE",
"40 436 CURVE",
"40 423 LINE",
"40 416 LINE SMOOTH",
"40 368 OFFCURVE",
"39 333 OFFCURVE",
"38 312 CURVE SMOOTH",
"37 279 LINE SMOOTH",
"36 250 OFFCURVE",
"35 227 OFFCURVE",
"35 210 CURVE SMOOTH",
"37 134 LINE SMOOTH",
"38 114 OFFCURVE",
"37 100 OFFCURVE",
"38 90 CURVE",
"39 44 LINE",
"40 38 OFFCURVE",
"40 30 OFFCURVE",
"40 21 CURVE SMOOTH",
"40 14 OFFCURVE",
"40 10 OFFCURVE",
"41 10 CURVE",
"45 3 LINE",
"89 -8 LINE",
"96 -8 LINE",
"114 -8 LINE",
"134 -8 LINE",
"138 -9 OFFCURVE",
"143 -10 OFFCURVE",
"150 -10 CURVE SMOOTH"
);
}
);
width = 961;
}
);
note = M;
unicode = 004D;
},
{
glyphname = N;
lastChange = "2017-08-03 20:20:12 +0000";
layers = (
{
layerId = "CBDECE4A-293B-4E5C-B714-A3FD26C7130D";
paths = (
{
closed = 1;
nodes = (
"163 -5 OFFCURVE",
"207 -3 OFFCURVE",
"225 -1 CURVE SMOOTH",
"236 0 OFFCURVE",
"254 4 OFFCURVE",
"279 5 CURVE",
"285 4 OFFCURVE",
"290 4 OFFCURVE",
"293 6 CURVE",
"297 6 OFFCURVE",
"301 11 OFFCURVE",
"301 14 CURVE",
"299 20 LINE",
"299 33 LINE",
"299 55 LINE SMOOTH",
"299 66 OFFCURVE",
"301 75 OFFCURVE",
"302 83 CURVE",
"302 121 LINE",
"302 160 LINE SMOOTH",
"302 175 OFFCURVE",
"302 186 OFFCURVE",
"303 193 CURVE",
"303 215 LINE SMOOTH",
"303 220 OFFCURVE",
"305 222 OFFCURVE",
"313 222 CURVE SMOOTH",
"314 222 OFFCURVE",
"314 221 OFFCURVE",
"316 221 CURVE",
"317 219 OFFCURVE",
"320 216 OFFCURVE",
"321 214 CURVE",
"330 203 OFFCURVE",
"357 177 OFFCURVE",
"357 176 CURVE",
"527 14 LINE",
"542 5 OFFCURVE",
"559 -5 OFFCURVE",
"585 -3 CURVE",
"600 -3 LINE",
"660 -3 LINE",
"681 -3 LINE",
"724 -3 LINE",
"741 -4 LINE",
"757 -3 LINE",
"765 1 OFFCURVE",
"772 11 OFFCURVE",
"774 23 CURVE",
"778 63 LINE",
"778 219 LINE",
"778 252 LINE",
"778 310 LINE SMOOTH",
"778 339 OFFCURVE",
"778 365 OFFCURVE",
"780 382 CURVE",
"780 455 LINE SMOOTH",
"780 481 OFFCURVE",
"780 502 OFFCURVE",
"781 513 CURVE",
"781 543 LINE",
"778 554 LINE",
"778 562 LINE",
"778 574 LINE SMOOTH",
"778 581 OFFCURVE",
"778 586 OFFCURVE",
"780 589 CURVE",
"781 606 LINE",
"782 616 LINE",
"782 651 OFFCURVE",
"771 657 OFFCURVE",
"736 657 CURVE SMOOTH",
"723 657 LINE",
"694 657 LINE",
"662 657 LINE",
"652 659 OFFCURVE",
"683 659 OFFCURVE",
"668 659 CURVE SMOOTH",
"654 659 OFFCURVE",
"644 659 OFFCURVE",
"639 660 CURVE",
"628 660 LINE",
"571 660 LINE SMOOTH",
"568 660 OFFCURVE",
"561 659 OFFCURVE",
"555 657 CURVE",
"547 655 OFFCURVE",
"539 650 OFFCURVE",
"531 642 CURVE",
"530 642 OFFCURVE",
"529 642 OFFCURVE",
"528 641 CURVE SMOOTH",
"527 640 OFFCURVE",
"525 638 OFFCURVE",
"525 636 CURVE SMOOTH",
"525 634 OFFCURVE",
"524 631 OFFCURVE",
"523 625 CURVE",
"520 555 LINE",
"520 464 LINE",
"519 454 OFFCURVE",
"519 438 OFFCURVE",
"519 421 CURVE",
"486 451 LINE",
"351 580 LINE SMOOTH",
"343 588 OFFCURVE",
"335 604 OFFCURVE",
"323 622 CURVE SMOOTH",
"315 634 OFFCURVE",
"317 627 OFFCURVE",
"308 638 CURVE",
"305 642 OFFCURVE",
"290 662 OFFCURVE",
"285 666 CURVE SMOOTH",
"277 672 OFFCURVE",
"264 671 OFFCURVE",
"244 671 CURVE SMOOTH",
"234 671 OFFCURVE",
"209 668 OFFCURVE",
"172 666 CURVE SMOOTH",
"149 665 LINE",
"109 664 OFFCURVE",
"109 663 OFFCURVE",
"84 663 CURVE SMOOTH",
"52 663 OFFCURVE",
"33 655 OFFCURVE",
"37 624 CURVE",
"38 614 OFFCURVE",
"38 597 OFFCURVE",
"38 573 CURVE SMOOTH",
"38 551 OFFCURVE",
"38 532 OFFCURVE",
"37 521 CURVE",
"35 420 LINE SMOOTH",
"34 353 OFFCURVE",
"35 275 OFFCURVE",
"42 215 CURVE",
"42 181 LINE",
"43 172 OFFCURVE",
"43 157 OFFCURVE",
"43 137 CURVE",
"44 128 OFFCURVE",
"45 113 OFFCURVE",
"45 94 CURVE SMOOTH",
"45 68 OFFCURVE",
"46 46 OFFCURVE",
"47 24 CURVE",
"47 19 OFFCURVE",
"47 14 OFFCURVE",
"49 14 CURVE",
"51 7 LINE",
"95 -4 LINE",
"104 -4 LINE",
"121 -4 LINE",
"140 -4 LINE",
"145 -4 OFFCURVE",
"150 -5 OFFCURVE",
"157 -5 CURVE SMOOTH"
);
}
);
width = 817;
}
);
note = N;
unicode = 004E;
},
{
glyphname = Eng;
lastChange = "2017-08-04 01:38:11 +0000";
layers = (
{
layerId = "CBDECE4A-293B-4E5C-B714-A3FD26C7130D";
paths = (
{
closed = 1;
nodes = (
"785 590 OFFCURVE",
"785 595 OFFCURVE",
"786 599 CURVE",
"787 615 LINE",
"788 625 LINE",
"788 661 OFFCURVE",
"777 668 OFFCURVE",
"742 668 CURVE SMOOTH",
"668 668 LINE",
"659 669 OFFCURVE",
"648 669 OFFCURVE",
"633 669 CURVE SMOOTH",
"620 669 OFFCURVE",
"610 669 OFFCURVE",
"605 670 CURVE",
"536 670 LINE SMOOTH",
"532 670 OFFCURVE",
"527 669 OFFCURVE",
"520 668 CURVE",
"512 665 OFFCURVE",
"504 660 OFFCURVE",
"496 653 CURVE",
"493 651 LINE",
"492 650 OFFCURVE",
"491 648 OFFCURVE",
"490 646 CURVE SMOOTH",
"489 644 OFFCURVE",
"489 640 OFFCURVE",
"488 635 CURVE",
"485 564 LINE",
"485 471 LINE",
"484 461 OFFCURVE",
"483 447 OFFCURVE",
"483 430 CURVE",
"451 478 LINE",
"385 579 LINE SMOOTH",
"378 589 OFFCURVE",
"368 603 OFFCURVE",
"356 621 CURVE SMOOTH",
"348 633 OFFCURVE",
"340 644 OFFCURVE",
"332 655 CURVE",
"329 660 OFFCURVE",
"323 672 OFFCURVE",
"316 676 CURVE SMOOTH",
"309 680 OFFCURVE",
"296 681 OFFCURVE",
"277 681 CURVE SMOOTH",
"267 681 OFFCURVE",
"242 680 OFFCURVE",
"202 677 CURVE SMOOTH",
"180 675 LINE",
"141 674 OFFCURVE",
"110 673 OFFCURVE",
"85 673 CURVE SMOOTH",
"52 673 OFFCURVE",
"33 665 OFFCURVE",
"37 634 CURVE",
"38 623 OFFCURVE",
"38 605 OFFCURVE",
"38 582 CURVE SMOOTH",
"38 559 OFFCURVE",
"38 541 OFFCURVE",
"37 530 CURVE",
"35 428 LINE SMOOTH",
"35 359 OFFCURVE",
"35 281 OFFCURVE",
"42 220 CURVE",
"42 185 LINE",
"43 176 OFFCURVE",
"43 162 OFFCURVE",
"43 143 CURVE",
"44 132 OFFCURVE",
"45 117 OFFCURVE",
"45 98 CURVE SMOOTH",
"45 72 OFFCURVE",
"46 49 OFFCURVE",
"47 29 CURVE",
"47 22 OFFCURVE",
"47 18 OFFCURVE",
"48 18 CURVE",
"51 10 LINE",
"96 -1 LINE",
"141 -1 LINE",
"146 -2 OFFCURVE",
"151 -3 OFFCURVE",
"158 -3 CURVE SMOOTH",
"193 -3 OFFCURVE",
"240 1 OFFCURVE",
"256 2 CURVE SMOOTH",
"269 3 OFFCURVE",
"287 5 OFFCURVE",
"310 6 CURVE",
"317 5 OFFCURVE",
"323 5 OFFCURVE",
"326 8 CURVE",
"331 9 OFFCURVE",
"334 13 OFFCURVE",
"334 18 CURVE",
"333 23 LINE",
"333 58 LINE SMOOTH",
"333 70 OFFCURVE",
"334 80 OFFCURVE",
"335 88 CURVE",
"335 165 LINE SMOOTH",
"335 180 OFFCURVE",
"335 191 OFFCURVE",
"336 198 CURVE",
"336 220 LINE SMOOTH",
"336 225 OFFCURVE",
"339 228 OFFCURVE",
"345 228 CURVE SMOOTH",
"346 228 OFFCURVE",
"347 227 OFFCURVE",
"349 226 CURVE",
"350 224 OFFCURVE",
"352 222 OFFCURVE",
"353 219 CURVE",
"362 207 OFFCURVE",
"390 162 OFFCURVE",
"390 161 CURVE",
"480 34 LINE",
"479 -1 OFFCURVE",
"479 -25 OFFCURVE",
"479 -42 CURVE SMOOTH",
"479 -57 OFFCURVE",
"479 -58 OFFCURVE",
"478 -63 CURVE",
"478 -63 OFFCURVE",
"476 -70 OFFCURVE",
"474 -81 CURVE SMOOTH",
"472 -91 OFFCURVE",
"470 -97 OFFCURVE",
"468 -100 CURVE",
"463 -117 OFFCURVE",
"452 -126 OFFCURVE",
"441 -126 CURVE SMOOTH",
"417 -126 OFFCURVE",
"411 -122 OFFCURVE",
"350 -100 CURVE",
"342 -94 OFFCURVE",
"339 -99 OFFCURVE",
"339 -100 CURVE",
"338 -101 OFFCURVE",
"338 -101 OFFCURVE",
"338 -103 CURVE SMOOTH",
"338 -105 OFFCURVE",
"337 -110 OFFCURVE",
"337 -117 CURVE",
"333 -135 OFFCURVE",
"333 -213 OFFCURVE",
"333 -229 CURVE",
"330 -246 LINE",
"328 -265 LINE",
"328 -268 OFFCURVE",
"328 -268 OFFCURVE",
"329 -269 CURVE",
"367 -287 LINE SMOOTH",
"415 -310 OFFCURVE",
"435 -318 OFFCURVE",
"493 -318 CURVE SMOOTH",
"514 -318 OFFCURVE",
"535 -320 OFFCURVE",
"559 -317 CURVE",
"676 -315 OFFCURVE",
"754 -252 OFFCURVE",
"774 -146 CURVE SMOOTH",
"780 -115 OFFCURVE",
"781 -88 OFFCURVE",
"781 -52 CURVE",
"782 -45 LINE",
"782 -29 LINE SMOOTH",
"782 -19 OFFCURVE",
"782 -11 OFFCURVE",
"783 -7 CURVE",
"784 -4 OFFCURVE",
"784 -1 OFFCURVE",
"784 2 CURVE",
"783 6 OFFCURVE",
"783 9 OFFCURVE",
"784 12 CURVE",
"784 20 LINE SMOOTH",
"784 23 OFFCURVE",
"784 27 OFFCURVE",
"785 27 CURVE",
"785 316 LINE SMOOTH",
"785 347 OFFCURVE",
"785 372 OFFCURVE",
"786 389 CURVE",
"786 463 LINE SMOOTH",
"786 490 OFFCURVE",
"786 510 OFFCURVE",
"787 521 CURVE",
"787 553 LINE",
"785 563 LINE",
"785 583 LINE SMOOTH"
);
}
);
width = 823;
}
);
note = Eng;
unicode = 014A;
},
{
glyphname = O;
lastChange = "2017-08-21 16:24:36 +0000";
layers = (
{
layerId = "CBDECE4A-293B-4E5C-B714-A3FD26C7130D";
paths = (
{
closed = 1;
nodes = (
"573 -26 OFFCURVE",
"687 13 OFFCURVE",
"745 119 CURVE SMOOTH",
"776 176 OFFCURVE",
"789 258 OFFCURVE",
"789 361 CURVE SMOOTH",
"789 445 OFFCURVE",
"770 519 OFFCURVE",
"729 573 CURVE SMOOTH",
"662 661 OFFCURVE",
"530 702 OFFCURVE",
"422 702 CURVE SMOOTH",
"285 702 OFFCURVE",
"172 673 OFFCURVE",
"110 609 CURVE SMOOTH",
"49 546 OFFCURVE",
"20 454 OFFCURVE",
"20 318 CURVE SMOOTH",
"20 221 OFFCURVE",
"39 147 OFFCURVE",
"76 91 CURVE SMOOTH",
"136 1 OFFCURVE",
"260 -26 OFFCURVE",
"412 -26 CURVE SMOOTH"
);
},
{
closed = 1;
nodes = (
"392 104 OFFCURVE",
"377 119 OFFCURVE",
"368 147 CURVE SMOOTH",
"357 182 OFFCURVE",
"349 221 OFFCURVE",
"349 245 CURVE",
"346 267 OFFCURVE",
"346 293 OFFCURVE",
"346 326 CURVE SMOOTH",
"346 374 OFFCURVE",
"346 407 OFFCURVE",
"349 431 CURVE",
"349 457 OFFCURVE",
"352 494 OFFCURVE",
"368 527 CURVE",
"377 549 OFFCURVE",
"392 563 OFFCURVE",
"416 563 CURVE SMOOTH",
"483 563 OFFCURVE",
"488 432 OFFCURVE",
"488 365 CURVE SMOOTH",
"488 341 LINE",
"488 309 LINE SMOOTH",
"488 244 OFFCURVE",
"481 164 OFFCURVE",
"455 139 CURVE SMOOTH",
"436 121 OFFCURVE",
"429 104 OFFCURVE",
"416 104 CURVE SMOOTH"
);
}
);
width = 809;
}
);
note = O;
unicode = 004F;
},
{
glyphname = uni0230;
lastChange = "2017-08-15 17:14:26 +0000";
layers = (
{
layerId = "CBDECE4A-293B-4E5C-B714-A3FD26C7130D";
paths = (
{
closed = 1;
nodes = (
"606 991 OFFCURVE",
"613 998 OFFCURVE",
"615 1011 CURVE",
"618 1020 OFFCURVE",
"619 1031 OFFCURVE",
"619 1046 CURVE SMOOTH",
"619 1069 LINE",
"618 1077 OFFCURVE",
"618 1086 OFFCURVE",
"618 1096 CURVE SMOOTH",
"618 1106 LINE SMOOTH",
"618 1110 OFFCURVE",
"618 1115 OFFCURVE",
"617 1122 CURVE SMOOTH",
"616 1128 OFFCURVE",
"616 1136 OFFCURVE",
"616 1146 CURVE SMOOTH",
"616 1166 OFFCURVE",
"588 1171 OFFCURVE",
"561 1171 CURVE SMOOTH",
"538 1171 LINE SMOOTH",
"525 1171 OFFCURVE",
"495 1172 OFFCURVE",
"448 1173 CURVE SMOOTH",
"408 1174 LINE SMOOTH",
"381 1175 OFFCURVE",
"364 1176 OFFCURVE",
"355 1176 CURVE SMOOTH",
"333 1176 LINE",
"223 1176 LINE SMOOTH",
"215 1176 OFFCURVE",
"207 1168 OFFCURVE",
"206 1167 CURVE",
"201 1163 OFFCURVE",
"198 1158 OFFCURVE",
"198 1151 CURVE SMOOTH",
"198 1134 OFFCURVE",
"198 1123 OFFCURVE",
"199 1116 CURVE",
"199 1087 LINE",
"199 1057 LINE",
"199 1021 LINE SMOOTH",
"199 1014 OFFCURVE",
"201 1009 OFFCURVE",
"206 1006 CURVE",
"214 998 OFFCURVE",
"227 996 OFFCURVE",
"248 996 CURVE SMOOTH",
"276 996 LINE",
"376 996 LINE",
"386 996 LINE",
"408 996 LINE SMOOTH",
"418 996 OFFCURVE",
"426 995 OFFCURVE",
"433 994 CURVE",
"436 993 OFFCURVE",
"441 993 OFFCURVE",
"446 994 CURVE",
"451 994 OFFCURVE",
"455 994 OFFCURVE",
"458 994 CURVE SMOOTH",
"478 994 LINE",
"488 993 LINE",
"513 993 LINE",
"535 992 LINE",
"546 992 OFFCURVE",
"554 992 OFFCURVE",
"561 991 CURVE",
"595 991 LINE SMOOTH"
);
},
{
closed = 1;
nodes = (
"505 776 LINE",
"516 777 OFFCURVE",
"522 786 OFFCURVE",
"522 804 CURVE SMOOTH",
"522 814 OFFCURVE",
"521 821 OFFCURVE",
"520 826 CURVE",
"519 829 OFFCURVE",
"519 832 OFFCURVE",
"520 837 CURVE",
"520 842 OFFCURVE",
"520 845 OFFCURVE",
"520 847 CURVE SMOOTH",
"520 857 LINE",
"520 870 LINE",
"520 880 LINE",
"519 881 OFFCURVE",
"519 883 OFFCURVE",
"519 884 CURVE SMOOTH",
"519 885 OFFCURVE",
"519 885 OFFCURVE",
"519 886 CURVE SMOOTH",
"519 895 OFFCURVE",
"519 901 OFFCURVE",
"520 906 CURVE",
"521 909 OFFCURVE",
"521 913 OFFCURVE",
"521 917 CURVE",
"520 921 OFFCURVE",
"520 924 OFFCURVE",
"520 926 CURVE SMOOTH",
"520 935 OFFCURVE",
"519 941 OFFCURVE",
"518 945 CURVE SMOOTH",
"517 949 OFFCURVE",
"514 951 OFFCURVE",
"509 951 CURVE SMOOTH",
"505 951 LINE",
"499 950 LINE",
"492 950 LINE SMOOTH",
"489 950 OFFCURVE",
"486 950 OFFCURVE",
"484 951 CURVE",
"482 951 OFFCURVE",
"480 951 OFFCURVE",
"479 951 CURVE",
"465 952 LINE",
"430 950 LINE",
"327 950 LINE SMOOTH",
"310 950 OFFCURVE",
"307 946 OFFCURVE",
"298 921 CURVE",
"298 920 OFFCURVE",
"298 920 OFFCURVE",
"299 919 CURVE",
"299 918 OFFCURVE",
"299 917 OFFCURVE",
"299 916 CURVE SMOOTH",
"299 914 LINE",
"295 882 LINE",
"293 878 OFFCURVE",
"292 874 OFFCURVE",
"292 871 CURVE",
"293 864 LINE",
"294 844 LINE",
"294 815 LINE",
"300 782 LINE",
"307 776 LINE"
);
},
{
closed = 1;
nodes = (
"572 -46 OFFCURVE",
"688 -6 OFFCURVE",
"747 105 CURVE SMOOTH",
"779 164 OFFCURVE",
"792 250 OFFCURVE",
"792 358 CURVE SMOOTH",
"792 449 OFFCURVE",
"771 524 OFFCURVE",
"731 580 CURVE SMOOTH",
"663 674 OFFCURVE",
"529 718 OFFCURVE",
"421 718 CURVE SMOOTH",
"281 718 OFFCURVE",
"167 685 OFFCURVE",
"105 621 CURVE SMOOTH",
"44 557 OFFCURVE",
"15 457 OFFCURVE",
"15 314 CURVE SMOOTH",
"15 212 OFFCURVE",
"33 134 OFFCURVE",
"71 76 CURVE SMOOTH",
"133 -20 OFFCURVE",
"258 -46 OFFCURVE",
"411 -46 CURVE SMOOTH"
);
},
{
closed = 1;
nodes = (
"399 90 OFFCURVE",
"383 106 OFFCURVE",
"374 135 CURVE SMOOTH",
"362 170 OFFCURVE",
"358 211 OFFCURVE",
"358 238 CURVE",
"355 259 OFFCURVE",
"354 287 OFFCURVE",
"354 319 CURVE SMOOTH",
"354 368 OFFCURVE",
"355 404 OFFCURVE",
"358 428 CURVE",
"358 453 OFFCURVE",
"362 492 OFFCURVE",
"374 526 CURVE",
"383 550 OFFCURVE",
"399 563 OFFCURVE",
"421 563 CURVE SMOOTH",
"431 563 OFFCURVE",
"431 556 OFFCURVE",
"443 548 CURVE SMOOTH",
"503 506 OFFCURVE",
"490 409 OFFCURVE",
"490 358 CURVE SMOOTH",
"490 336 LINE",
"490 302 LINE SMOOTH",
"490 237 OFFCURVE",
"482 152 OFFCURVE",
"459 128 CURVE SMOOTH",
"441 109 OFFCURVE",
"433 90 OFFCURVE",
"421 90 CURVE SMOOTH"
);
}
);
width = 817;
}
);
note = uni0230;
unicode = 0230;
},
{
glyphname = Ohorn;
lastChange = "2017-08-03 01:36:49 +0000";
layers = (
{
layerId = "CBDECE4A-293B-4E5C-B714-A3FD26C7130D";
paths = (
{
closed = 1;
nodes = (
"406 72 OFFCURVE",
"394 88 OFFCURVE",
"384 121 CURVE SMOOTH",
"373 157 OFFCURVE",
"369 193 OFFCURVE",
"369 222 CURVE",
"366 244 OFFCURVE",
"366 272 OFFCURVE",
"366 307 CURVE SMOOTH",
"366 361 OFFCURVE",
"366 399 OFFCURVE",
"369 423 CURVE",
"369 452 OFFCURVE",
"374 485 OFFCURVE",
"384 522 CURVE",
"394 546 OFFCURVE",
"406 560 OFFCURVE",
"426 560 CURVE SMOOTH",
"438 560 OFFCURVE",
"447 555 OFFCURVE",
"454 544 CURVE SMOOTH",
"480 503 OFFCURVE",
"490 404 OFFCURVE",
"490 351 CURVE SMOOTH",
"490 289 LINE SMOOTH",
"490 220 OFFCURVE",
"481 125 OFFCURVE",
"454 87 CURVE SMOOTH",
"447 77 OFFCURVE",
"439 72 OFFCURVE",
"426 72 CURVE SMOOTH"
);
},
{
closed = 1;
nodes = (
"855 816 LINE",
"689 819 LINE",
"695 801 LINE",
"697 766 LINE",
"697 743 LINE SMOOTH",
"697 732 OFFCURVE",
"690 687 OFFCURVE",
"677 671 CURVE",
"667 664 LINE SMOOTH",
"663 661 OFFCURVE",
"659 659 OFFCURVE",
"653 657 CURVE SMOOTH",
"634 649 LINE",
"631 651 LINE",
"558 676 LINE",
"520 685 OFFCURVE",
"479 688 OFFCURVE",
"435 688 CURVE SMOOTH",
"287 688 OFFCURVE",
"186 661 OFFCURVE",
"121 598 CURVE SMOOTH",
"57 536 OFFCURVE",
"25 440 OFFCURVE",
"25 300 CURVE SMOOTH",
"25 202 OFFCURVE",
"44 125 OFFCURVE",
"84 70 CURVE SMOOTH",
"152 -24 OFFCURVE",
"263 -44 OFFCURVE",
"424 -44 CURVE SMOOTH",
"596 -44 OFFCURVE",
"699 -9 OFFCURVE",
"761 97 CURVE SMOOTH",
"795 155 OFFCURVE",
"809 239 OFFCURVE",
"809 343 CURVE SMOOTH",
"809 414 OFFCURVE",
"794 478 OFFCURVE",
"765 532 CURVE",
"743 557 LINE",
"742 558 LINE",
"752 563 OFFCURVE",
"765 572 OFFCURVE",
"777 582 CURVE",
"799 599 LINE",
"829 638 LINE",
"834 647 OFFCURVE",
"855 678 OFFCURVE",
"859 705 CURVE",
"865 743 LINE",
"865 762 LINE",
"859 799 LINE"
);
}
);
width = 850;
}
);
note = Ohorn;
unicode = 01A0;
},
{
glyphname = uni01EA;
lastChange = "2017-08-08 16:36:07 +0000";
layers = (
{
layerId = "CBDECE4A-293B-4E5C-B714-A3FD26C7130D";
paths = (
{
closed = 1;
nodes = (
"662 659 OFFCURVE",
"540 695 OFFCURVE",
"427 695 CURVE SMOOTH",
"282 695 OFFCURVE",
"183 667 OFFCURVE",
"119 606 CURVE SMOOTH",
"55 545 OFFCURVE",
"25 450 OFFCURVE",
"25 313 CURVE SMOOTH",
"25 217 OFFCURVE",
"44 142 OFFCURVE",
"83 88 CURVE SMOOTH",
"150 -3 OFFCURVE",
"238 -24 OFFCURVE",
"337 -24 CURVE",
"325 -33 LINE",
"269 -70 OFFCURVE",
"242 -103 OFFCURVE",
"242 -163 CURVE SMOOTH",
"242 -175 OFFCURVE",
"244 -186 OFFCURVE",
"247 -195 CURVE",
"258 -220 OFFCURVE",
"281 -240 OFFCURVE",
"318 -253 CURVE SMOOTH",
"357 -267 OFFCURVE",
"412 -276 OFFCURVE",
"485 -276 CURVE",
"495 -274 LINE",
"497 -273 OFFCURVE",
"500 -273 OFFCURVE",
"503 -273 CURVE SMOOTH",
"506 -273 OFFCURVE",
"510 -272 OFFCURVE",
"515 -271 CURVE",
"526 -270 OFFCURVE",
"542 -265 OFFCURVE",
"562 -258 CURVE",
"575 -251 OFFCURVE",
"587 -245 OFFCURVE",
"588 -240 CURVE SMOOTH",
"605 -158 LINE",
"605 -153 LINE SMOOTH",
"605 -148 OFFCURVE",
"603 -145 OFFCURVE",
"598 -143 CURVE",
"567 -154 OFFCURVE",
"538 -160 OFFCURVE",
"511 -160 CURVE SMOOTH",
"502 -160 OFFCURVE",
"496 -160 OFFCURVE",
"491 -161 CURVE",
"483 -164 OFFCURVE",
"473 -159 OFFCURVE",
"470 -158 CURVE",
"455 -154 OFFCURVE",
"447 -146 OFFCURVE",
"447 -126 CURVE SMOOTH",
"447 -118 OFFCURVE",
"451 -106 OFFCURVE",
"460 -90 CURVE SMOOTH",
"473 -67 OFFCURVE",
"487 -49 OFFCURVE",
"506 -33 CURVE",
"596 -8 LINE",
"677 14 OFFCURVE",
"718 66 OFFCURVE",
"747 115 CURVE",
"778 172 OFFCURVE",
"793 252 OFFCURVE",
"793 355 CURVE SMOOTH",
"793 443 OFFCURVE",
"772 514 OFFCURVE",
"730 568 CURVE SMOOTH"
);
},
{
closed = 1;
nodes = (
"370 194 OFFCURVE",
"368 228 OFFCURVE",
"368 256 CURVE",
"365 279 OFFCURVE",
"364 307 OFFCURVE",
"364 341 CURVE SMOOTH",
"364 393 OFFCURVE",
"365 430 OFFCURVE",
"368 455 CURVE",
"368 483 OFFCURVE",
"372 514 OFFCURVE",
"380 550 CURVE",
"390 575 OFFCURVE",
"402 588 OFFCURVE",
"421 588 CURVE SMOOTH",
"431 588 OFFCURVE",
"439 583 OFFCURVE",
"445 573 CURVE SMOOTH",
"471 530 OFFCURVE",
"480 436 OFFCURVE",
"480 382 CURVE SMOOTH",
"480 359 LINE",
"480 323 LINE SMOOTH",
"480 255 OFFCURVE",
"469 164 OFFCURVE",
"445 124 CURVE SMOOTH",
"439 114 OFFCURVE",
"432 110 OFFCURVE",
"421 110 CURVE SMOOTH",
"402 110 OFFCURVE",
"389 125 OFFCURVE",
"380 157 CURVE SMOOTH"
);
}
);
width = 818;
}
);
note = uni01EA;
unicode = 01EA;
},
{
glyphname = Oslash;
lastChange = "2017-08-03 01:37:33 +0000";
layers = (
{
layerId = "CBDECE4A-293B-4E5C-B714-A3FD26C7130D";
paths = (
{
closed = 1;
nodes = (
"96 -56 OFFCURVE",
"106 -48 OFFCURVE",
"120 -37 CURVE SMOOTH",
"135 -25 OFFCURVE",
"149 -11 OFFCURVE",
"171 11 CURVE",
"200 -5 OFFCURVE",
"240 -17 OFFCURVE",
"289 -24 CURVE",
"323 -28 OFFCURVE",
"365 -29 OFFCURVE",
"420 -29 CURVE SMOOTH",
"586 -29 OFFCURVE",
"692 5 OFFCURVE",
"747 110 CURVE SMOOTH",
"776 166 OFFCURVE",
"794 244 OFFCURVE",
"794 349 CURVE SMOOTH",
"794 432 OFFCURVE",
"774 500 OFFCURVE",
"738 553 CURVE",
"755 570 LINE",
"761 576 OFFCURVE",
"766 579 OFFCURVE",
"769 583 CURVE",
"770 585 OFFCURVE",
"772 589 OFFCURVE",
"778 593 CURVE SMOOTH",
"786 598 OFFCURVE",
"793 606 OFFCURVE",
"805 625 CURVE",
"811 633 OFFCURVE",
"814 639 OFFCURVE",
"814 641 CURVE SMOOTH",
"814 649 OFFCURVE",
"811 651 OFFCURVE",
"801 656 CURVE",
"796 659 OFFCURVE",
"793 661 OFFCURVE",
"789 665 CURVE",
"784 666 OFFCURVE",
"778 668 OFFCURVE",
"773 672 CURVE",
"758 680 LINE",
"755 682 OFFCURVE",
"751 683 OFFCURVE",
"747 683 CURVE SMOOTH",
"743 683 OFFCURVE",
"740 682 OFFCURVE",
"738 681 CURVE",
"671 620 LINE",
"608 667 OFFCURVE",
"516 689 OFFCURVE",
"429 689 CURVE SMOOTH",
"283 689 OFFCURVE",
"184 661 OFFCURVE",
"120 599 CURVE SMOOTH",
"57 538 OFFCURVE",
"26 444 OFFCURVE",
"26 309 CURVE SMOOTH",
"26 202 OFFCURVE",
"48 124 OFFCURVE",
"94 69 CURVE",
"64 37 LINE SMOOTH",
"59 32 OFFCURVE",
"57 29 OFFCURVE",
"53 23 CURVE SMOOTH",
"50 19 OFFCURVE",
"43 15 OFFCURVE",
"39 13 CURVE",
"38 11 OFFCURVE",
"35 7 OFFCURVE",
"32 3 CURVE",
"28 -4 OFFCURVE",
"27 -8 OFFCURVE",
"26 -10 CURVE SMOOTH",
"22 -19 OFFCURVE",
"27 -26 OFFCURVE",
"42 -33 CURVE",
"48 -40 LINE",
"53 -40 OFFCURVE",
"57 -44 OFFCURVE",
"63 -49 CURVE",
"65 -50 OFFCURVE",
"70 -54 OFFCURVE",
"74 -54 CURVE",
"79 -57 OFFCURVE",
"83 -59 OFFCURVE",
"88 -59 CURVE"
);
},
{
closed = 1;
nodes = (
"346 431 OFFCURVE",
"350 504 OFFCURVE",
"369 554 CURVE SMOOTH",
"379 580 OFFCURVE",
"391 594 OFFCURVE",
"408 594 CURVE SMOOTH",
"429 594 OFFCURVE",
"444 566 OFFCURVE",
"451 537 CURVE SMOOTH",
"457 513 OFFCURVE",
"462 494 OFFCURVE",
"466 442 CURVE",
"346 324 LINE"
);
},
{
closed = 1;
nodes = (
"389 68 OFFCURVE",
"376 81 OFFCURVE",
"369 112 CURVE",
"359 140 OFFCURVE",
"360 154 OFFCURVE",
"357 188 CURVE",
"469 303 LINE",
"464 214 OFFCURVE",
"461 157 OFFCURVE",
"447 108 CURVE SMOOTH",
"439 79 OFFCURVE",
"425 68 OFFCURVE",
"408 68 CURVE SMOOTH"
);
}
);
width = 839;
}
);
note = Oslash;
unicode = 00D8;
},
{
glyphname = uni022C;
lastChange = "2017-08-15 17:18:10 +0000";
layers = (
{
layerId = "CBDECE4A-293B-4E5C-B714-A3FD26C7130D";
paths = (
{
closed = 1;
nodes = (
"634 987 OFFCURVE",
"637 1010 OFFCURVE",
"637 1035 CURVE SMOOTH",
"637 1055 LINE",
"636 1062 OFFCURVE",
"636 1069 OFFCURVE",
"636 1078 CURVE SMOOTH",
"636 1087 LINE",
"635 1121 LINE",
"635 1137 OFFCURVE",
"611 1143 OFFCURVE",
"580 1143 CURVE SMOOTH",
"556 1143 LINE SMOOTH",
"543 1143 OFFCURVE",
"513 1144 OFFCURVE",
"466 1145 CURVE SMOOTH",
"419 1146 OFFCURVE",
"388 1147 OFFCURVE",
"373 1147 CURVE SMOOTH",
"351 1147 LINE",
"241 1147 LINE SMOOTH",
"234 1147 OFFCURVE",
"226 1141 OFFCURVE",
"225 1140 CURVE",
"219 1135 OFFCURVE",
"216 1131 OFFCURVE",
"216 1126 CURVE SMOOTH",
"216 1111 OFFCURVE",
"216 1101 OFFCURVE",
"217 1095 CURVE",
"217 1071 LINE",
"217 1045 LINE",
"217 1013 LINE SMOOTH",
"217 1008 OFFCURVE",
"221 1003 OFFCURVE",
"225 1000 CURVE",
"231 995 OFFCURVE",
"245 992 OFFCURVE",
"266 992 CURVE SMOOTH",
"295 992 LINE",
"395 992 LINE",
"405 992 LINE",
"426 992 LINE SMOOTH",
"436 992 OFFCURVE",
"444 992 OFFCURVE",
"451 991 CURVE",
"453 990 OFFCURVE",
"456 990 OFFCURVE",
"460 990 CURVE",
"476 991 LINE",
"496 991 LINE",
"499 990 OFFCURVE",
"501 990 OFFCURVE",
"503 990 CURVE",
"504 989 OFFCURVE",
"505 989 OFFCURVE",
"506 989 CURVE SMOOTH",
"531 989 LINE",
"553 988 LINE",
"564 988 OFFCURVE",
"573 988 OFFCURVE",
"580 987 CURVE",
"613 987 LINE SMOOTH"
);
},
{
closed = 1;
nodes = (
"540 755 OFFCURVE",
"567 765 OFFCURVE",
"591 776 CURVE",
"636 799 OFFCURVE",
"655 840 OFFCURVE",
"655 885 CURVE SMOOTH",
"655 905 OFFCURVE",
"650 924 OFFCURVE",
"640 941 CURVE",
"637 948 OFFCURVE",
"633 951 OFFCURVE",
"628 951 CURVE SMOOTH",
"501 951 LINE SMOOTH",
"492 951 OFFCURVE",
"488 949 OFFCURVE",
"488 945 CURVE",
"497 938 OFFCURVE",
"510 910 OFFCURVE",
"510 898 CURVE SMOOTH",
"510 894 LINE",
"507 885 OFFCURVE",
"503 880 OFFCURVE",
"488 880 CURVE SMOOTH",
"482 880 OFFCURVE",
"477 881 OFFCURVE",
"473 883 CURVE SMOOTH",
"467 886 OFFCURVE",
"460 894 OFFCURVE",
"451 906 CURVE SMOOTH",
"445 914 OFFCURVE",
"441 918 OFFCURVE",
"438 919 CURVE",
"426 930 OFFCURVE",
"417 934 OFFCURVE",
"398 941 CURVE",
"383 948 OFFCURVE",
"366 951 OFFCURVE",
"348 951 CURVE SMOOTH",
"259 951 OFFCURVE",
"219 913 OFFCURVE",
"203 866 CURVE SMOOTH",
"199 854 OFFCURVE",
"197 841 OFFCURVE",
"198 827 CURVE",
"198 813 OFFCURVE",
"198 804 OFFCURVE",
"198 800 CURVE SMOOTH",
"198 795 OFFCURVE",
"201 787 OFFCURVE",
"202 784 CURVE",
"202 783 OFFCURVE",
"203 776 OFFCURVE",
"206 773 CURVE",
"213 765 OFFCURVE",
"216 763 OFFCURVE",
"228 763 CURVE SMOOTH",
"270 763 LINE",
"303 763 LINE SMOOTH",
"306 763 OFFCURVE",
"307 764 OFFCURVE",
"308 765 CURVE",
"311 772 OFFCURVE",
"314 779 OFFCURVE",
"315 786 CURVE",
"315 793 OFFCURVE",
"316 798 OFFCURVE",
"318 801 CURVE SMOOTH",
"320 804 OFFCURVE",
"322 808 OFFCURVE",
"323 811 CURVE",
"326 817 OFFCURVE",
"330 821 OFFCURVE",
"335 821 CURVE SMOOTH",
"354 821 OFFCURVE",
"370 808 OFFCURVE",
"383 800 CURVE",
"389 795 OFFCURVE",
"394 792 OFFCURVE",
"398 789 CURVE SMOOTH",
"432 763 OFFCURVE",
"451 755 OFFCURVE",
"508 755 CURVE SMOOTH"
);
},
{
closed = 1;
nodes = (
"585 -24 OFFCURVE",
"686 10 OFFCURVE",
"747 115 CURVE SMOOTH",
"778 172 OFFCURVE",
"793 252 OFFCURVE",
"793 355 CURVE SMOOTH",
"793 443 OFFCURVE",
"772 514 OFFCURVE",
"730 568 CURVE SMOOTH",
"662 659 OFFCURVE",
"540 695 OFFCURVE",
"427 695 CURVE SMOOTH",
"282 695 OFFCURVE",
"183 667 OFFCURVE",
"119 606 CURVE SMOOTH",
"55 545 OFFCURVE",
"25 450 OFFCURVE",
"25 313 CURVE SMOOTH",
"25 217 OFFCURVE",
"44 142 OFFCURVE",
"83 88 CURVE SMOOTH",
"150 -3 OFFCURVE",
"258 -24 OFFCURVE",
"417 -24 CURVE SMOOTH"
);
},
{
closed = 1;
nodes = (
"396 77 OFFCURVE",
"383 93 OFFCURVE",
"373 127 CURVE SMOOTH",
"362 166 OFFCURVE",
"360 201 OFFCURVE",
"360 230 CURVE",
"357 254 OFFCURVE",
"356 284 OFFCURVE",
"356 320 CURVE SMOOTH",
"356 374 OFFCURVE",
"357 413 OFFCURVE",
"360 439 CURVE",
"360 468 OFFCURVE",
"364 502 OFFCURVE",
"373 539 CURVE",
"383 566 OFFCURVE",
"396 579 OFFCURVE",
"416 579 CURVE SMOOTH",
"426 579 OFFCURVE",
"435 573 OFFCURVE",
"442 563 CURVE SMOOTH",
"472 520 OFFCURVE",
"478 419 OFFCURVE",
"478 363 CURVE SMOOTH",
"478 339 LINE",
"478 301 LINE SMOOTH",
"478 229 OFFCURVE",
"472 130 OFFCURVE",
"442 91 CURVE SMOOTH",
"435 82 OFFCURVE",
"427 77 OFFCURVE",
"416 77 CURVE SMOOTH"
);
}
);
width = 818;
}
);
note = uni022C;
unicode = 022C;
},
{
glyphname = OE;
lastChange = "2017-06-20 16:18:55 +0000";
layers = (
{
layerId = "CBDECE4A-293B-4E5C-B714-A3FD26C7130D";
paths = (
{
closed = 1;
nodes = (
"524 -24 OFFCURVE",
"569 -15 OFFCURVE",
"616 3 CURVE",
"623 1 OFFCURVE",
"630 0 OFFCURVE",
"639 0 CURVE SMOOTH",
"698 0 LINE SMOOTH",
"733 0 OFFCURVE",
"835 1 OFFCURVE",
"905 1 CURVE SMOOTH",
"938 1 OFFCURVE",
"962 2 OFFCURVE",
"978 3 CURVE SMOOTH",
"1006 5 OFFCURVE",
"1029 5 OFFCURVE",
"1048 5 CURVE SMOOTH",
"1060 5 OFFCURVE",
"1068 14 OFFCURVE",
"1068 26 CURVE SMOOTH",
"1068 28 OFFCURVE",
"1068 30 OFFCURVE",
"1067 33 CURVE",
"1066 35 OFFCURVE",
"1066 38 OFFCURVE",
"1065 41 CURVE",
"1062 60 OFFCURVE",
"1047 120 OFFCURVE",
"1036 136 CURVE",
"1034 141 OFFCURVE",
"1032 143 OFFCURVE",
"1029 143 CURVE SMOOTH",
"987 143 OFFCURVE",
"955 142 OFFCURVE",
"933 140 CURVE",
"912 139 OFFCURVE",
"880 138 OFFCURVE",
"808 138 CURVE",
"807 143 OFFCURVE",
"807 149 OFFCURVE",
"807 157 CURVE SMOOTH",
"807 166 OFFCURVE",
"807 172 OFFCURVE",
"808 176 CURVE",
"809 192 OFFCURVE",
"810 204 OFFCURVE",
"810 213 CURVE SMOOTH",
"810 241 OFFCURVE",
"811 249 OFFCURVE",
"826 253 CURVE",
"831 254 OFFCURVE",
"842 254 OFFCURVE",
"861 254 CURVE",
"872 253 OFFCURVE",
"895 253 OFFCURVE",
"928 253 CURVE SMOOTH",
"967 253 OFFCURVE",
"993 255 OFFCURVE",
"1008 258 CURVE",
"1032 260 OFFCURVE",
"1044 267 OFFCURVE",
"1044 278 CURVE SMOOTH",
"1044 281 LINE",
"1040 370 LINE",
"1037 383 OFFCURVE",
"1035 389 OFFCURVE",
"1019 393 CURVE",
"1006 393 LINE",
"975 396 OFFCURVE",
"945 398 OFFCURVE",
"918 398 CURVE SMOOTH",
"829 398 LINE SMOOTH",
"817 398 OFFCURVE",
"813 401 OFFCURVE",
"813 418 CURVE",
"815 443 LINE",
"816 469 OFFCURVE",
"819 489 OFFCURVE",
"824 503 CURVE",
"825 504 OFFCURVE",
"826 507 OFFCURVE",
"828 510 CURVE",
"829 513 OFFCURVE",
"831 515 OFFCURVE",
"833 515 CURVE",
"848 516 OFFCURVE",
"865 517 OFFCURVE",
"884 520 CURVE",
"938 524 LINE",
"979 529 OFFCURVE",
"1013 531 OFFCURVE",
"1040 531 CURVE SMOOTH",
"1045 531 OFFCURVE",
"1049 531 OFFCURVE",
"1051 530 CURVE",
"1057 530 OFFCURVE",
"1061 533 OFFCURVE",
"1063 540 CURVE",
"1063 541 OFFCURVE",
"1063 543 OFFCURVE",
"1064 547 CURVE",
"1064 550 OFFCURVE",
"1064 554 OFFCURVE",
"1063 558 CURVE SMOOTH",
"1055 595 LINE",
"1050 627 OFFCURVE",
"1046 669 OFFCURVE",
"1025 669 CURVE",
"996 672 OFFCURVE",
"955 675 OFFCURVE",
"900 675 CURVE SMOOTH",
"856 675 LINE SMOOTH",
"816 675 OFFCURVE",
"736 674 OFFCURVE",
"676 673 CURVE",
"679 673 OFFCURVE",
"598 668 OFFCURVE",
"594 668 CURVE",
"545 686 OFFCURVE",
"511 695 OFFCURVE",
"453 695 CURVE SMOOTH",
"308 695 OFFCURVE",
"207 667 OFFCURVE",
"144 606 CURVE SMOOTH",
"80 545 OFFCURVE",
"50 450 OFFCURVE",
"50 313 CURVE SMOOTH",
"50 218 OFFCURVE",
"69 143 OFFCURVE",
"108 88 CURVE SMOOTH",
"176 -3 OFFCURVE",
"284 -24 OFFCURVE",
"443 -24 CURVE SMOOTH"
);
},
{
closed = 1;
nodes = (
"417 90 OFFCURVE",
"405 105 OFFCURVE",
"397 137 CURVE SMOOTH",
"386 181 OFFCURVE",
"382 252 OFFCURVE",
"382 321 CURVE SMOOTH",
"382 424 OFFCURVE",
"383 487 OFFCURVE",
"397 530 CURVE SMOOTH",
"405 555 OFFCURVE",
"417 568 OFFCURVE",
"432 568 CURVE SMOOTH",
"440 568 OFFCURVE",
"448 563 OFFCURVE",
"455 553 CURVE",
"477 510 OFFCURVE",
"480 459 OFFCURVE",
"484 362 CURVE",
"484 339 LINE",
"484 303 LINE SMOOTH",
"484 204 OFFCURVE",
"477 143 OFFCURVE",
"455 104 CURVE",
"447 94 OFFCURVE",
"441 90 OFFCURVE",
"432 90 CURVE SMOOTH"
);
}
);
width = 1210;
}
);
note = OE;
unicode = 0152;
},
{
glyphname = P;
lastChange = "2017-08-03 20:20:47 +0000";
layers = (
{
layerId = "CBDECE4A-293B-4E5C-B714-A3FD26C7130D";
paths = (
{
closed = 1;
nodes = (
"172 -5 OFFCURVE",
"209 -4 OFFCURVE",
"255 -4 CURVE",
"266 -3 OFFCURVE",
"287 -3 OFFCURVE",
"316 -3 CURVE SMOOTH",
"356 -3 OFFCURVE",
"371 4 OFFCURVE",
"371 48 CURVE SMOOTH",
"371 62 OFFCURVE",
"371 73 OFFCURVE",
"372 82 CURVE",
"372 90 OFFCURVE",
"372 97 OFFCURVE",
"372 103 CURVE SMOOTH",
"372 120 OFFCURVE",
"372 137 OFFCURVE",
"371 152 CURVE",
"508 152 LINE SMOOTH",
"598 152 OFFCURVE",
"666 173 OFFCURVE",
"711 216 CURVE",
"762 261 OFFCURVE",
"788 335 OFFCURVE",
"788 436 CURVE SMOOTH",
"788 496 OFFCURVE",
"772 544 OFFCURVE",
"741 579 CURVE SMOOTH",
"684 643 OFFCURVE",
"596 666 OFFCURVE",
"512 666 CURVE SMOOTH",
"486 666 OFFCURVE",
"453 665 OFFCURVE",
"413 664 CURVE SMOOTH",
"376 663 LINE SMOOTH",
"349 662 OFFCURVE",
"310 662 OFFCURVE",
"260 662 CURVE SMOOTH",
"225 662 OFFCURVE",
"197 662 OFFCURVE",
"176 663 CURVE",
"61 664 LINE SMOOTH",
"49 664 OFFCURVE",
"35 650 OFFCURVE",
"35 638 CURVE SMOOTH",
"35 418 LINE SMOOTH",
"35 345 OFFCURVE",
"37 276 OFFCURVE",
"38 211 CURVE SMOOTH",
"39 166 OFFCURVE",
"40 114 OFFCURVE",
"40 56 CURVE SMOOTH",
"40 37 OFFCURVE",
"42 23 OFFCURVE",
"45 16 CURVE",
"48 1 OFFCURVE",
"56 -6 OFFCURVE",
"67 -6 CURVE SMOOTH",
"145 -6 LINE"
);
},
{
closed = 1;
nodes = (
"384 263 LINE",
"382 264 OFFCURVE",
"381 264 OFFCURVE",
"380 265 CURVE SMOOTH",
"379 266 OFFCURVE",
"379 266 OFFCURVE",
"379 266 CURVE",
"379 327 OFFCURVE",
"382 376 OFFCURVE",
"384 413 CURVE SMOOTH",
"388 483 OFFCURVE",
"380 530 OFFCURVE",
"396 554 CURVE",
"400 562 OFFCURVE",
"424 556 OFFCURVE",
"432 556 CURVE",
"445 556 OFFCURVE",
"452 547 OFFCURVE",
"459 533 CURVE SMOOTH",
"466 519 OFFCURVE",
"474 479 OFFCURVE",
"474 458 CURVE SMOOTH",
"474 447 LINE SMOOTH",
"474 423 OFFCURVE",
"473 401 OFFCURVE",
"472 382 CURVE SMOOTH",
"468 311 OFFCURVE",
"456 262 OFFCURVE",
"426 262 CURVE SMOOTH",
"397 262 LINE"
);
}
);
width = 793;
}
);
note = P;
unicode = 0050;
},
{
glyphname = Thorn;
lastChange = "2017-06-15 13:29:11 +0000";
layers = (
{
layerId = "CBDECE4A-293B-4E5C-B714-A3FD26C7130D";
paths = (
{
closed = 1;
nodes = (
"165 -19 OFFCURVE",
"231 -19 OFFCURVE",
"278 -16 CURVE",
"338 -16 LINE SMOOTH",
"379 -16 OFFCURVE",
"394 -9 OFFCURVE",
"394 36 CURVE SMOOTH",
"394 65 OFFCURVE",
"394 72 OFFCURVE",
"394 139 CURVE",
"530 139 LINE SMOOTH",
"711 139 OFFCURVE",
"811 217 OFFCURVE",
"811 398 CURVE SMOOTH",
"811 450 OFFCURVE",
"795 491 OFFCURVE",
"763 521 CURVE SMOOTH",
"709 571 OFFCURVE",
"625 593 OFFCURVE",
"534 593 CURVE SMOOTH",
"395 593 LINE",
"395 604 LINE",
"394 607 OFFCURVE",
"394 611 OFFCURVE",
"394 616 CURVE SMOOTH",
"394 668 LINE SMOOTH",
"394 715 OFFCURVE",
"378 720 OFFCURVE",
"338 720 CURVE SMOOTH",
"278 720 LINE",
"266 721 OFFCURVE",
"248 721 OFFCURVE",
"225 721 CURVE",
"201 722 OFFCURVE",
"156 723 OFFCURVE",
"89 723 CURVE SMOOTH",
"78 723 OFFCURVE",
"71 715 OFFCURVE",
"68 703 CURVE",
"65 694 OFFCURVE",
"63 681 OFFCURVE",
"63 663 CURVE SMOOTH",
"63 618 LINE SMOOTH",
"63 605 OFFCURVE",
"63 596 OFFCURVE",
"62 589 CURVE",
"61 554 LINE",
"60 512 LINE SMOOTH",
"59 465 OFFCURVE",
"58 429 OFFCURVE",
"58 404 CURVE SMOOTH",
"58 353 LINE",
"59 261 LINE SMOOTH",
"60 185 OFFCURVE",
"62 131 OFFCURVE",
"63 98 CURVE SMOOTH",
"63 43 LINE SMOOTH",
"63 24 OFFCURVE",
"65 10 OFFCURVE",
"68 3 CURVE",
"71 -10 OFFCURVE",
"78 -19 OFFCURVE",
"89 -19 CURVE SMOOTH"
);
},
{
closed = 1;
nodes = (
"433 234 OFFCURVE",
"424 234 OFFCURVE",
"420 235 CURVE",
"413 235 OFFCURVE",
"409 235 OFFCURVE",
"408 236 CURVE",
"406 236 OFFCURVE",
"404 236 OFFCURVE",
"403 237 CURVE SMOOTH",
"402 238 OFFCURVE",
"401 238 OFFCURVE",
"401 238 CURVE",
"402 279 OFFCURVE",
"403 308 OFFCURVE",
"403 325 CURVE SMOOTH",
"404 368 LINE SMOOTH",
"404 389 OFFCURVE",
"407 459 OFFCURVE",
"415 488 CURVE",
"416 489 OFFCURVE",
"417 491 OFFCURVE",
"418 494 CURVE SMOOTH",
"419 497 OFFCURVE",
"421 499 OFFCURVE",
"423 499 CURVE SMOOTH",
"435 499 OFFCURVE",
"445 497 OFFCURVE",
"453 493 CURVE",
"482 477 OFFCURVE",
"493 443 OFFCURVE",
"493 428 CURVE SMOOTH",
"493 419 LINE SMOOTH",
"493 371 OFFCURVE",
"490 311 OFFCURVE",
"479 274 CURVE SMOOTH",
"472 250 OFFCURVE",
"461 234 OFFCURVE",
"446 234 CURVE SMOOTH"
);
}
);
width = 828;
}
);
note = Thorn;
unicode = 00DE;
},
{
glyphname = Q;
lastChange = "2017-08-15 19:27:50 +0000";
layers = (
{
layerId = "CBDECE4A-293B-4E5C-B714-A3FD26C7130D";
paths = (
{
closed = 1;
nodes = (
"463 -214 LINE SMOOTH",
"466 -214 OFFCURVE",
"467 -212 OFFCURVE",
"467 -210 CURVE",
"471 -210 OFFCURVE",
"475 -209 OFFCURVE",
"481 -208 CURVE SMOOTH",
"497 -205 OFFCURVE",
"513 -200 OFFCURVE",
"529 -194 CURVE",
"532 -192 OFFCURVE",
"535 -191 OFFCURVE",
"538 -191 CURVE",
"540 -191 OFFCURVE",
"541 -191 OFFCURVE",
"542 -191 CURVE",
"548 -189 OFFCURVE",
"555 -187 OFFCURVE",
"561 -184 CURVE",
"580 -179 LINE",
"583 -177 OFFCURVE",
"586 -175 OFFCURVE",
"590 -172 CURVE",
"594 -171 OFFCURVE",
"598 -167 OFFCURVE",
"602 -164 CURVE",
"631 -150 LINE",
"653 -134 OFFCURVE",
"663 -126 OFFCURVE",
"663 -114 CURVE SMOOTH",
"663 -96 OFFCURVE",
"642 -65 OFFCURVE",
"598 -9 CURVE",
"717 31 OFFCURVE",
"781 132 OFFCURVE",
"781 363 CURVE SMOOTH",
"781 508 OFFCURVE",
"700 622 OFFCURVE",
"577 665 CURVE SMOOTH",
"528 682 OFFCURVE",
"474 689 OFFCURVE",
"418 689 CURVE SMOOTH",
"275 689 OFFCURVE",
"176 663 OFFCURVE",
"113 604 CURVE SMOOTH",
"49 544 OFFCURVE",
"20 423 OFFCURVE",
"20 322 CURVE SMOOTH",
"20 211 OFFCURVE",
"34 146 OFFCURVE",
"62 99 CURVE",
"110 13 OFFCURVE",
"203 -23 OFFCURVE",
"321 -29 CURVE",
"328 -39 OFFCURVE",
"333 -49 OFFCURVE",
"336 -55 CURVE",
"414 -181 LINE",
"418 -184 LINE",
"419 -185 OFFCURVE",
"420 -186 OFFCURVE",
"423 -186 CURVE",
"426 -191 LINE",
"439 -204 OFFCURVE",
"447 -210 OFFCURVE",
"450 -211 CURVE",
"454 -213 OFFCURVE",
"456 -214 OFFCURVE",
"457 -214 CURVE SMOOTH",
"459 -214 LINE"
);
},
{
closed = 1;
nodes = (
"393 91 OFFCURVE",
"376 105 OFFCURVE",
"363 136 CURVE SMOOTH",
"350 168 OFFCURVE",
"350 199 OFFCURVE",
"347 230 CURVE",
"345 253 OFFCURVE",
"344 280 OFFCURVE",
"344 313 CURVE SMOOTH",
"344 363 OFFCURVE",
"345 398 OFFCURVE",
"347 422 CURVE",
"350 455 OFFCURVE",
"353 486 OFFCURVE",
"363 514 CURVE",
"376 538 OFFCURVE",
"394 551 OFFCURVE",
"413 551 CURVE SMOOTH",
"424 551 OFFCURVE",
"434 546 OFFCURVE",
"444 535 CURVE",
"479 489 OFFCURVE",
"478 447 OFFCURVE",
"485 353 CURVE",
"485 330 LINE",
"485 296 LINE SMOOTH",
"485 201 OFFCURVE",
"476 146 OFFCURVE",
"444 103 CURVE",
"434 95 OFFCURVE",
"424 91 OFFCURVE",
"413 91 CURVE SMOOTH"
);
}
);
width = 801;
}
);
note = Q;
unicode = 0051;
},
{
glyphname = R;
lastChange = "2017-08-22 22:11:05 +0000";
layers = (
{
layerId = "CBDECE4A-293B-4E5C-B714-A3FD26C7130D";
paths = (
{
closed = 1;
nodes = (
"573 -44 LINE SMOOTH",
"575 -44 OFFCURVE",
"575 -42 OFFCURVE",
"576 -40 CURVE",
"580 -40 LINE SMOOTH",
"584 -40 OFFCURVE",
"589 -38 OFFCURVE",
"593 -35 CURVE",
"601 -34 OFFCURVE",
"606 -33 OFFCURVE",
"610 -30 CURVE",
"628 -25 OFFCURVE",
"638 -22 OFFCURVE",
"641 -19 CURVE SMOOTH",
"643 -17 OFFCURVE",
"646 -18 OFFCURVE",
"646 -17 CURVE SMOOTH",
"646 -16 OFFCURVE",
"647 -16 OFFCURVE",
"648 -16 CURVE",
"663 -12 OFFCURVE",
"676 -8 OFFCURVE",
"689 1 CURVE SMOOTH",
"723 25 LINE",
"728 30 OFFCURVE",
"735 34 OFFCURVE",
"746 39 CURVE",
"756 44 OFFCURVE",
"764 49 OFFCURVE",
"773 55 CURVE SMOOTH",
"794 69 OFFCURVE",
"803 79 OFFCURVE",
"803 92 CURVE SMOOTH",
"803 96 OFFCURVE",
"801 102 OFFCURVE",
"796 111 CURVE",
"791 124 OFFCURVE",
"775 141 OFFCURVE",
"757 168 CURVE SMOOTH",
"726 214 LINE",
"723 218 OFFCURVE",
"722 221 OFFCURVE",
"718 225 CURVE SMOOTH",
"715 228 OFFCURVE",
"713 230 OFFCURVE",
"711 232 CURVE",
"698 248 LINE SMOOTH",
"692 255 OFFCURVE",
"687 254 OFFCURVE",
"685 260 CURVE SMOOTH",
"682 270 OFFCURVE",
"674 282 OFFCURVE",
"669 284 CURVE",
"689 293 OFFCURVE",
"707 305 OFFCURVE",
"724 321 CURVE SMOOTH",
"759 354 OFFCURVE",
"779 400 OFFCURVE",
"779 458 CURVE SMOOTH",
"779 509 OFFCURVE",
"760 556 OFFCURVE",
"722 588 CURVE",
"680 625 OFFCURVE",
"616 647 OFFCURVE",
"534 650 CURVE",
"514 650 OFFCURVE",
"450 651 OFFCURVE",
"398 652 CURVE SMOOTH",
"361 653 LINE SMOOTH",
"328 654 OFFCURVE",
"303 655 OFFCURVE",
"286 655 CURVE SMOOTH",
"212 655 OFFCURVE",
"138 658 OFFCURVE",
"66 658 CURVE SMOOTH",
"51 658 OFFCURVE",
"42 647 OFFCURVE",
"37 623 CURVE",
"32 607 OFFCURVE",
"30 579 OFFCURVE",
"30 545 CURVE SMOOTH",
"30 520 OFFCURVE",
"31 500 OFFCURVE",
"33 484 CURVE",
"35 457 OFFCURVE",
"36 438 OFFCURVE",
"36 424 CURVE",
"35 413 LINE",
"33 396 LINE",
"33 387 OFFCURVE",
"33 382 OFFCURVE",
"32 378 CURVE",
"32 373 OFFCURVE",
"32 370 OFFCURVE",
"32 369 CURVE",
"31 368 OFFCURVE",
"31 367 OFFCURVE",
"31 366 CURVE SMOOTH",
"31 343 OFFCURVE",
"29 319 OFFCURVE",
"33 293 CURVE SMOOTH",
"36 272 LINE SMOOTH",
"38 259 OFFCURVE",
"39 241 OFFCURVE",
"39 218 CURVE",
"41 183 LINE SMOOTH",
"43 141 OFFCURVE",
"47 112 OFFCURVE",
"48 95 CURVE",
"47 104 OFFCURVE",
"47 69 OFFCURVE",
"51 30 CURVE SMOOTH",
"52 19 OFFCURVE",
"54 12 OFFCURVE",
"54 9 CURVE SMOOTH",
"54 5 OFFCURVE",
"54 3 OFFCURVE",
"55 1 CURVE",
"55 0 OFFCURVE",
"55 -1 OFFCURVE",
"55 -3 CURVE",
"58 -10 LINE",
"92 -22 LINE",
"101 -22 LINE",
"119 -22 LINE",
"139 -22 LINE",
"143 -23 OFFCURVE",
"148 -24 OFFCURVE",
"155 -24 CURVE SMOOTH",
"201 -24 OFFCURVE",
"310 -17 OFFCURVE",
"356 -13 CURVE",
"356 -13 OFFCURVE",
"356 -13 OFFCURVE",
"357 -13 CURVE",
"358 -14 OFFCURVE",
"359 -14 OFFCURVE",
"360 -15 CURVE",
"367 -15 LINE SMOOTH",
"370 -15 OFFCURVE",
"374 -12 OFFCURVE",
"375 -3 CURVE",
"378 14 OFFCURVE",
"380 38 OFFCURVE",
"380 65 CURVE SMOOTH",
"380 95 OFFCURVE",
"380 138 OFFCURVE",
"383 155 CURVE SMOOTH",
"384 161 OFFCURVE",
"386 166 OFFCURVE",
"389 166 CURVE SMOOTH",
"392 166 OFFCURVE",
"394 164 OFFCURVE",
"397 160 CURVE",
"400 155 OFFCURVE",
"403 150 OFFCURVE",
"409 146 CURVE",
"416 137 OFFCURVE",
"422 128 OFFCURVE",
"425 119 CURVE",
"523 -12 LINE",
"523 -12 OFFCURVE",
"524 -13 OFFCURVE",
"528 -16 CURVE",
"529 -16 LINE",
"530 -16 OFFCURVE",
"531 -17 OFFCURVE",
"532 -18 CURVE",
"533 -18 OFFCURVE",
"533 -21 OFFCURVE",
"536 -23 CURVE",
"542 -30 OFFCURVE",
"550 -37 OFFCURVE",
"559 -43 CURVE",
"561 -44 OFFCURVE",
"563 -44 OFFCURVE",
"567 -44 CURVE SMOOTH",
"569 -44 LINE"
);
},
{
closed = 1;
nodes = (
"371 306 LINE",
"370 306 OFFCURVE",
"369 308 OFFCURVE",
"369 309 CURVE SMOOTH",
"369 333 OFFCURVE",
"369 364 OFFCURVE",
"370 402 CURVE SMOOTH",
"371 431 LINE SMOOTH",
"372 448 OFFCURVE",
"373 463 OFFCURVE",
"375 475 CURVE",
"376 506 OFFCURVE",
"379 528 OFFCURVE",
"385 543 CURVE",
"386 550 OFFCURVE",
"389 555 OFFCURVE",
"392 555 CURVE SMOOTH",
"403 555 OFFCURVE",
"414 551 OFFCURVE",
"421 546 CURVE",
"451 527 OFFCURVE",
"450 485 OFFCURVE",
"450 455 CURVE SMOOTH",
"450 445 LINE SMOOTH",
"450 426 OFFCURVE",
"449 410 OFFCURVE",
"448 396 CURVE SMOOTH",
"445 350 OFFCURVE",
"432 305 OFFCURVE",
"392 305 CURVE SMOOTH",
"378 305 LINE"
);
}
);
width = 808;
}
);
note = R;
unicode = 0052;
},
{
glyphname = S;
lastChange = "2017-08-22 22:05:45 +0000";
layers = (
{
layerId = "CBDECE4A-293B-4E5C-B714-A3FD26C7130D";
paths = (
{
closed = 1;
nodes = (
"334 -34 OFFCURVE",
"382 -27 OFFCURVE",
"423 -12 CURVE",
"468 4 OFFCURVE",
"507 27 OFFCURVE",
"540 60 CURVE",
"570 97 OFFCURVE",
"587 140 OFFCURVE",
"593 189 CURVE",
"595 238 OFFCURVE",
"584 293 OFFCURVE",
"546 331 CURVE SMOOTH",
"510 367 OFFCURVE",
"471 389 OFFCURVE",
"425 405 CURVE",
"423 406 OFFCURVE",
"417 409 OFFCURVE",
"406 412 CURVE",
"397 415 OFFCURVE",
"389 421 OFFCURVE",
"380 426 CURVE",
"358 437 OFFCURVE",
"349 453 OFFCURVE",
"349 469 CURVE SMOOTH",
"349 496 OFFCURVE",
"450 487 OFFCURVE",
"468 487 CURVE SMOOTH",
"471 487 LINE",
"482 487 LINE",
"569 476 LINE",
"584 487 OFFCURVE",
"589 507 OFFCURVE",
"589 540 CURVE SMOOTH",
"589 559 OFFCURVE",
"587 576 OFFCURVE",
"585 594 CURVE",
"584 603 OFFCURVE",
"582 613 OFFCURVE",
"582 625 CURVE",
"580 647 LINE",
"579 647 LINE",
"578 647 LINE SMOOTH",
"577 647 OFFCURVE",
"574 648 OFFCURVE",
"571 655 CURVE",
"570 656 OFFCURVE",
"569 657 OFFCURVE",
"567 658 CURVE",
"566 658 OFFCURVE",
"565 659 OFFCURVE",
"564 659 CURVE SMOOTH",
"554 659 OFFCURVE",
"539 659 OFFCURVE",
"517 664 CURVE SMOOTH",
"491 670 LINE",
"478 671 OFFCURVE",
"470 673 OFFCURVE",
"464 676 CURVE",
"408 684 OFFCURVE",
"374 687 OFFCURVE",
"343 687 CURVE SMOOTH",
"288 687 OFFCURVE",
"241 681 OFFCURVE",
"195 668 CURVE SMOOTH",
"94 639 OFFCURVE",
"21 576 OFFCURVE",
"21 458 CURVE SMOOTH",
"21 358 OFFCURVE",
"112 267 OFFCURVE",
"204 256 CURVE SMOOTH",
"269 248 OFFCURVE",
"288 201 OFFCURVE",
"236 182 CURVE SMOOTH",
"222 177 OFFCURVE",
"207 175 OFFCURVE",
"193 175 CURVE",
"176 176 LINE",
"146 176 LINE SMOOTH",
"120 176 OFFCURVE",
"81 190 OFFCURVE",
"34 221 CURVE",
"26 216 OFFCURVE",
"21 210 OFFCURVE",
"20 204 CURVE",
"20 201 LINE",
"31 112 OFFCURVE",
"38 75 OFFCURVE",
"49 27 CURVE",
"107 -12 OFFCURVE",
"188 -34 OFFCURVE",
"278 -34 CURVE SMOOTH"
);
}
);
width = 613;
}
);
note = S;
unicode = 0053;
},
{
glyphname = Scedilla;
lastChange = "2017-08-03 01:46:15 +0000";
layers = (
{
layerId = "CBDECE4A-293B-4E5C-B714-A3FD26C7130D";
paths = (
{
closed = 1;
nodes = (
"567 371 OFFCURVE",
"524 395 OFFCURVE",
"475 409 CURVE",
"472 410 OFFCURVE",
"466 413 OFFCURVE",
"456 417 CURVE",
"446 420 OFFCURVE",
"436 425 OFFCURVE",
"426 430 CURVE",
"405 444 OFFCURVE",
"395 459 OFFCURVE",
"395 475 CURVE SMOOTH",
"395 476 OFFCURVE",
"399 478 OFFCURVE",
"407 479 CURVE",
"440 486 LINE",
"469 491 OFFCURVE",
"495 493 OFFCURVE",
"518 493 CURVE SMOOTH",
"532 493 LINE",
"542 493 LINE",
"635 481 LINE",
"652 493 OFFCURVE",
"656 513 OFFCURVE",
"656 546 CURVE SMOOTH",
"656 565 OFFCURVE",
"655 583 OFFCURVE",
"653 600 CURVE",
"651 611 OFFCURVE",
"650 622 OFFCURVE",
"650 632 CURVE",
"648 653 LINE",
"647 653 LINE",
"646 653 LINE SMOOTH",
"643 653 OFFCURVE",
"641 655 OFFCURVE",
"638 660 CURVE",
"637 661 OFFCURVE",
"635 663 OFFCURVE",
"634 665 CURVE",
"632 667 OFFCURVE",
"631 668 OFFCURVE",
"630 668 CURVE SMOOTH",
"619 668 OFFCURVE",
"603 670 OFFCURVE",
"580 674 CURVE SMOOTH",
"550 680 LINE",
"539 681 OFFCURVE",
"531 683 OFFCURVE",
"525 684 CURVE",
"466 691 OFFCURVE",
"420 695 OFFCURVE",
"387 695 CURVE SMOOTH",
"330 695 OFFCURVE",
"278 689 OFFCURVE",
"231 678 CURVE SMOOTH",
"122 650 OFFCURVE",
"46 583 OFFCURVE",
"46 463 CURVE SMOOTH",
"46 414 OFFCURVE",
"62 350 OFFCURVE",
"130 301 CURVE",
"163 279 OFFCURVE",
"199 258 OFFCURVE",
"240 239 CURVE SMOOTH",
"293 213 LINE",
"290 204 OFFCURVE",
"284 197 OFFCURVE",
"275 194 CURVE SMOOTH",
"259 189 OFFCURVE",
"243 187 OFFCURVE",
"228 187 CURVE",
"212 188 LINE",
"188 188 LINE SMOOTH",
"132 188 OFFCURVE",
"89 203 OFFCURVE",
"38 234 CURVE",
"31 230 OFFCURVE",
"26 224 OFFCURVE",
"25 216 CURVE",
"25 213 LINE",
"37 124 OFFCURVE",
"42 86 OFFCURVE",
"58 38 CURVE",
"89 19 OFFCURVE",
"128 3 OFFCURVE",
"175 -8 CURVE SMOOTH",
"208 -15 OFFCURVE",
"237 -19 OFFCURVE",
"262 -21 CURVE",
"253 -88 LINE",
"251 -128 LINE",
"264 -122 OFFCURVE",
"278 -119 OFFCURVE",
"293 -119 CURVE SMOOTH",
"332 -119 OFFCURVE",
"356 -138 OFFCURVE",
"356 -173 CURVE SMOOTH",
"356 -206 OFFCURVE",
"336 -239 OFFCURVE",
"291 -239 CURVE SMOOTH",
"266 -239 OFFCURVE",
"243 -234 OFFCURVE",
"222 -225 CURVE",
"221 -226 OFFCURVE",
"220 -229 OFFCURVE",
"218 -234 CURVE SMOOTH",
"216 -239 OFFCURVE",
"214 -246 OFFCURVE",
"211 -253 CURVE",
"201 -308 LINE",
"207 -315 OFFCURVE",
"216 -321 OFFCURVE",
"227 -325 CURVE SMOOTH",
"250 -333 OFFCURVE",
"271 -338 OFFCURVE",
"291 -338 CURVE SMOOTH",
"308 -338 LINE SMOOTH",
"477 -338 OFFCURVE",
"531 -271 OFFCURVE",
"531 -184 CURVE SMOOTH",
"531 -125 OFFCURVE",
"479 -75 OFFCURVE",
"366 -58 CURVE",
"371 -22 LINE",
"444 -15 OFFCURVE",
"530 6 OFFCURVE",
"595 71 CURVE",
"628 108 OFFCURVE",
"647 151 OFFCURVE",
"652 201 CURVE",
"655 212 OFFCURVE",
"656 223 OFFCURVE",
"656 233 CURVE SMOOTH",
"656 266 OFFCURVE",
"636 304 OFFCURVE",
"603 336 CURVE SMOOTH"
);
}
);
width = 681;
}
);
note = Scedilla;
unicode = 015E;
},
{
glyphname = uni1E9E;
lastChange = "2017-06-11 23:28:21 +0000";
layers = (
{
layerId = "CBDECE4A-293B-4E5C-B714-A3FD26C7130D";
paths = (
{
closed = 1;
nodes = (
"449 -13 LINE SMOOTH",
"547 -13 OFFCURVE",
"628 -4 OFFCURVE",
"693 13 CURVE SMOOTH",
"804 41 OFFCURVE",
"846 95 OFFCURVE",
"846 150 CURVE SMOOTH",
"846 161 OFFCURVE",
"845 167 OFFCURVE",
"844 171 CURVE",
"837 238 OFFCURVE",
"825 281 OFFCURVE",
"798 313 CURVE SMOOTH",
"771 346 OFFCURVE",
"730 366 OFFCURVE",
"666 378 CURVE",
"663 383 LINE",
"667 387 OFFCURVE",
"672 390 OFFCURVE",
"678 391 CURVE",
"680 392 OFFCURVE",
"683 393 OFFCURVE",
"686 394 CURVE SMOOTH",
"689 395 OFFCURVE",
"693 397 OFFCURVE",
"698 398 CURVE",
"738 423 OFFCURVE",
"756 458 OFFCURVE",
"756 506 CURVE SMOOTH",
"756 553 OFFCURVE",
"739 592 OFFCURVE",
"704 621 CURVE SMOOTH",
"647 668 OFFCURVE",
"581 676 OFFCURVE",
"496 688 CURVE SMOOTH",
"458 694 LINE",
"435 694 LINE SMOOTH",
"429 694 OFFCURVE",
"425 694 OFFCURVE",
"424 695 CURVE",
"418 695 LINE SMOOTH",
"415 695 OFFCURVE",
"413 695 OFFCURVE",
"411 696 CURVE",
"400 696 LINE",
"378 696 LINE SMOOTH",
"302 696 OFFCURVE",
"259 694 OFFCURVE",
"218 685 CURVE SMOOTH",
"166 673 OFFCURVE",
"127 648 OFFCURVE",
"100 604 CURVE SMOOTH",
"69 557 OFFCURVE",
"54 483 OFFCURVE",
"54 383 CURVE SMOOTH",
"54 364 OFFCURVE",
"55 335 OFFCURVE",
"58 296 CURVE SMOOTH",
"59 283 OFFCURVE",
"63 240 OFFCURVE",
"63 208 CURVE SMOOTH",
"63 190 LINE",
"63 158 LINE",
"60 142 OFFCURVE",
"60 113 OFFCURVE",
"60 80 CURVE SMOOTH",
"60 46 LINE",
"59 39 OFFCURVE",
"59 32 OFFCURVE",
"59 25 CURVE SMOOTH",
"59 20 OFFCURVE",
"63 16 OFFCURVE",
"70 13 CURVE",
"79 10 OFFCURVE",
"91 8 OFFCURVE",
"108 8 CURVE",
"126 6 OFFCURVE",
"150 5 OFFCURVE",
"180 5 CURVE SMOOTH",
"290 5 LINE",
"311 5 LINE",
"328 6 LINE",
"331 7 OFFCURVE",
"337 8 OFFCURVE",
"345 9 CURVE SMOOTH",
"360 11 OFFCURVE",
"370 9 OFFCURVE",
"383 25 CURVE",
"390 46 LINE",
"390 72 OFFCURVE",
"391 96 OFFCURVE",
"393 118 CURVE",
"394 190 LINE",
"394 241 LINE",
"393 255 LINE",
"393 278 LINE",
"391 295 OFFCURVE",
"390 308 OFFCURVE",
"390 316 CURVE",
"393 375 LINE",
"393 383 LINE",
"393 398 LINE",
"393 418 LINE",
"392 421 OFFCURVE",
"391 427 OFFCURVE",
"391 436 CURVE SMOOTH",
"391 451 LINE",
"391 458 LINE SMOOTH",
"391 475 OFFCURVE",
"391 496 OFFCURVE",
"398 508 CURVE",
"403 521 OFFCURVE",
"415 528 OFFCURVE",
"434 528 CURVE SMOOTH",
"459 528 OFFCURVE",
"479 526 OFFCURVE",
"494 523 CURVE",
"522 520 OFFCURVE",
"536 512 OFFCURVE",
"536 500 CURVE SMOOTH",
"536 491 OFFCURVE",
"535 483 OFFCURVE",
"533 478 CURVE",
"526 467 OFFCURVE",
"518 460 OFFCURVE",
"508 458 CURVE",
"495 453 LINE",
"494 453 OFFCURVE",
"492 452 OFFCURVE",
"490 451 CURVE",
"479 446 LINE",
"476 443 OFFCURVE",
"473 441 OFFCURVE",
"468 439 CURVE",
"465 438 OFFCURVE",
"461 436 OFFCURVE",
"456 433 CURVE",
"455 313 LINE",
"496 310 OFFCURVE",
"526 303 OFFCURVE",
"563 280 CURVE",
"574 278 OFFCURVE",
"579 273 OFFCURVE",
"579 266 CURVE SMOOTH",
"579 251 OFFCURVE",
"570 238 OFFCURVE",
"554 234 CURVE",
"536 231 OFFCURVE",
"518 229 OFFCURVE",
"500 228 CURVE",
"480 225 LINE",
"446 219 LINE",
"446 -13 LINE"
);
}
);
width = 885;
}
);
note = uni1E9E;
unicode = 1E9E;
},
{
glyphname = uni018F;
lastChange = "2017-06-11 23:28:21 +0000";
layers = (
{
layerId = "CBDECE4A-293B-4E5C-B714-A3FD26C7130D";
paths = (
{
closed = 1;
nodes = (
"573 -14 LINE SMOOTH",
"618 -9 OFFCURVE",
"660 10 OFFCURVE",
"697 42 CURVE SMOOTH",
"771 105 OFFCURVE",
"814 205 OFFCURVE",
"814 305 CURVE",
"813 388 LINE",
"813 437 OFFCURVE",
"801 483 OFFCURVE",
"778 525 CURVE SMOOTH",
"730 609 OFFCURVE",
"644 665 OFFCURVE",
"545 676 CURVE SMOOTH",
"454 686 LINE",
"321 688 LINE SMOOTH",
"260 688 OFFCURVE",
"150 674 OFFCURVE",
"95 661 CURVE",
"78 638 LINE",
"78 493 LINE",
"94 475 LINE",
"120 480 LINE SMOOTH",
"169 491 OFFCURVE",
"208 497 OFFCURVE",
"236 498 CURVE SMOOTH",
"308 503 LINE",
"329 503 LINE",
"343 500 OFFCURVE",
"352 499 OFFCURVE",
"357 498 CURVE",
"360 497 OFFCURVE",
"367 496 OFFCURVE",
"380 494 CURVE",
"392 491 OFFCURVE",
"403 488 OFFCURVE",
"413 483 CURVE",
"448 470 OFFCURVE",
"463 453 OFFCURVE",
"468 426 CURVE",
"473 386 LINE",
"474 355 LINE",
"433 353 LINE",
"311 351 LINE",
"65 353 LINE",
"46 333 LINE",
"46 235 LINE SMOOTH",
"46 188 OFFCURVE",
"59 145 OFFCURVE",
"85 107 CURVE SMOOTH",
"136 30 OFFCURVE",
"236 -18 OFFCURVE",
"368 -21 CURVE SMOOTH",
"494 -24 LINE"
);
},
{
closed = 1;
nodes = (
"415 73 OFFCURVE",
"403 90 OFFCURVE",
"396 125 CURVE SMOOTH",
"389 162 OFFCURVE",
"385 198 OFFCURVE",
"384 234 CURVE",
"478 241 LINE",
"478 225 OFFCURVE",
"476 208 OFFCURVE",
"473 189 CURVE SMOOTH",
"467 154 LINE SMOOTH",
"465 141 OFFCURVE",
"463 128 OFFCURVE",
"461 117 CURVE SMOOTH",
"456 93 OFFCURVE",
"446 73 OFFCURVE",
"430 73 CURVE SMOOTH"
);
}
);
width = 859;
}
);
note = uni018F;
unicode = 018F;
},
{
glyphname = T;
lastChange = "2017-08-04 01:27:13 +0000";
layers = (
{
layerId = "CBDECE4A-293B-4E5C-B714-A3FD26C7130D";
paths = (
{
closed = 1;
nodes = (
"247 -10 OFFCURVE",
"271 -10 OFFCURVE",
"283 -9 CURVE",
"386 -7 LINE",
"397 -6 OFFCURVE",
"415 -5 OFFCURVE",
"441 -5 CURVE",
"464 -4 LINE",
"468 -3 OFFCURVE",
"473 -2 OFFCURVE",
"482 1 CURVE",
"492 7 OFFCURVE",
"496 21 OFFCURVE",
"496 43 CURVE SMOOTH",
"496 137 LINE",
"497 149 OFFCURVE",
"500 190 OFFCURVE",
"501 216 CURVE SMOOTH",
"502 246 LINE SMOOTH",
"504 310 OFFCURVE",
"506 352 OFFCURVE",
"506 371 CURVE",
"507 375 OFFCURVE",
"507 384 OFFCURVE",
"507 394 CURVE SMOOTH",
"507 426 LINE",
"507 447 LINE SMOOTH",
"507 447 OFFCURVE",
"507 447 OFFCURVE",
"509 447 CURVE SMOOTH",
"509 447 OFFCURVE",
"509 447 OFFCURVE",
"509 447 CURVE",
"510 447 OFFCURVE",
"513 447 OFFCURVE",
"518 447 CURVE SMOOTH",
"558 447 LINE",
"569 447 OFFCURVE",
"576 447 OFFCURVE",
"612 447 CURVE",
"644 447 LINE SMOOTH",
"656 447 OFFCURVE",
"667 447 OFFCURVE",
"667 465 CURVE SMOOTH",
"667 627 LINE SMOOTH",
"667 634 OFFCURVE",
"667 638 OFFCURVE",
"667 642 CURVE SMOOTH",
"667 647 OFFCURVE",
"657 651 OFFCURVE",
"645 653 CURVE",
"639 654 OFFCURVE",
"634 654 OFFCURVE",
"631 654 CURVE",
"623 655 OFFCURVE",
"608 655 OFFCURVE",
"581 655 CURVE SMOOTH",
"231 655 LINE",
"196 656 LINE",
"187 657 OFFCURVE",
"175 657 OFFCURVE",
"158 657 CURVE SMOOTH",
"55 657 LINE SMOOTH",
"42 657 OFFCURVE",
"32 656 OFFCURVE",
"25 654 CURVE SMOOTH",
"15 651 OFFCURVE",
"6 646 OFFCURVE",
"6 638 CURVE SMOOTH",
"6 628 LINE",
"6 614 LINE",
"5 610 OFFCURVE",
"5 605 OFFCURVE",
"5 599 CURVE SMOOTH",
"5 585 LINE SMOOTH",
"5 548 OFFCURVE",
"7 519 OFFCURVE",
"9 501 CURVE SMOOTH",
"13 465 OFFCURVE",
"24 447 OFFCURVE",
"41 447 CURVE SMOOTH",
"178 447 LINE",
"181 447 LINE",
"181 395 OFFCURVE",
"181 358 OFFCURVE",
"180 336 CURVE SMOOTH",
"177 265 OFFCURVE",
"177 182 OFFCURVE",
"177 127 CURVE SMOOTH",
"177 71 OFFCURVE",
"182 31 OFFCURVE",
"192 9 CURVE",
"198 -3 OFFCURVE",
"204 -10 OFFCURVE",
"213 -10 CURVE SMOOTH"
);
}
);
width = 672;
}
);
note = T;
unicode = 0054;
},
{
glyphname = Tbar;
lastChange = "2017-06-11 23:28:21 +0000";
layers = (
{
layerId = "CBDECE4A-293B-4E5C-B714-A3FD26C7130D";
paths = (
{
closed = 1;
nodes = (
"256 -1 OFFCURVE",
"280 -1 OFFCURVE",
"293 0 CURVE",
"398 1 LINE",
"409 2 OFFCURVE",
"427 3 OFFCURVE",
"453 3 CURVE",
"478 4 LINE",
"481 5 OFFCURVE",
"487 7 OFFCURVE",
"496 10 CURVE",
"505 16 OFFCURVE",
"510 30 OFFCURVE",
"510 53 CURVE SMOOTH",
"510 148 LINE",
"513 189 LINE",
"523 188 OFFCURVE",
"545 188 OFFCURVE",
"579 188 CURVE SMOOTH",
"603 188 OFFCURVE",
"608 203 OFFCURVE",
"608 230 CURVE SMOOTH",
"608 248 LINE",
"608 259 LINE",
"608 268 LINE",
"607 269 OFFCURVE",
"606 272 OFFCURVE",
"606 275 CURVE",
"605 305 LINE",
"605 322 OFFCURVE",
"579 324 OFFCURVE",
"539 324 CURVE SMOOTH",
"519 324 LINE",
"521 389 LINE",
"521 423 LINE",
"521 438 LINE SMOOTH",
"521 439 OFFCURVE",
"521 441 OFFCURVE",
"522 442 CURVE SMOOTH",
"523 443 OFFCURVE",
"523 443 OFFCURVE",
"523 444 CURVE",
"524 447 OFFCURVE",
"527 448 OFFCURVE",
"533 448 CURVE SMOOTH",
"563 448 LINE",
"571 447 OFFCURVE",
"583 446 OFFCURVE",
"598 446 CURVE SMOOTH",
"663 446 LINE SMOOTH",
"676 446 OFFCURVE",
"688 448 OFFCURVE",
"688 463 CURVE SMOOTH",
"688 628 LINE SMOOTH",
"688 634 OFFCURVE",
"688 639 OFFCURVE",
"687 642 CURVE SMOOTH",
"685 648 OFFCURVE",
"677 652 OFFCURVE",
"665 653 CURVE",
"659 654 OFFCURVE",
"654 654 OFFCURVE",
"651 655 CURVE",
"643 656 OFFCURVE",
"626 656 OFFCURVE",
"600 656 CURVE SMOOTH",
"240 656 LINE",
"203 657 LINE",
"194 658 OFFCURVE",
"182 658 OFFCURVE",
"165 658 CURVE SMOOTH",
"89 658 LINE SMOOTH",
"76 658 OFFCURVE",
"66 657 OFFCURVE",
"59 655 CURVE SMOOTH",
"48 652 OFFCURVE",
"39 646 OFFCURVE",
"39 638 CURVE SMOOTH",
"39 629 LINE",
"39 614 LINE",
"38 610 OFFCURVE",
"38 605 OFFCURVE",
"38 598 CURVE SMOOTH",
"38 584 LINE SMOOTH",
"38 547 OFFCURVE",
"40 518 OFFCURVE",
"43 498 CURVE SMOOTH",
"48 463 OFFCURVE",
"58 443 OFFCURVE",
"75 443 CURVE SMOOTH",
"186 443 LINE",
"189 439 LINE",
"189 390 OFFCURVE",
"189 354 OFFCURVE",
"188 330 CURVE",
"188 328 LINE",
"123 328 LINE SMOOTH",
"120 328 OFFCURVE",
"113 326 OFFCURVE",
"103 323 CURVE",
"102 322 OFFCURVE",
"93 314 OFFCURVE",
"93 310 CURVE SMOOTH",
"93 297 OFFCURVE",
"93 288 OFFCURVE",
"94 283 CURVE",
"94 261 LINE",
"94 238 LINE",
"94 211 LINE SMOOTH",
"94 206 OFFCURVE",
"97 201 OFFCURVE",
"103 198 CURVE SMOOTH",
"113 193 OFFCURVE",
"130 191 OFFCURVE",
"154 191 CURVE SMOOTH",
"185 191 LINE",
"185 138 LINE SMOOTH",
"185 80 OFFCURVE",
"190 40 OFFCURVE",
"200 18 CURVE",
"205 5 OFFCURVE",
"212 -1 OFFCURVE",
"221 -1 CURVE SMOOTH"
);
}
);
width = 723;
}
);
note = Tbar;
unicode = 0166;
},
{
glyphname = uni0162;
lastChange = "2017-07-18 18:43:53 +0000";
layers = (
{
layerId = "CBDECE4A-293B-4E5C-B714-A3FD26C7130D";
paths = (
{
closed = 1;
nodes = (
"675 651 OFFCURVE",
"671 652 OFFCURVE",
"665 653 CURVE SMOOTH",
"659 654 OFFCURVE",
"654 654 OFFCURVE",
"651 655 CURVE",
"643 656 OFFCURVE",
"626 656 OFFCURVE",
"600 656 CURVE SMOOTH",
"240 656 LINE",
"203 657 LINE",
"194 658 OFFCURVE",
"182 658 OFFCURVE",
"165 658 CURVE SMOOTH",
"89 658 LINE SMOOTH",
"76 658 OFFCURVE",
"66 657 OFFCURVE",
"59 655 CURVE SMOOTH",
"48 652 OFFCURVE",
"39 646 OFFCURVE",
"39 638 CURVE SMOOTH",
"39 629 LINE",
"39 614 LINE",
"38 610 OFFCURVE",
"38 605 OFFCURVE",
"38 598 CURVE SMOOTH",
"38 584 LINE SMOOTH",
"38 547 OFFCURVE",
"40 518 OFFCURVE",
"43 498 CURVE SMOOTH",
"48 463 OFFCURVE",
"58 443 OFFCURVE",
"75 443 CURVE SMOOTH",
"186 443 LINE",
"189 439 LINE",
"189 390 OFFCURVE",
"189 354 OFFCURVE",
"188 331 CURVE SMOOTH",
"186 258 OFFCURVE",
"185 194 OFFCURVE",
"185 138 CURVE SMOOTH",
"185 80 OFFCURVE",
"190 40 OFFCURVE",
"200 18 CURVE",
"205 5 OFFCURVE",
"212 -1 OFFCURVE",
"221 -1 CURVE SMOOTH",
"256 -1 OFFCURVE",
"250 -1 OFFCURVE",
"263 0 CURVE",
"274 0 LINE",
"261 -78 LINE",
"259 -118 LINE",
"272 -112 OFFCURVE",
"286 -109 OFFCURVE",
"301 -109 CURVE SMOOTH",
"340 -109 OFFCURVE",
"364 -128 OFFCURVE",
"364 -163 CURVE SMOOTH",
"364 -196 OFFCURVE",
"344 -229 OFFCURVE",
"299 -229 CURVE SMOOTH",
"274 -229 OFFCURVE",
"251 -224 OFFCURVE",
"230 -215 CURVE",
"229 -216 OFFCURVE",
"228 -219 OFFCURVE",
"226 -224 CURVE SMOOTH",
"224 -229 OFFCURVE",
"222 -236 OFFCURVE",
"219 -243 CURVE",
"209 -298 LINE",
"215 -305 OFFCURVE",
"224 -311 OFFCURVE",
"235 -315 CURVE SMOOTH",
"258 -323 OFFCURVE",
"279 -328 OFFCURVE",
"299 -328 CURVE SMOOTH",
"316 -328 LINE SMOOTH",
"485 -328 OFFCURVE",
"539 -261 OFFCURVE",
"539 -174 CURVE SMOOTH",
"539 -115 OFFCURVE",
"487 -65 OFFCURVE",
"374 -48 CURVE",
"384 2 LINE",
"392 3 OFFCURVE",
"435 3 OFFCURVE",
"453 3 CURVE",
"478 4 LINE",
"481 5 OFFCURVE",
"487 7 OFFCURVE",
"496 10 CURVE",
"505 16 OFFCURVE",
"510 30 OFFCURVE",
"510 53 CURVE SMOOTH",
"510 148 LINE",
"511 161 OFFCURVE",
"513 181 OFFCURVE",
"514 209 CURVE SMOOTH",
"516 239 LINE SMOOTH",
"519 304 OFFCURVE",
"520 347 OFFCURVE",
"520 366 CURVE",
"521 371 OFFCURVE",
"521 379 OFFCURVE",
"521 389 CURVE SMOOTH",
"521 423 LINE",
"521 438 LINE SMOOTH",
"521 439 OFFCURVE",
"521 441 OFFCURVE",
"522 442 CURVE SMOOTH",
"523 443 OFFCURVE",
"523 443 OFFCURVE",
"523 444 CURVE",
"524 447 OFFCURVE",
"527 448 OFFCURVE",
"533 448 CURVE SMOOTH",
"563 448 LINE",
"571 447 OFFCURVE",
"583 446 OFFCURVE",
"598 446 CURVE SMOOTH",
"631 446 LINE",
"663 446 LINE SMOOTH",
"676 446 OFFCURVE",
"688 448 OFFCURVE",
"688 463 CURVE SMOOTH",
"688 628 LINE SMOOTH",
"688 640 OFFCURVE",
"687 645 OFFCURVE",
"678 649 CURVE"
);
}
);
width = 723;
}
);
note = uni0162;
unicode = 0162;
},
{
glyphname = U;
lastChange = "2017-08-04 18:18:16 +0000";
layers = (
{
layerId = "CBDECE4A-293B-4E5C-B714-A3FD26C7130D";
paths = (
{
closed = 1;
nodes = (
"807 641 OFFCURVE",
"806 640 OFFCURVE",
"805 639 CURVE",
"799 637 LINE",
"799 640 OFFCURVE",
"799 641 OFFCURVE",
"800 641 CURVE",
"800 646 LINE",
"800 648 LINE SMOOTH",
"800 649 OFFCURVE",
"800 649 OFFCURVE",
"799 649 CURVE",
"799 650 OFFCURVE",
"797 652 OFFCURVE",
"794 652 CURVE SMOOTH",
"673 655 LINE",
"604 655 LINE SMOOTH",
"553 655 OFFCURVE",
"501 650 OFFCURVE",
"486 644 CURVE",
"486 646 LINE SMOOTH",
"486 650 OFFCURVE",
"483 652 OFFCURVE",
"479 652 CURVE SMOOTH",
"467 652 OFFCURVE",
"461 648 OFFCURVE",
"461 629 CURVE SMOOTH",
"461 600 LINE SMOOTH",
"461 593 OFFCURVE",
"461 587 OFFCURVE",
"462 584 CURVE",
"462 574 OFFCURVE",
"464 561 OFFCURVE",
"467 545 CURVE",
"467 167 LINE",
"467 163 LINE",
"463 156 OFFCURVE",
"456 148 OFFCURVE",
"445 144 CURVE",
"398 119 OFFCURVE",
"365 148 OFFCURVE",
"373 210 CURVE SMOOTH",
"378 250 OFFCURVE",
"373 302 OFFCURVE",
"375 359 CURVE SMOOTH",
"376 391 OFFCURVE",
"376 412 OFFCURVE",
"376 425 CURVE SMOOTH",
"376 447 LINE SMOOTH",
"376 484 OFFCURVE",
"377 523 OFFCURVE",
"377 581 CURVE SMOOTH",
"377 604 OFFCURVE",
"376 624 OFFCURVE",
"373 631 CURVE",
"360 648 OFFCURVE",
"329 656 OFFCURVE",
"277 659 CURVE SMOOTH",
"237 661 OFFCURVE",
"198 661 OFFCURVE",
"158 661 CURVE SMOOTH",
"100 661 LINE SMOOTH",
"77 661 OFFCURVE",
"67 659 OFFCURVE",
"67 648 CURVE SMOOTH",
"67 642 OFFCURVE",
"69 634 OFFCURVE",
"69 626 CURVE",
"70 624 OFFCURVE",
"70 615 OFFCURVE",
"70 605 CURVE SMOOTH",
"70 569 OFFCURVE",
"69 519 OFFCURVE",
"69 492 CURVE SMOOTH",
"69 476 OFFCURVE",
"64 461 OFFCURVE",
"64 454 CURVE",
"61 396 OFFCURVE",
"59 345 OFFCURVE",
"59 296 CURVE SMOOTH",
"59 214 OFFCURVE",
"64 164 OFFCURVE",
"69 130 CURVE SMOOTH",
"82 43 OFFCURVE",
"137 -30 OFFCURVE",
"262 -30 CURVE SMOOTH",
"335 -30 OFFCURVE",
"426 -11 OFFCURVE",
"480 49 CURVE",
"481 49 LINE",
"486 46 LINE",
"488 46 OFFCURVE",
"480 43 OFFCURVE",
"481 40 CURVE",
"484 36 OFFCURVE",
"485 32 OFFCURVE",
"486 26 CURVE SMOOTH",
"492 -4 OFFCURVE",
"497 -14 OFFCURVE",
"503 -17 CURVE",
"518 -21 OFFCURVE",
"534 -22 OFFCURVE",
"553 -22 CURVE SMOOTH",
"604 -22 LINE SMOOTH",
"670 -22 OFFCURVE",
"717 -20 OFFCURVE",
"749 -14 CURVE",
"750 -14 OFFCURVE",
"752 -13 OFFCURVE",
"753 -12 CURVE",
"757 -10 LINE",
"762 -10 OFFCURVE",
"776 -13 OFFCURVE",
"777 -14 CURVE",
"778 -13 OFFCURVE",
"779 -13 OFFCURVE",
"780 -12 CURVE SMOOTH",
"784 -8 LINE SMOOTH",
"788 -4 OFFCURVE",
"800 10 OFFCURVE",
"800 33 CURVE",
"811 213 OFFCURVE",
"812 367 OFFCURVE",
"812 635 CURVE SMOOTH",
"812 639 OFFCURVE",
"811 641 OFFCURVE",
"808 641 CURVE SMOOTH"
);
}
);
width = 842;
}
);
note = U;
unicode = 0055;
},
{
glyphname = Uhorn;
lastChange = "2017-08-04 18:19:01 +0000";
layers = (
{
layerId = "CBDECE4A-293B-4E5C-B714-A3FD26C7130D";
paths = (
{
closed = 1;
nodes = (
"804 581 LINE",
"858 610 OFFCURVE",
"897 641 OFFCURVE",
"901 683 CURVE",
"903 728 LINE",
"900 769 LINE",
"894 789 LINE",
"733 792 LINE",
"738 774 LINE",
"740 741 LINE",
"739 717 LINE",
"730 691 LINE SMOOTH",
"723 672 OFFCURVE",
"700 654 OFFCURVE",
"682 654 CURVE"
);
},
{
closed = 1;
nodes = (
"807 641 OFFCURVE",
"806 640 OFFCURVE",
"805 639 CURVE",
"799 637 LINE",
"799 640 OFFCURVE",
"799 641 OFFCURVE",
"800 641 CURVE",
"800 646 LINE",
"800 648 LINE SMOOTH",
"800 649 OFFCURVE",
"800 649 OFFCURVE",
"799 649 CURVE",
"799 650 OFFCURVE",
"797 652 OFFCURVE",
"794 652 CURVE SMOOTH",
"673 655 LINE",
"604 655 LINE SMOOTH",
"553 655 OFFCURVE",
"501 650 OFFCURVE",
"486 644 CURVE",
"486 646 LINE SMOOTH",
"486 650 OFFCURVE",
"483 652 OFFCURVE",
"479 652 CURVE SMOOTH",
"467 652 OFFCURVE",
"461 648 OFFCURVE",
"461 629 CURVE SMOOTH",
"461 600 LINE SMOOTH",
"461 593 OFFCURVE",
"461 587 OFFCURVE",
"462 584 CURVE",
"462 574 OFFCURVE",
"464 561 OFFCURVE",
"467 545 CURVE",
"467 167 LINE",
"467 163 LINE",
"463 156 OFFCURVE",
"456 148 OFFCURVE",
"445 144 CURVE",
"398 119 OFFCURVE",
"365 148 OFFCURVE",
"373 210 CURVE SMOOTH",
"378 250 OFFCURVE",
"373 302 OFFCURVE",
"375 359 CURVE SMOOTH",
"376 391 OFFCURVE",
"376 412 OFFCURVE",
"376 425 CURVE SMOOTH",
"376 447 LINE SMOOTH",
"376 484 OFFCURVE",
"377 523 OFFCURVE",
"377 581 CURVE SMOOTH",
"377 604 OFFCURVE",
"376 624 OFFCURVE",
"373 631 CURVE",
"360 648 OFFCURVE",
"329 656 OFFCURVE",
"277 659 CURVE SMOOTH",
"237 661 OFFCURVE",
"198 661 OFFCURVE",
"158 661 CURVE SMOOTH",
"100 661 LINE SMOOTH",
"77 661 OFFCURVE",
"67 659 OFFCURVE",
"67 648 CURVE SMOOTH",
"67 642 OFFCURVE",
"69 634 OFFCURVE",
"69 626 CURVE",
"70 624 OFFCURVE",
"70 615 OFFCURVE",
"70 605 CURVE SMOOTH",
"70 569 OFFCURVE",
"69 519 OFFCURVE",
"69 492 CURVE SMOOTH",
"69 476 OFFCURVE",
"64 461 OFFCURVE",
"64 454 CURVE",
"61 396 OFFCURVE",
"59 345 OFFCURVE",
"59 296 CURVE SMOOTH",
"59 214 OFFCURVE",
"64 164 OFFCURVE",
"69 130 CURVE SMOOTH",
"82 43 OFFCURVE",
"137 -30 OFFCURVE",
"262 -30 CURVE SMOOTH",
"335 -30 OFFCURVE",
"426 -11 OFFCURVE",
"480 49 CURVE",
"481 49 LINE",
"486 46 LINE",
"488 46 OFFCURVE",
"480 43 OFFCURVE",
"481 40 CURVE",
"484 36 OFFCURVE",
"485 32 OFFCURVE",
"486 26 CURVE SMOOTH",
"491 -4 OFFCURVE",
"497 -14 OFFCURVE",
"503 -17 CURVE",
"518 -21 OFFCURVE",
"534 -22 OFFCURVE",
"553 -22 CURVE SMOOTH",
"604 -22 LINE SMOOTH",
"670 -22 OFFCURVE",
"717 -20 OFFCURVE",
"749 -14 CURVE",
"750 -14 OFFCURVE",
"752 -13 OFFCURVE",
"753 -12 CURVE",
"757 -10 LINE",
"762 -10 OFFCURVE",
"776 -13 OFFCURVE",
"777 -14 CURVE",
"778 -13 OFFCURVE",
"779 -13 OFFCURVE",
"780 -12 CURVE SMOOTH",
"784 -8 LINE SMOOTH",
"788 -4 OFFCURVE",
"800 10 OFFCURVE",
"800 33 CURVE",
"811 213 OFFCURVE",
"812 367 OFFCURVE",
"812 635 CURVE SMOOTH",
"812 639 OFFCURVE",
"811 641 OFFCURVE",
"808 641 CURVE SMOOTH"
);
}
);
width = 885;
}
);
note = Uhorn;
unicode = 01AF;
},
{
glyphname = Uogonek;
lastChange = "2017-08-04 18:19:38 +0000";
layers = (
{
layerId = "CBDECE4A-293B-4E5C-B714-A3FD26C7130D";
paths = (
{
closed = 1;
nodes = (
"762 -154 OFFCURVE",
"733 -160 OFFCURVE",
"706 -160 CURVE SMOOTH",
"697 -160 OFFCURVE",
"691 -160 OFFCURVE",
"686 -161 CURVE",
"678 -164 OFFCURVE",
"668 -159 OFFCURVE",
"665 -158 CURVE",
"650 -154 OFFCURVE",
"642 -146 OFFCURVE",
"642 -126 CURVE SMOOTH",
"642 -118 OFFCURVE",
"646 -106 OFFCURVE",
"655 -90 CURVE SMOOTH",
"668 -67 OFFCURVE",
"682 -49 OFFCURVE",
"701 -33 CURVE",
"737 4 LINE",
"755 7 OFFCURVE",
"764 20 OFFCURVE",
"764 43 CURVE",
"566 -3 LINE",
"555 -10 LINE SMOOTH",
"552 -12 OFFCURVE",
"546 -15 OFFCURVE",
"539 -19 CURVE",
"531 -24 OFFCURVE",
"525 -28 OFFCURVE",
"520 -33 CURVE",
"464 -70 OFFCURVE",
"437 -103 OFFCURVE",
"437 -163 CURVE SMOOTH",
"437 -175 OFFCURVE",
"439 -186 OFFCURVE",
"442 -195 CURVE",
"453 -220 OFFCURVE",
"476 -240 OFFCURVE",
"513 -253 CURVE SMOOTH",
"552 -268 OFFCURVE",
"607 -276 OFFCURVE",
"680 -276 CURVE",
"690 -274 LINE",
"692 -273 OFFCURVE",
"695 -273 OFFCURVE",
"698 -273 CURVE SMOOTH",
"701 -273 OFFCURVE",
"705 -272 OFFCURVE",
"710 -271 CURVE",
"721 -270 OFFCURVE",
"737 -265 OFFCURVE",
"757 -258 CURVE",
"770 -251 OFFCURVE",
"782 -245 OFFCURVE",
"783 -240 CURVE SMOOTH",
"800 -158 LINE",
"800 -153 LINE SMOOTH",
"800 -148 OFFCURVE",
"798 -145 OFFCURVE",
"793 -143 CURVE"
);
},
{
closed = 1;
nodes = (
"778 641 OFFCURVE",
"777 640 OFFCURVE",
"776 639 CURVE",
"770 637 LINE",
"770 640 OFFCURVE",
"770 641 OFFCURVE",
"771 641 CURVE",
"771 646 LINE",
"771 648 LINE SMOOTH",
"771 649 OFFCURVE",
"771 649 OFFCURVE",
"770 649 CURVE",
"770 650 OFFCURVE",
"768 652 OFFCURVE",
"765 652 CURVE SMOOTH",
"644 655 LINE",
"575 655 LINE SMOOTH",
"524 655 OFFCURVE",
"472 650 OFFCURVE",
"457 644 CURVE",
"457 646 LINE SMOOTH",
"457 650 OFFCURVE",
"454 652 OFFCURVE",
"450 652 CURVE SMOOTH",
"438 652 OFFCURVE",
"432 648 OFFCURVE",
"432 629 CURVE SMOOTH",
"432 600 LINE SMOOTH",
"432 593 OFFCURVE",
"432 587 OFFCURVE",
"433 584 CURVE",
"433 574 OFFCURVE",
"435 561 OFFCURVE",
"438 545 CURVE",
"438 167 LINE",
"438 163 LINE",
"434 156 OFFCURVE",
"427 148 OFFCURVE",
"416 144 CURVE",
"369 119 OFFCURVE",
"336 148 OFFCURVE",
"344 210 CURVE SMOOTH",
"349 250 OFFCURVE",
"344 302 OFFCURVE",
"346 359 CURVE SMOOTH",
"347 391 OFFCURVE",
"347 412 OFFCURVE",
"347 425 CURVE SMOOTH",
"347 447 LINE SMOOTH",
"347 484 OFFCURVE",
"348 523 OFFCURVE",
"348 581 CURVE SMOOTH",
"348 604 OFFCURVE",
"347 624 OFFCURVE",
"344 631 CURVE",
"331 648 OFFCURVE",
"300 656 OFFCURVE",
"248 659 CURVE SMOOTH",
"208 661 OFFCURVE",
"169 661 OFFCURVE",
"129 661 CURVE SMOOTH",
"71 661 LINE SMOOTH",
"48 661 OFFCURVE",
"38 659 OFFCURVE",
"38 648 CURVE SMOOTH",
"38 642 OFFCURVE",
"40 634 OFFCURVE",
"40 626 CURVE",
"41 624 OFFCURVE",
"41 615 OFFCURVE",
"41 605 CURVE SMOOTH",
"41 569 OFFCURVE",
"40 519 OFFCURVE",
"40 492 CURVE SMOOTH",
"40 476 OFFCURVE",
"35 461 OFFCURVE",
"35 454 CURVE",
"32 396 OFFCURVE",
"30 345 OFFCURVE",
"30 296 CURVE SMOOTH",
"30 214 OFFCURVE",
"35 164 OFFCURVE",
"40 130 CURVE SMOOTH",
"53 43 OFFCURVE",
"108 -30 OFFCURVE",
"233 -30 CURVE SMOOTH",
"306 -30 OFFCURVE",
"397 -11 OFFCURVE",
"451 49 CURVE",
"452 49 LINE",
"457 46 LINE",
"459 46 OFFCURVE",
"451 43 OFFCURVE",
"452 40 CURVE",
"455 36 OFFCURVE",
"456 32 OFFCURVE",
"457 26 CURVE SMOOTH",
"463 -4 OFFCURVE",
"468 -14 OFFCURVE",
"474 -17 CURVE",
"489 -21 OFFCURVE",
"505 -22 OFFCURVE",
"524 -22 CURVE SMOOTH",
"575 -22 LINE SMOOTH",
"641 -22 OFFCURVE",
"688 -20 OFFCURVE",
"720 -14 CURVE",
"721 -14 OFFCURVE",
"723 -13 OFFCURVE",
"724 -12 CURVE",
"728 -10 LINE",
"733 -10 OFFCURVE",
"747 -13 OFFCURVE",
"748 -14 CURVE",
"749 -13 OFFCURVE",
"750 -13 OFFCURVE",
"751 -12 CURVE SMOOTH",
"755 -8 LINE SMOOTH",
"759 -4 OFFCURVE",
"771 10 OFFCURVE",
"771 33 CURVE",
"782 213 OFFCURVE",
"783 367 OFFCURVE",
"783 635 CURVE SMOOTH",
"783 639 OFFCURVE",
"782 641 OFFCURVE",
"779 641 CURVE SMOOTH"
);
}
);
width = 811;
}
);
note = Uogonek;
unicode = 0172;
},
{
glyphname = V;
lastChange = "2017-08-03 20:05:02 +0000";
layers = (
{
layerId = "CBDECE4A-293B-4E5C-B714-A3FD26C7130D";
paths = (
{
closed = 1;
nodes = (
"330 -16 OFFCURVE",
"454 -14 OFFCURVE",
"518 -10 CURVE",
"524 -10 OFFCURVE",
"533 -11 OFFCURVE",
"544 -12 CURVE",
"553 -15 OFFCURVE",
"562 -16 OFFCURVE",
"571 -16 CURVE SMOOTH",
"576 -16 OFFCURVE",
"580 -15 OFFCURVE",
"583 -12 CURVE SMOOTH",
"587 -8 OFFCURVE",
"591 -9 OFFCURVE",
"597 -9 CURVE",
"601 -10 LINE",
"604 -10 LINE",
"611 -5 OFFCURVE",
"614 -2 OFFCURVE",
"614 0 CURVE",
"666 186 LINE SMOOTH",
"686 256 OFFCURVE",
"738 458 OFFCURVE",
"766 543 CURVE",
"767 544 OFFCURVE",
"767 547 OFFCURVE",
"768 551 CURVE",
"768 554 OFFCURVE",
"771 559 OFFCURVE",
"773 565 CURVE",
"777 589 OFFCURVE",
"778 598 OFFCURVE",
"778 605 CURVE",
"789 629 OFFCURVE",
"763 652 OFFCURVE",
"744 654 CURVE",
"713 657 LINE",
"708 656 OFFCURVE",
"697 664 OFFCURVE",
"691 664 CURVE",
"615 672 LINE",
"572 674 LINE",
"541 682 OFFCURVE",
"534 620 OFFCURVE",
"504 499 CURVE SMOOTH",
"498 473 OFFCURVE",
"490 466 OFFCURVE",
"487 453 CURVE SMOOTH",
"484 438 LINE",
"481 422 LINE SMOOTH",
"480 416 OFFCURVE",
"479 409 OFFCURVE",
"477 402 CURVE SMOOTH",
"467 366 LINE",
"455 319 LINE SMOOTH",
"454 314 OFFCURVE",
"435 280 OFFCURVE",
"435 277 CURVE",
"425 294 LINE",
"419 309 LINE",
"399 370 LINE",
"386 399 LINE",
"384 406 OFFCURVE",
"382 414 OFFCURVE",
"380 420 CURVE SMOOTH",
"378 426 OFFCURVE",
"374 441 OFFCURVE",
"367 446 CURVE",
"366 450 OFFCURVE",
"366 453 OFFCURVE",
"366 456 CURVE",
"365 459 OFFCURVE",
"365 460 OFFCURVE",
"365 460 CURVE",
"358 488 OFFCURVE",
"332 565 OFFCURVE",
"327 579 CURVE SMOOTH",
"310 624 LINE SMOOTH",
"303 644 OFFCURVE",
"291 686 OFFCURVE",
"247 672 CURVE",
"184 660 LINE",
"164 659 LINE",
"158 656 LINE SMOOTH",
"154 654 OFFCURVE",
"153 655 OFFCURVE",
"149 654 CURVE",
"148 654 OFFCURVE",
"148 654 OFFCURVE",
"147 653 CURVE SMOOTH",
"146 652 OFFCURVE",
"144 653 OFFCURVE",
"144 653 CURVE",
"142 653 OFFCURVE",
"142 646 OFFCURVE",
"140 647 CURVE",
"138 648 OFFCURVE",
"133 647 OFFCURVE",
"132 647 CURVE SMOOTH",
"51 629 LINE",
"28 619 LINE",
"-10 604 OFFCURVE",
"10 573 OFFCURVE",
"10 558 CURVE SMOOTH",
"10 546 OFFCURVE",
"11 544 OFFCURVE",
"14 532 CURVE SMOOTH",
"17 519 LINE",
"17 515 OFFCURVE",
"17 512 OFFCURVE",
"18 510 CURVE",
"72 400 OFFCURVE",
"104 277 OFFCURVE",
"126 211 CURVE SMOOTH",
"197 0 LINE",
"197 -3 OFFCURVE",
"200 -6 OFFCURVE",
"207 -10 CURVE",
"213 -10 LINE",
"213 -9 OFFCURVE",
"214 -9 OFFCURVE",
"215 -9 CURVE SMOOTH",
"223 -9 OFFCURVE",
"233 -11 OFFCURVE",
"242 -12 CURVE SMOOTH",
"253 -13 OFFCURVE",
"261 -16 OFFCURVE",
"270 -16 CURVE SMOOTH"
);
}
);
width = 786;
}
);
note = V;
rightKerningGroup = V;
unicode = 0056;
},
{
glyphname = W;
lastChange = "2017-08-03 20:04:55 +0000";
layers = (
{
layerId = "CBDECE4A-293B-4E5C-B714-A3FD26C7130D";
paths = (
{
closed = 1;
nodes = (
"362 -9 OFFCURVE",
"376 -9 OFFCURVE",
"385 -9 CURVE",
"434 -9 LINE SMOOTH",
"454 -9 OFFCURVE",
"464 -3 OFFCURVE",
"468 8 CURVE",
"555 333 LINE",
"644 8 LINE",
"644 2 OFFCURVE",
"648 -2 OFFCURVE",
"654 -3 CURVE",
"664 -3 LINE",
"676 -3 OFFCURVE",
"684 -3 OFFCURVE",
"692 -3 CURVE",
"722 -3 LINE",
"772 -3 LINE",
"920 -6 LINE",
"933 -3 LINE",
"935 -3 OFFCURVE",
"939 -3 OFFCURVE",
"945 -3 CURVE",
"956 -3 LINE",
"956 2 LINE",
"957 5 OFFCURVE",
"959 7 OFFCURVE",
"965 8 CURVE",
"1041 292 LINE",
"1064 371 OFFCURVE",
"1066 391 OFFCURVE",
"1087 492 CURVE",
"1087 524 OFFCURVE",
"1131 631 OFFCURVE",
"1107 643 CURVE",
"1083 650 LINE",
"1078 648 OFFCURVE",
"1055 657 OFFCURVE",
"1027 661 CURVE SMOOTH",
"992 666 LINE",
"987 666 OFFCURVE",
"980 668 OFFCURVE",
"972 672 CURVE SMOOTH",
"966 675 LINE",
"965 676 OFFCURVE",
"961 674 OFFCURVE",
"959 676 CURVE SMOOTH",
"957 678 OFFCURVE",
"957 676 OFFCURVE",
"952 677 CURVE",
"952 677 OFFCURVE",
"927 683 OFFCURVE",
"925 683 CURVE SMOOTH",
"923 683 LINE",
"917 682 OFFCURVE",
"902 684 OFFCURVE",
"896 684 CURVE SMOOTH",
"892 684 OFFCURVE",
"888 684 OFFCURVE",
"882 683 CURVE SMOOTH",
"877 682 OFFCURVE",
"873 683 OFFCURVE",
"869 683 CURVE",
"864 676 OFFCURVE",
"861 666 OFFCURVE",
"859 655 CURVE",
"854 636 OFFCURVE",
"851 622 OFFCURVE",
"830 518 CURVE SMOOTH",
"826 498 LINE",
"825 489 OFFCURVE",
"822 477 OFFCURVE",
"817 457 CURVE",
"817 456 OFFCURVE",
"817 454 OFFCURVE",
"817 453 CURVE",
"816 450 OFFCURVE",
"816 448 OFFCURVE",
"815 445 CURVE",
"813 420 LINE",
"808 409 OFFCURVE",
"808 399 OFFCURVE",
"807 388 CURVE",
"802 359 LINE",
"798 333 LINE",
"798 323 LINE",
"798 315 LINE",
"796 314 OFFCURVE",
"794 312 OFFCURVE",
"793 310 CURVE",
"792 315 LINE",
"791 317 OFFCURVE",
"791 321 OFFCURVE",
"791 323 CURVE SMOOTH",
"791 324 OFFCURVE",
"791 325 OFFCURVE",
"791 327 CURVE",
"790 328 OFFCURVE",
"790 331 OFFCURVE",
"787 333 CURVE",
"786 343 OFFCURVE",
"785 351 OFFCURVE",
"785 359 CURVE",
"784 364 OFFCURVE",
"782 376 OFFCURVE",
"781 388 CURVE",
"776 420 LINE",
"776 423 OFFCURVE",
"770 431 OFFCURVE",
"768 445 CURVE SMOOTH",
"766 457 LINE",
"766 457 OFFCURVE",
"727 632 OFFCURVE",
"727 632 CURVE",
"724 636 OFFCURVE",
"719 637 OFFCURVE",
"708 637 CURVE SMOOTH",
"696 637 LINE",
"688 637 LINE SMOOTH",
"683 637 OFFCURVE",
"680 636 OFFCURVE",
"679 635 CURVE",
"677 635 OFFCURVE",
"676 635 OFFCURVE",
"675 634 CURVE SMOOTH",
"673 632 OFFCURVE",
"673 632 OFFCURVE",
"672 632 CURVE",
"672 634 OFFCURVE",
"668 635 OFFCURVE",
"661 635 CURVE SMOOTH",
"656 635 OFFCURVE",
"649 635 OFFCURVE",
"641 636 CURVE",
"519 640 LINE",
"501 640 LINE SMOOTH",
"495 640 OFFCURVE",
"485 638 OFFCURVE",
"470 637 CURVE",
"468 636 OFFCURVE",
"466 636 OFFCURVE",
"461 635 CURVE",
"459 634 OFFCURVE",
"457 632 OFFCURVE",
"456 632 CURVE",
"446 628 OFFCURVE",
"444 621 OFFCURVE",
"443 614 CURVE",
"434 588 OFFCURVE",
"407 517 OFFCURVE",
"397 469 CURVE",
"396 458 LINE",
"396 454 OFFCURVE",
"396 446 OFFCURVE",
"391 439 CURVE",
"381 415 LINE",
"380 410 OFFCURVE",
"380 408 OFFCURVE",
"379 403 CURVE",
"377 399 OFFCURVE",
"376 393 OFFCURVE",
"376 390 CURVE SMOOTH",
"376 382 OFFCURVE",
"373 376 OFFCURVE",
"373 372 CURVE",
"372 369 OFFCURVE",
"370 364 OFFCURVE",
"370 363 CURVE",
"370 360 LINE",
"370 354 LINE",
"368 348 LINE",
"368 354 LINE",
"367 355 OFFCURVE",
"366 357 OFFCURVE",
"366 360 CURVE",
"366 363 LINE",
"364 372 LINE",
"364 375 OFFCURVE",
"364 378 OFFCURVE",
"362 382 CURVE",
"361 387 OFFCURVE",
"356 392 OFFCURVE",
"354 403 CURVE",
"354 408 OFFCURVE",
"353 411 OFFCURVE",
"352 415 CURVE",
"351 425 OFFCURVE",
"349 434 OFFCURVE",
"349 439 CURVE",
"345 458 LINE",
"345 462 OFFCURVE",
"345 464 OFFCURVE",
"344 466 CURVE",
"344 466 OFFCURVE",
"344 467 OFFCURVE",
"344 469 CURVE",
"318 631 OFFCURVE",
"319 599 OFFCURVE",
"318 611 CURVE",
"307 660 OFFCURVE",
"302 693 OFFCURVE",
"280 683 CURVE",
"258 678 OFFCURVE",
"240 676 OFFCURVE",
"231 674 CURVE SMOOTH",
"223 672 LINE",
"219 672 LINE SMOOTH",
"217 672 OFFCURVE",
"207 669 OFFCURVE",
"201 668 CURVE",
"200 668 OFFCURVE",
"200 668 OFFCURVE",
"199 667 CURVE SMOOTH",
"197 665 OFFCURVE",
"196 666 OFFCURVE",
"195 666 CURVE",
"195 668 LINE",
"195 668 OFFCURVE",
"195 668 OFFCURVE",
"194 668 CURVE SMOOTH",
"193 668 OFFCURVE",
"193 668 OFFCURVE",
"192 666 CURVE",
"186 666 LINE",
"161 660 LINE",
"152 660 LINE",
"123 655 LINE SMOOTH",
"122 655 OFFCURVE",
"65 648 OFFCURVE",
"20 644 CURVE",
"-14 632 OFFCURVE",
"19 617 OFFCURVE",
"27 497 CURVE SMOOTH",
"29 467 OFFCURVE",
"38 442 OFFCURVE",
"45 438 CURVE",
"59 364 OFFCURVE",
"54 403 OFFCURVE",
"75 315 CURVE SMOOTH",
"147 8 LINE",
"147 2 OFFCURVE",
"149 -2 OFFCURVE",
"156 -3 CURVE",
"167 -3 LINE",
"171 -3 OFFCURVE",
"178 -3 OFFCURVE",
"185 -7 CURVE",
"189 -9 OFFCURVE",
"195 -9 OFFCURVE",
"200 -9 CURVE",
"339 -9 LINE"
);
}
);
width = 1119;
}
);
note = W;
unicode = 0057;
},
{
glyphname = X;
lastChange = "2017-08-22 22:12:03 +0000";
layers = (
{
layerId = "CBDECE4A-293B-4E5C-B714-A3FD26C7130D";
paths = (
{
closed = 1;
nodes = (
"102 38 OFFCURVE",
"184 -33 OFFCURVE",
"171 -34 CURVE",
"172 -32 OFFCURVE",
"174 -32 OFFCURVE",
"176 -32 CURVE",
"177 -32 OFFCURVE",
"177 -32 OFFCURVE",
"178 -32 CURVE",
"178 -37 LINE",
"193 -46 LINE",
"207 -40 LINE",
"221 -22 LINE",
"240 -4 LINE",
"351 104 LINE",
"382 136 LINE",
"385 136 OFFCURVE",
"386 134 OFFCURVE",
"397 122 CURVE",
"391 125 OFFCURVE",
"395 123 OFFCURVE",
"407 111 CURVE",
"427 82 OFFCURVE",
"460 67 OFFCURVE",
"510 5 CURVE",
"515 3 OFFCURVE",
"516 0 OFFCURVE",
"517 1 CURVE",
"517 1 OFFCURVE",
"517 1 OFFCURVE",
"518 1 CURVE SMOOTH",
"521 1 LINE SMOOTH",
"523 1 OFFCURVE",
"523 1 OFFCURVE",
"523 1 CURVE SMOOTH",
"520 -7 LINE",
"569 -50 LINE",
"587 -48 OFFCURVE",
"617 -33 OFFCURVE",
"644 -12 CURVE",
"643 -12 OFFCURVE",
"715 56 OFFCURVE",
"759 97 CURVE",
"764 99 LINE",
"773 115 LINE SMOOTH",
"777 122 OFFCURVE",
"792 142 OFFCURVE",
"749 184 CURVE",
"715 213 OFFCURVE",
"655 276 OFFCURVE",
"588 341 CURVE",
"593 347 OFFCURVE",
"650 403 OFFCURVE",
"667 424 CURVE",
"674 430 OFFCURVE",
"742 505 OFFCURVE",
"733 501 CURVE",
"747 519 OFFCURVE",
"755 523 OFFCURVE",
"756 539 CURVE",
"751 566 OFFCURVE",
"671 648 OFFCURVE",
"639 665 CURVE",
"625 667 OFFCURVE",
"618 691 OFFCURVE",
"591 681 CURVE",
"588 681 OFFCURVE",
"585 679 OFFCURVE",
"581 672 CURVE",
"567 661 OFFCURVE",
"469 560 OFFCURVE",
"447 541 CURVE SMOOTH",
"420 517 LINE",
"410 505 LINE",
"403 495 OFFCURVE",
"385 535 OFFCURVE",
"382 535 CURVE",
"381 535 LINE",
"376 537 LINE",
"373 539 OFFCURVE",
"366 544 OFFCURVE",
"366 550 CURVE SMOOTH",
"366 551 OFFCURVE",
"365 551 OFFCURVE",
"364 553 CURVE",
"364 553 OFFCURVE",
"250 669 OFFCURVE",
"239 685 CURVE",
"235 690 OFFCURVE",
"219 697 OFFCURVE",
"217 697 CURVE SMOOTH",
"185 695 LINE",
"146 668 OFFCURVE",
"148 662 OFFCURVE",
"84 611 CURVE SMOOTH",
"77 605 OFFCURVE",
"29 560 OFFCURVE",
"30 560 CURVE SMOOTH",
"39 560 OFFCURVE",
"34 564 OFFCURVE",
"25 558 CURVE",
"22 556 OFFCURVE",
"14 545 OFFCURVE",
"10 545 CURVE",
"8 526 OFFCURVE",
"-1 521 OFFCURVE",
"13 504 CURVE",
"37 470 LINE",
"35 476 OFFCURVE",
"65 434 OFFCURVE",
"72 431 CURVE",
"85 405 OFFCURVE",
"157 348 OFFCURVE",
"192 296 CURVE",
"188 292 OFFCURVE",
"136 235 OFFCURVE",
"115 214 CURVE SMOOTH",
"91 189 LINE",
"49 145 OFFCURVE",
"41 133 OFFCURVE",
"32 128 CURVE",
"29 123 LINE",
"28 105 LINE",
"29 103 OFFCURVE",
"32 98 OFFCURVE",
"37 94 CURVE SMOOTH",
"78 59 LINE SMOOTH"
);
}
);
width = 766;
}
);
note = X;
unicode = 0058;
},
{
glyphname = Y;
lastChange = "2017-08-22 22:10:34 +0000";
layers = (
{
layerId = "CBDECE4A-293B-4E5C-B714-A3FD26C7130D";
paths = (
{
closed = 1;
nodes = (
"409 -55 OFFCURVE",
"415 -54 OFFCURVE",
"422 -36 CURVE",
"436 -15 OFFCURVE",
"514 127 OFFCURVE",
"516 127 CURVE",
"622 313 LINE",
"689 446 LINE",
"702 472 OFFCURVE",
"724 516 OFFCURVE",
"738 539 CURVE",
"749 557 OFFCURVE",
"731 568 OFFCURVE",
"722 573 CURVE SMOOTH",
"667 604 OFFCURVE",
"580 661 OFFCURVE",
"537 681 CURVE SMOOTH",
"516 691 OFFCURVE",
"508 688 OFFCURVE",
"499 671 CURVE",
"468 617 OFFCURVE",
"397 494 OFFCURVE",
"395 496 CURVE SMOOTH",
"325 566 OFFCURVE",
"299 594 OFFCURVE",
"263 625 CURVE SMOOTH",
"255 632 OFFCURVE",
"254 634 OFFCURVE",
"252 637 CURVE",
"250 634 LINE",
"244 645 LINE",
"240 647 OFFCURVE",
"238 649 OFFCURVE",
"232 653 CURVE",
"216 671 OFFCURVE",
"184 710 OFFCURVE",
"172 690 CURVE",
"118 647 OFFCURVE",
"-2 521 OFFCURVE",
"14 498 CURVE SMOOTH",
"21 488 OFFCURVE",
"50 457 OFFCURVE",
"70 431 CURVE",
"89 413 OFFCURVE",
"104 389 OFFCURVE",
"140 362 CURVE",
"161 324 OFFCURVE",
"173 333 OFFCURVE",
"192 307 CURVE",
"192 306 OFFCURVE",
"194 305 OFFCURVE",
"195 304 CURVE",
"197 303 LINE",
"199 303 LINE",
"199 304 OFFCURVE",
"201 305 OFFCURVE",
"204 306 CURVE",
"203 294 OFFCURVE",
"210 286 OFFCURVE",
"221 276 CURVE SMOOTH",
"255 245 OFFCURVE",
"215 238 OFFCURVE",
"227 230 CURVE",
"198 178 OFFCURVE",
"183 156 OFFCURVE",
"180 148 CURVE",
"176 141 OFFCURVE",
"173 125 OFFCURVE",
"171 121 CURVE SMOOTH",
"164 107 OFFCURVE",
"156 95 OFFCURVE",
"156 80 CURVE SMOOTH",
"156 76 OFFCURVE",
"159 73 OFFCURVE",
"162 70 CURVE",
"186 54 LINE",
"192 53 OFFCURVE",
"205 36 OFFCURVE",
"222 28 CURVE SMOOTH",
"277 3 LINE",
"281 1 OFFCURVE",
"284 -8 OFFCURVE",
"291 -8 CURVE",
"297 -10 OFFCURVE",
"358 -43 OFFCURVE",
"375 -46 CURVE",
"390 -49 LINE",
"390 -50 OFFCURVE",
"390 -51 OFFCURVE",
"393 -51 CURVE",
"396 -50 LINE",
"396 -49 OFFCURVE",
"397 -49 OFFCURVE",
"398 -49 CURVE SMOOTH",
"401 -49 OFFCURVE",
"401 -49 OFFCURVE",
"401 -49 CURVE",
"401 -55 LINE"
);
}
);
width = 744;
}
);
note = Y;
unicode = 0059;
},
{
glyphname = Z;
lastChange = "2017-08-03 20:07:11 +0000";
layers = (
{
layerId = "CBDECE4A-293B-4E5C-B714-A3FD26C7130D";
paths = (
{
closed = 1;
nodes = (
"572 -14 OFFCURVE",
"587 -12 OFFCURVE",
"597 -10 CURVE",
"618 -7 OFFCURVE",
"626 -4 OFFCURVE",
"626 9 CURVE SMOOTH",
"626 177 LINE SMOOTH",
"626 188 OFFCURVE",
"613 197 OFFCURVE",
"600 197 CURVE SMOOTH",
"414 197 LINE",
"494 279 OFFCURVE",
"553 350 OFFCURVE",
"595 408 CURVE SMOOTH",
"608 426 OFFCURVE",
"616 444 OFFCURVE",
"624 463 CURVE",
"627 476 OFFCURVE",
"629 487 OFFCURVE",
"629 494 CURVE SMOOTH",
"629 661 LINE SMOOTH",
"629 662 OFFCURVE",
"628 665 OFFCURVE",
"627 669 CURVE",
"610 677 LINE",
"592 681 OFFCURVE",
"562 683 OFFCURVE",
"521 683 CURVE SMOOTH",
"371 683 LINE",
"324 681 OFFCURVE",
"275 680 OFFCURVE",
"225 680 CURVE SMOOTH",
"207 680 OFFCURVE",
"182 678 OFFCURVE",
"151 677 CURVE",
"124 674 OFFCURVE",
"99 673 OFFCURVE",
"74 673 CURVE",
"61 674 LINE",
"58 675 OFFCURVE",
"56 677 OFFCURVE",
"49 677 CURVE SMOOTH",
"40 677 OFFCURVE",
"34 674 OFFCURVE",
"29 669 CURVE",
"25 663 LINE",
"25 661 OFFCURVE",
"23 656 OFFCURVE",
"22 653 CURVE",
"22 633 OFFCURVE",
"21 616 OFFCURVE",
"20 605 CURVE",
"20 590 LINE SMOOTH",
"20 556 OFFCURVE",
"21 530 OFFCURVE",
"25 513 CURVE SMOOTH",
"33 480 OFFCURVE",
"41 464 OFFCURVE",
"60 464 CURVE SMOOTH",
"255 463 LINE SMOOTH",
"259 463 OFFCURVE",
"260 459 OFFCURVE",
"260 455 CURVE SMOOTH",
"260 447 OFFCURVE",
"249 429 OFFCURVE",
"238 419 CURVE",
"234 412 OFFCURVE",
"229 408 OFFCURVE",
"226 402 CURVE",
"151 320 LINE",
"151 320 OFFCURVE",
"128 297 OFFCURVE",
"86 255 CURVE SMOOTH",
"37 205 LINE",
"37 14 LINE SMOOTH",
"37 3 OFFCURVE",
"51 -10 OFFCURVE",
"64 -10 CURVE SMOOTH",
"148 -11 LINE",
"163 -12 OFFCURVE",
"187 -12 OFFCURVE",
"217 -12 CURVE",
"250 -14 OFFCURVE",
"302 -14 OFFCURVE",
"371 -14 CURVE SMOOTH",
"552 -14 LINE SMOOTH"
);
}
);
width = 649;
}
);
note = Z;
unicode = 005A;
},
{
glyphname = a;
lastChange = "2017-08-21 16:47:17 +0000";
layers = (
{
guideLines = (
{
position = "{168, 0}";
},
{
position = "{26, 492}";
}
);
layerId = "CBDECE4A-293B-4E5C-B714-A3FD26C7130D";
paths = (
{
closed = 1;
nodes = (
"241 -26 OFFCURVE",
"281 -7 OFFCURVE",
"318 65 CURVE",
"319 65 OFFCURVE",
"319 65 OFFCURVE",
"321 63 CURVE",
"321 62 OFFCURVE",
"321 59 OFFCURVE",
"321 58 CURVE",
"321 56 OFFCURVE",
"322 52 OFFCURVE",
"322 51 CURVE",
"320 49 OFFCURVE",
"320 44 OFFCURVE",
"320 37 CURVE SMOOTH",
"320 25 LINE SMOOTH",
"320 9 OFFCURVE",
"325 -1 OFFCURVE",
"334 -5 CURVE",
"344 -9 OFFCURVE",
"354 -13 OFFCURVE",
"369 -12 CURVE SMOOTH",
"387 -11 OFFCURVE",
"398 -11 OFFCURVE",
"407 -13 CURVE",
"439 -12 LINE",
"472 -11 LINE",
"569 -8 LINE SMOOTH",
"589 -7 OFFCURVE",
"591 12 OFFCURVE",
"589 46 CURVE SMOOTH",
"588 67 OFFCURVE",
"589 85 OFFCURVE",
"595 112 CURVE",
"594 134 LINE",
"594 145 OFFCURVE",
"592 176 OFFCURVE",
"591 213 CURVE SMOOTH",
"587 359 LINE",
"584 455 OFFCURVE",
"559 524 OFFCURVE",
"465 562 CURVE SMOOTH",
"410 584 OFFCURVE",
"265 585 OFFCURVE",
"191 581 CURVE SMOOTH",
"171 580 OFFCURVE",
"166 578 OFFCURVE",
"129 570 CURVE",
"127 570 OFFCURVE",
"121 569 OFFCURVE",
"117 568 CURVE",
"95 564 LINE SMOOTH",
"81 561 OFFCURVE",
"71 559 OFFCURVE",
"66 559 CURVE SMOOTH",
"64 559 OFFCURVE",
"64 559 OFFCURVE",
"63 557 CURVE SMOOTH",
"58 551 LINE",
"56 549 OFFCURVE",
"55 549 OFFCURVE",
"52 549 CURVE",
"51 534 LINE",
"52 527 OFFCURVE",
"52 522 OFFCURVE",
"50 516 CURVE",
"53 443 OFFCURVE",
"52 440 OFFCURVE",
"52 428 CURVE SMOOTH",
"52 412 OFFCURVE",
"55 393 OFFCURVE",
"66 389 CURVE",
"125 396 LINE",
"133 396 LINE SMOOTH",
"145 396 OFFCURVE",
"140 400 OFFCURVE",
"153 397 CURVE",
"154 397 LINE SMOOTH",
"287 397 OFFCURVE",
"327 392 OFFCURVE",
"333 328 CURVE",
"322 327 OFFCURVE",
"307 327 OFFCURVE",
"288 328 CURVE SMOOTH",
"274 329 OFFCURVE",
"249 328 OFFCURVE",
"216 327 CURVE SMOOTH",
"137 325 OFFCURVE",
"89 320 OFFCURVE",
"46 269 CURVE SMOOTH",
"6 222 OFFCURVE",
"0 198 OFFCURVE",
"2 149 CURVE SMOOTH",
"7 25 OFFCURVE",
"67 -33 OFFCURVE",
"194 -28 CURVE SMOOTH"
);
},
{
closed = 1;
nodes = (
"262 132 OFFCURVE",
"256 138 OFFCURVE",
"249 162 CURVE",
"245 200 LINE SMOOTH",
"242 232 OFFCURVE",
"258 262 OFFCURVE",
"289 264 CURVE SMOOTH",
"305 265 OFFCURVE",
"331 242 OFFCURVE",
"329 199 CURVE SMOOTH",
"328 180 LINE",
"320 149 OFFCURVE",
"296 132 OFFCURVE",
"270 132 CURVE SMOOTH"
);
}
);
width = 625;
}
);
note = a;
unicode = 0061;
},
{
glyphname = aogonek;
lastChange = "2017-08-11 17:18:22 +0000";
layers = (
{
layerId = "CBDECE4A-293B-4E5C-B714-A3FD26C7130D";
paths = (
{
closed = 1;
nodes = (
"285 122 OFFCURVE",
"279 128 OFFCURVE",
"272 152 CURVE",
"268 190 LINE SMOOTH",
"265 222 OFFCURVE",
"281 252 OFFCURVE",
"312 254 CURVE SMOOTH",
"328 255 OFFCURVE",
"354 232 OFFCURVE",
"352 189 CURVE SMOOTH",
"351 170 LINE",
"343 139 OFFCURVE",
"319 122 OFFCURVE",
"293 122 CURVE SMOOTH"
);
},
{
closed = 1;
nodes = (
"635 -142 OFFCURVE",
"619 -140 OFFCURVE",
"595 -140 CURVE SMOOTH",
"587 -140 OFFCURVE",
"581 -140 OFFCURVE",
"577 -141 CURVE",
"570 -141 OFFCURVE",
"561 -136 OFFCURVE",
"558 -135 CURVE",
"546 -132 OFFCURVE",
"538 -124 OFFCURVE",
"538 -106 CURVE SMOOTH",
"538 -98 OFFCURVE",
"541 -87 OFFCURVE",
"550 -72 CURVE SMOOTH",
"562 -51 OFFCURVE",
"570 -44 OFFCURVE",
"587 -20 CURVE",
"603 -6 LINE",
"608 0 LINE",
"613 9 OFFCURVE",
"613 24 OFFCURVE",
"612 45 CURVE SMOOTH",
"611 66 OFFCURVE",
"612 84 OFFCURVE",
"618 111 CURVE",
"617 133 LINE",
"617 144 OFFCURVE",
"615 175 OFFCURVE",
"614 212 CURVE SMOOTH",
"610 352 LINE SMOOTH",
"607 448 OFFCURVE",
"582 517 OFFCURVE",
"488 555 CURVE SMOOTH",
"433 577 OFFCURVE",
"288 586 OFFCURVE",
"214 582 CURVE SMOOTH",
"194 581 OFFCURVE",
"189 579 OFFCURVE",
"152 573 CURVE",
"150 573 OFFCURVE",
"144 572 OFFCURVE",
"140 571 CURVE",
"118 567 LINE SMOOTH",
"104 564 OFFCURVE",
"94 562 OFFCURVE",
"89 562 CURVE SMOOTH",
"87 562 OFFCURVE",
"87 562 OFFCURVE",
"86 560 CURVE",
"81 554 LINE",
"79 552 OFFCURVE",
"78 552 OFFCURVE",
"75 552 CURVE",
"74 537 LINE",
"75 530 OFFCURVE",
"75 525 OFFCURVE",
"73 519 CURVE",
"76 438 OFFCURVE",
"75 435 OFFCURVE",
"75 423 CURVE SMOOTH",
"75 407 OFFCURVE",
"78 388 OFFCURVE",
"89 384 CURVE",
"148 391 LINE",
"156 391 LINE SMOOTH",
"168 391 OFFCURVE",
"163 395 OFFCURVE",
"176 392 CURVE",
"177 392 LINE SMOOTH",
"310 392 OFFCURVE",
"350 392 OFFCURVE",
"356 327 CURVE",
"345 326 OFFCURVE",
"330 326 OFFCURVE",
"311 327 CURVE SMOOTH",
"297 328 OFFCURVE",
"272 327 OFFCURVE",
"239 326 CURVE SMOOTH",
"160 324 OFFCURVE",
"112 319 OFFCURVE",
"69 268 CURVE SMOOTH",
"29 221 OFFCURVE",
"23 197 OFFCURVE",
"25 148 CURVE SMOOTH",
"30 24 OFFCURVE",
"90 -34 OFFCURVE",
"217 -29 CURVE SMOOTH",
"264 -27 OFFCURVE",
"304 -8 OFFCURVE",
"341 64 CURVE",
"342 64 OFFCURVE",
"342 64 OFFCURVE",
"344 62 CURVE",
"344 61 OFFCURVE",
"344 58 OFFCURVE",
"344 57 CURVE",
"345 50 LINE",
"343 48 OFFCURVE",
"343 43 OFFCURVE",
"343 36 CURVE SMOOTH",
"343 24 LINE SMOOTH",
"343 8 OFFCURVE",
"348 -2 OFFCURVE",
"357 -6 CURVE",
"367 -10 OFFCURVE",
"377 -14 OFFCURVE",
"392 -13 CURVE SMOOTH",
"410 -12 OFFCURVE",
"421 -12 OFFCURVE",
"430 -14 CURVE",
"442 -14 LINE",
"437 -17 LINE SMOOTH",
"430 -21 OFFCURVE",
"424 -25 OFFCURVE",
"420 -30 CURVE",
"370 -64 OFFCURVE",
"346 -94 OFFCURVE",
"346 -150 CURVE SMOOTH",
"346 -161 OFFCURVE",
"348 -170 OFFCURVE",
"350 -179 CURVE",
"360 -202 OFFCURVE",
"380 -221 OFFCURVE",
"414 -233 CURVE SMOOTH",
"448 -245 OFFCURVE",
"497 -254 OFFCURVE",
"561 -254 CURVE",
"571 -252 LINE",
"572 -252 OFFCURVE",
"575 -251 OFFCURVE",
"578 -252 CURVE",
"580 -253 OFFCURVE",
"584 -251 OFFCURVE",
"589 -249 CURVE",
"598 -248 OFFCURVE",
"613 -244 OFFCURVE",
"630 -238 CURVE",
"642 -231 OFFCURVE",
"652 -225 OFFCURVE",
"653 -221 CURVE",
"668 -145 LINE",
"669 -141 LINE",
"670 -136 OFFCURVE",
"667 -133 OFFCURVE",
"662 -131 CURVE"
);
}
);
width = 664;
}
);
note = aogonek;
unicode = 0105;
},
{
glyphname = aring;
lastChange = "2017-08-11 17:18:33 +0000";
layers = (
{
components = (
{
name = uni030A;
transform = "{1, 0, 0, 1, 735, 0}";
}
);
layerId = "CBDECE4A-293B-4E5C-B714-A3FD26C7130D";
paths = (
{
closed = 1;
nodes = (
"249 -17 OFFCURVE",
"289 2 OFFCURVE",
"326 74 CURVE",
"327 74 OFFCURVE",
"327 74 OFFCURVE",
"329 72 CURVE",
"329 71 OFFCURVE",
"329 68 OFFCURVE",
"329 67 CURVE",
"329 65 OFFCURVE",
"330 61 OFFCURVE",
"330 60 CURVE",
"328 58 OFFCURVE",
"328 53 OFFCURVE",
"328 46 CURVE SMOOTH",
"328 34 LINE SMOOTH",
"328 18 OFFCURVE",
"333 8 OFFCURVE",
"342 4 CURVE",
"352 0 OFFCURVE",
"362 -4 OFFCURVE",
"377 -3 CURVE SMOOTH",
"395 -2 OFFCURVE",
"406 -2 OFFCURVE",
"415 -4 CURVE",
"447 -3 LINE",
"480 -2 LINE",
"577 1 LINE SMOOTH",
"597 2 OFFCURVE",
"599 21 OFFCURVE",
"597 55 CURVE SMOOTH",
"596 76 OFFCURVE",
"597 94 OFFCURVE",
"603 121 CURVE",
"602 143 LINE",
"602 154 OFFCURVE",
"600 185 OFFCURVE",
"599 222 CURVE SMOOTH",
"595 362 LINE",
"592 458 OFFCURVE",
"567 527 OFFCURVE",
"473 565 CURVE SMOOTH",
"418 587 OFFCURVE",
"273 596 OFFCURVE",
"199 592 CURVE SMOOTH",
"179 591 OFFCURVE",
"174 589 OFFCURVE",
"137 583 CURVE",
"135 583 OFFCURVE",
"129 582 OFFCURVE",
"125 581 CURVE",
"103 577 LINE SMOOTH",
"89 574 OFFCURVE",
"79 572 OFFCURVE",
"74 572 CURVE SMOOTH",
"72 572 OFFCURVE",
"72 572 OFFCURVE",
"71 570 CURVE SMOOTH",
"66 564 LINE",
"64 562 OFFCURVE",
"63 562 OFFCURVE",
"60 562 CURVE",
"59 547 LINE",
"60 540 OFFCURVE",
"60 535 OFFCURVE",
"58 529 CURVE",
"61 448 OFFCURVE",
"60 445 OFFCURVE",
"60 433 CURVE SMOOTH",
"60 417 OFFCURVE",
"63 398 OFFCURVE",
"74 394 CURVE",
"133 401 LINE",
"141 401 LINE SMOOTH",
"153 401 OFFCURVE",
"148 405 OFFCURVE",
"161 402 CURVE",
"162 402 LINE SMOOTH",
"295 402 OFFCURVE",
"335 402 OFFCURVE",
"341 337 CURVE",
"330 336 OFFCURVE",
"315 336 OFFCURVE",
"296 337 CURVE SMOOTH",
"282 338 OFFCURVE",
"257 337 OFFCURVE",
"224 336 CURVE SMOOTH",
"145 334 OFFCURVE",
"97 329 OFFCURVE",
"54 278 CURVE SMOOTH",
"14 231 OFFCURVE",
"8 207 OFFCURVE",
"10 158 CURVE SMOOTH",
"15 34 OFFCURVE",
"75 -24 OFFCURVE",
"202 -19 CURVE SMOOTH"
);
},
{
closed = 1;
nodes = (
"270 132 OFFCURVE",
"264 138 OFFCURVE",
"257 162 CURVE",
"253 200 LINE SMOOTH",
"250 232 OFFCURVE",
"266 262 OFFCURVE",
"297 264 CURVE SMOOTH",
"313 265 OFFCURVE",
"339 242 OFFCURVE",
"337 199 CURVE SMOOTH",
"336 180 LINE",
"328 149 OFFCURVE",
"304 132 OFFCURVE",
"278 132 CURVE SMOOTH"
);
}
);
width = 633;
}
);
note = aring;
unicode = 00E5;
},
{
glyphname = aringacute;
lastChange = "2017-08-11 17:19:01 +0000";
layers = (
{
layerId = "CBDECE4A-293B-4E5C-B714-A3FD26C7130D";
paths = (
{
closed = 1;
nodes = (
"249 -17 OFFCURVE",
"289 2 OFFCURVE",
"326 74 CURVE",
"327 74 OFFCURVE",
"327 74 OFFCURVE",
"329 72 CURVE",
"329 71 OFFCURVE",
"329 68 OFFCURVE",
"329 67 CURVE",
"329 65 OFFCURVE",
"330 61 OFFCURVE",
"330 60 CURVE",
"328 58 OFFCURVE",
"328 53 OFFCURVE",
"328 46 CURVE SMOOTH",
"328 34 LINE SMOOTH",
"328 18 OFFCURVE",
"333 8 OFFCURVE",
"342 4 CURVE",
"352 0 OFFCURVE",
"362 -4 OFFCURVE",
"377 -3 CURVE SMOOTH",
"395 -2 OFFCURVE",
"406 -2 OFFCURVE",
"415 -4 CURVE",
"447 -3 LINE",
"480 -2 LINE",
"577 1 LINE SMOOTH",
"597 2 OFFCURVE",
"599 21 OFFCURVE",
"597 55 CURVE SMOOTH",
"596 76 OFFCURVE",
"597 94 OFFCURVE",
"603 121 CURVE",
"602 143 LINE",
"602 154 OFFCURVE",
"600 185 OFFCURVE",
"599 222 CURVE SMOOTH",
"595 362 LINE",
"592 458 OFFCURVE",
"567 527 OFFCURVE",
"473 565 CURVE SMOOTH",
"418 587 OFFCURVE",
"273 596 OFFCURVE",
"199 592 CURVE SMOOTH",
"179 591 OFFCURVE",
"174 589 OFFCURVE",
"137 583 CURVE",
"135 583 OFFCURVE",
"129 582 OFFCURVE",
"125 581 CURVE",
"103 577 LINE SMOOTH",
"89 574 OFFCURVE",
"79 572 OFFCURVE",
"74 572 CURVE SMOOTH",
"72 572 OFFCURVE",
"72 572 OFFCURVE",
"71 570 CURVE SMOOTH",
"66 564 LINE",
"64 562 OFFCURVE",
"63 562 OFFCURVE",
"60 562 CURVE",
"59 547 LINE",
"60 540 OFFCURVE",
"60 535 OFFCURVE",
"58 529 CURVE",
"61 448 OFFCURVE",
"60 445 OFFCURVE",
"60 433 CURVE SMOOTH",
"60 417 OFFCURVE",
"63 398 OFFCURVE",
"74 394 CURVE",
"133 401 LINE",
"141 401 LINE SMOOTH",
"153 401 OFFCURVE",
"148 405 OFFCURVE",
"161 402 CURVE",
"162 402 LINE SMOOTH",
"295 402 OFFCURVE",
"335 402 OFFCURVE",
"341 337 CURVE",
"330 336 OFFCURVE",
"315 336 OFFCURVE",
"296 337 CURVE SMOOTH",
"282 338 OFFCURVE",
"257 337 OFFCURVE",
"224 336 CURVE SMOOTH",
"145 334 OFFCURVE",
"97 329 OFFCURVE",
"54 278 CURVE SMOOTH",
"14 231 OFFCURVE",
"8 207 OFFCURVE",
"10 158 CURVE SMOOTH",
"15 34 OFFCURVE",
"75 -24 OFFCURVE",
"202 -19 CURVE SMOOTH"
);
},
{
closed = 1;
nodes = (
"270 132 OFFCURVE",
"264 138 OFFCURVE",
"257 162 CURVE",
"253 200 LINE SMOOTH",
"250 232 OFFCURVE",
"266 262 OFFCURVE",
"297 264 CURVE SMOOTH",
"313 265 OFFCURVE",
"339 242 OFFCURVE",
"337 199 CURVE SMOOTH",
"336 180 LINE",
"328 149 OFFCURVE",
"304 132 OFFCURVE",
"278 132 CURVE SMOOTH"
);
},
{
closed = 1;
nodes = (
"415 925 OFFCURVE",
"420 920 OFFCURVE",
"421 919 CURVE SMOOTH",
"424 916 OFFCURVE",
"428 914 OFFCURVE",
"429 913 CURVE",
"432 909 OFFCURVE",
"432 908 OFFCURVE",
"433 907 CURVE SMOOTH",
"447 895 LINE",
"449 894 LINE",
"451 889 LINE",
"454 888 OFFCURVE",
"456 885 OFFCURVE",
"460 882 CURVE SMOOTH",
"469 874 LINE SMOOTH",
"471 872 OFFCURVE",
"475 872 OFFCURVE",
"482 873 CURVE",
"504 883 OFFCURVE",
"521 890 OFFCURVE",
"531 895 CURVE",
"536 898 OFFCURVE",
"539 900 OFFCURVE",
"544 903 CURVE",
"548 904 OFFCURVE",
"550 906 OFFCURVE",
"553 906 CURVE SMOOTH",
"560 906 OFFCURVE",
"572 914 OFFCURVE",
"592 922 CURVE",
"600 926 OFFCURVE",
"615 939 OFFCURVE",
"630 939 CURVE SMOOTH",
"633 939 OFFCURVE",
"636 939 OFFCURVE",
"639 941 CURVE",
"641 942 OFFCURVE",
"643 942 OFFCURVE",
"647 943 CURVE",
"650 945 OFFCURVE",
"653 944 OFFCURVE",
"655 946 CURVE SMOOTH",
"659 950 OFFCURVE",
"661 947 OFFCURVE",
"663 949 CURVE",
"673 952 OFFCURVE",
"679 956 OFFCURVE",
"680 956 CURVE",
"692 960 OFFCURVE",
"701 964 OFFCURVE",
"708 966 CURVE SMOOTH",
"722 970 OFFCURVE",
"715 980 OFFCURVE",
"712 986 CURVE",
"709 988 OFFCURVE",
"707 991 OFFCURVE",
"706 994 CURVE",
"704 995 LINE",
"703 995 OFFCURVE",
"703 995 OFFCURVE",
"702 996 CURVE",
"699 1001 LINE",
"681 1021 LINE",
"679 1023 LINE",
"677 1026 LINE",
"672 1031 LINE SMOOTH",
"670 1033 OFFCURVE",
"669 1035 OFFCURVE",
"667 1035 CURVE",
"666 1039 LINE",
"640 1062 LINE",
"612 1089 LINE",
"589 1105 LINE",
"583 1104 LINE",
"562 1089 OFFCURVE",
"535 1070 OFFCURVE",
"504 1045 CURVE",
"482 1021 LINE SMOOTH",
"478 1017 OFFCURVE",
"474 1013 OFFCURVE",
"470 1010 CURVE SMOOTH",
"465 1007 OFFCURVE",
"461 1004 OFFCURVE",
"458 1000 CURVE SMOOTH",
"428 969 LINE SMOOTH",
"422 962 OFFCURVE",
"416 957 OFFCURVE",
"413 953 CURVE",
"405 943 OFFCURVE",
"403 937 OFFCURVE",
"409 931 CURVE SMOOTH"
);
},
{
closed = 1;
nodes = (
"328 673 OFFCURVE",
"349 673 OFFCURVE",
"381 681 CURVE SMOOTH",
"416 690 OFFCURVE",
"442 708 OFFCURVE",
"459 733 CURVE",
"464 734 LINE",
"488 767 OFFCURVE",
"500 812 OFFCURVE",
"500 855 CURVE SMOOTH",
"500 935 OFFCURVE",
"479 974 OFFCURVE",
"410 1023 CURVE",
"378 1039 OFFCURVE",
"331 1043 OFFCURVE",
"284 1043 CURVE SMOOTH",
"281 1043 OFFCURVE",
"280 1042 OFFCURVE",
"280 1041 CURVE",
"276 1042 OFFCURVE",
"269 1043 OFFCURVE",
"259 1043 CURVE SMOOTH",
"213 1043 OFFCURVE",
"175 1022 OFFCURVE",
"145 980 CURVE SMOOTH",
"118 943 OFFCURVE",
"104 895 OFFCURVE",
"104 850 CURVE SMOOTH",
"104 819 OFFCURVE",
"109 791 OFFCURVE",
"119 768 CURVE SMOOTH",
"148 700 OFFCURVE",
"207 673 OFFCURVE",
"276 673 CURVE SMOOTH"
);
},
{
closed = 1;
nodes = (
"279 788 OFFCURVE",
"269 790 OFFCURVE",
"260 795 CURVE SMOOTH",
"244 804 OFFCURVE",
"234 817 OFFCURVE",
"234 828 CURVE SMOOTH",
"234 830 OFFCURVE",
"234 832 OFFCURVE",
"233 833 CURVE SMOOTH",
"232 834 OFFCURVE",
"232 835 OFFCURVE",
"231 835 CURVE",
"231 841 LINE",
"231 846 LINE SMOOTH",
"231 881 OFFCURVE",
"239 906 OFFCURVE",
"254 920 CURVE",
"264 932 OFFCURVE",
"277 938 OFFCURVE",
"292 938 CURVE SMOOTH",
"306 938 OFFCURVE",
"319 936 OFFCURVE",
"331 933 CURVE SMOOTH",
"366 924 OFFCURVE",
"381 892 OFFCURVE",
"381 879 CURVE SMOOTH",
"381 875 LINE SMOOTH",
"381 867 OFFCURVE",
"379 858 OFFCURVE",
"376 848 CURVE SMOOTH",
"372 833 OFFCURVE",
"363 819 OFFCURVE",
"350 808 CURVE",
"338 795 OFFCURVE",
"319 788 OFFCURVE",
"292 788 CURVE SMOOTH"
);
}
);
width = 649;
}
);
note = aringacute;
unicode = 01FB;
},
{
glyphname = ae;
lastChange = "2017-08-11 22:23:04 +0000";
layers = (
{
layerId = "CBDECE4A-293B-4E5C-B714-A3FD26C7130D";
paths = (
{
closed = 1;
nodes = (
"836 170 LINE SMOOTH",
"798 159 OFFCURVE",
"747 149 OFFCURVE",
"726 149 CURVE SMOOTH",
"722 149 LINE SMOOTH",
"692 149 OFFCURVE",
"661 156 OFFCURVE",
"647 169 CURVE SMOOTH",
"622 192 LINE",
"613 215 LINE",
"608 239 LINE",
"607 275 LINE",
"637 276 LINE",
"916 281 LINE",
"926 300 LINE",
"926 347 OFFCURVE",
"916 395 OFFCURVE",
"902 438 CURVE SMOOTH",
"885 487 OFFCURVE",
"859 531 OFFCURVE",
"830 553 CURVE SMOOTH",
"810 568 LINE",
"808 570 OFFCURVE",
"805 571 OFFCURVE",
"804 571 CURVE SMOOTH",
"802 571 OFFCURVE",
"801 575 OFFCURVE",
"800 576 CURVE",
"796 578 OFFCURVE",
"794 579 OFFCURVE",
"789 579 CURVE SMOOTH",
"784 579 LINE",
"753 588 OFFCURVE",
"725 595 OFFCURVE",
"707 595 CURVE SMOOTH",
"699 595 OFFCURVE",
"692 596 OFFCURVE",
"690 596 CURVE",
"679 597 OFFCURVE",
"673 598 OFFCURVE",
"667 598 CURVE SMOOTH",
"629 598 OFFCURVE",
"518 598 OFFCURVE",
"461 519 CURVE",
"397 593 OFFCURVE",
"295 597 OFFCURVE",
"199 592 CURVE SMOOTH",
"179 591 OFFCURVE",
"174 589 OFFCURVE",
"137 583 CURVE",
"135 583 OFFCURVE",
"129 582 OFFCURVE",
"125 581 CURVE",
"103 577 LINE SMOOTH",
"89 574 OFFCURVE",
"79 572 OFFCURVE",
"74 572 CURVE SMOOTH",
"72 572 OFFCURVE",
"72 572 OFFCURVE",
"71 570 CURVE",
"66 564 LINE",
"64 562 OFFCURVE",
"63 562 OFFCURVE",
"60 562 CURVE",
"59 547 LINE",
"60 540 OFFCURVE",
"60 535 OFFCURVE",
"58 529 CURVE",
"61 448 OFFCURVE",
"60 445 OFFCURVE",
"60 433 CURVE SMOOTH",
"60 417 OFFCURVE",
"63 398 OFFCURVE",
"74 394 CURVE",
"133 401 LINE",
"141 401 LINE SMOOTH",
"153 401 OFFCURVE",
"148 405 OFFCURVE",
"161 402 CURVE",
"162 402 LINE SMOOTH",
"295 402 OFFCURVE",
"335 402 OFFCURVE",
"341 337 CURVE",
"330 336 OFFCURVE",
"315 336 OFFCURVE",
"296 337 CURVE SMOOTH",
"282 338 OFFCURVE",
"257 337 OFFCURVE",
"224 336 CURVE SMOOTH",
"145 334 OFFCURVE",
"97 329 OFFCURVE",
"54 278 CURVE SMOOTH",
"14 231 OFFCURVE",
"8 207 OFFCURVE",
"10 158 CURVE SMOOTH",
"15 34 OFFCURVE",
"75 -23 OFFCURVE",
"202 -19 CURVE SMOOTH",
"259 -17 OFFCURVE",
"339 -38 OFFCURVE",
"426 74 CURVE",
"427 74 OFFCURVE",
"427 74 OFFCURVE",
"429 72 CURVE",
"442 61 LINE",
"458 43 OFFCURVE",
"477 25 OFFCURVE",
"500 8 CURVE",
"521 -5 OFFCURVE",
"546 -13 OFFCURVE",
"569 -16 CURVE SMOOTH",
"603 -20 OFFCURVE",
"633 -32 OFFCURVE",
"672 -32 CURVE SMOOTH",
"696 -32 OFFCURVE",
"722 -28 OFFCURVE",
"758 -24 CURVE SMOOTH",
"808 -18 OFFCURVE",
"859 2 OFFCURVE",
"909 25 CURVE",
"919 44 LINE",
"902 169 LINE",
"890 185 LINE"
);
},
{
closed = 1;
nodes = (
"616 470 OFFCURVE",
"629 465 OFFCURVE",
"633 472 CURVE SMOOTH",
"637 479 OFFCURVE",
"642 479 OFFCURVE",
"645 479 CURVE SMOOTH",
"650 479 OFFCURVE",
"656 478 OFFCURVE",
"658 476 CURVE",
"671 469 LINE",
"672 464 OFFCURVE",
"674 462 OFFCURVE",
"674 458 CURVE",
"678 437 LINE",
"682 417 LINE",
"682 414 OFFCURVE",
"682 419 OFFCURVE",
"684 398 CURVE SMOOTH",
"685 388 LINE",
"615 388 LINE SMOOTH",
"601 388 OFFCURVE",
"608 407 OFFCURVE",
"612 439 CURVE SMOOTH"
);
},
{
closed = 1;
nodes = (
"344 180 LINE",
"335 149 OFFCURVE",
"309 132 OFFCURVE",
"281 132 CURVE SMOOTH",
"272 132 OFFCURVE",
"266 138 OFFCURVE",
"258 162 CURVE",
"254 200 LINE SMOOTH",
"251 232 OFFCURVE",
"268 262 OFFCURVE",
"302 264 CURVE SMOOTH",
"319 265 OFFCURVE",
"347 242 OFFCURVE",
"345 199 CURVE SMOOTH"
);
}
);
width = 943;
}
);
note = ae;
unicode = 00E6;
},
{
glyphname = b;
lastChange = "2017-08-14 18:29:40 +0000";
layers = (
{
layerId = "CBDECE4A-293B-4E5C-B714-A3FD26C7130D";
paths = (
{
closed = 1;
nodes = (
"372 159 OFFCURVE",
"364 170 OFFCURVE",
"358 191 CURVE",
"352 213 OFFCURVE",
"349 239 OFFCURVE",
"349 269 CURVE",
"346 286 OFFCURVE",
"345 305 OFFCURVE",
"345 328 CURVE",
"346 338 LINE",
"346 344 OFFCURVE",
"349 351 OFFCURVE",
"349 356 CURVE",
"352 395 OFFCURVE",
"371 438 OFFCURVE",
"413 438 CURVE SMOOTH",
"430 438 OFFCURVE",
"438 406 OFFCURVE",
"447 351 CURVE SMOOTH",
"451 327 OFFCURVE",
"453 286 OFFCURVE",
"453 274 CURVE",
"451 251 OFFCURVE",
"449 233 OFFCURVE",
"443 213 CURVE",
"431 181 OFFCURVE",
"415 159 OFFCURVE",
"383 159 CURVE SMOOTH"
);
},
{
closed = 1;
nodes = (
"31 487 LINE",
"32 465 LINE",
"32 247 LINE SMOOTH",
"32 202 OFFCURVE",
"32 170 OFFCURVE",
"34 155 CURVE",
"34 125 LINE",
"37 101 OFFCURVE",
"38 77 OFFCURVE",
"38 51 CURVE SMOOTH",
"38 13 OFFCURVE",
"42 -10 OFFCURVE",
"66 -10 CURVE SMOOTH",
"133 -9 LINE",
"234 -9 LINE",
"242 -7 OFFCURVE",
"259 -7 OFFCURVE",
"282 -7 CURVE SMOOTH",
"301 -7 OFFCURVE",
"314 -5 OFFCURVE",
"325 2 CURVE",
"328 3 OFFCURVE",
"343 34 OFFCURVE",
"339 48 CURVE",
"338 53 OFFCURVE",
"338 58 OFFCURVE",
"338 60 CURVE",
"339 51 OFFCURVE",
"338 51 OFFCURVE",
"338 52 CURVE",
"339 55 OFFCURVE",
"339 55 OFFCURVE",
"341 55 CURVE",
"376 9 OFFCURVE",
"443 -19 OFFCURVE",
"499 -19 CURVE SMOOTH",
"629 -19 OFFCURVE",
"716 57 OFFCURVE",
"716 267 CURVE SMOOTH",
"716 329 OFFCURVE",
"699 445 OFFCURVE",
"668 487 CURVE",
"611 563 OFFCURVE",
"552 577 OFFCURVE",
"456 577 CURVE SMOOTH",
"372 577 OFFCURVE",
"321 532 OFFCURVE",
"315 532 CURVE",
"315 639 LINE",
"314 639 LINE",
"315 696 LINE",
"315 748 LINE SMOOTH",
"315 762 OFFCURVE",
"289 766 OFFCURVE",
"260 766 CURVE SMOOTH",
"250 766 OFFCURVE",
"239 766 OFFCURVE",
"228 765 CURVE SMOOTH",
"217 764 OFFCURVE",
"209 763 OFFCURVE",
"203 763 CURVE",
"191 762 OFFCURVE",
"152 760 OFFCURVE",
"127 760 CURVE",
"122 764 LINE",
"64 760 LINE",
"23 763 OFFCURVE",
"30 741 OFFCURVE",
"30 731 CURVE SMOOTH",
"30 603 OFFCURVE",
"31 591 OFFCURVE",
"31 490 CURVE SMOOTH"
);
}
);
width = 736;
}
);
note = b;
unicode = 0062;
},
{
glyphname = c;
lastChange = "2017-08-21 16:35:13 +0000";
layers = (
{
layerId = "CBDECE4A-293B-4E5C-B714-A3FD26C7130D";
paths = (
{
closed = 1;
nodes = (
"461 170 OFFCURVE",
"441 155 OFFCURVE",
"420 152 CURVE SMOOTH",
"387 148 LINE",
"322 158 OFFCURVE",
"313 210 OFFCURVE",
"313 289 CURVE SMOOTH",
"313 376 OFFCURVE",
"350 416 OFFCURVE",
"385 416 CURVE",
"385 416 OFFCURVE",
"386 416 OFFCURVE",
"386 417 CURVE",
"407 419 OFFCURVE",
"397 416 OFFCURVE",
"415 416 CURVE SMOOTH",
"426 416 LINE",
"493 407 LINE",
"509 416 OFFCURVE",
"511 433 OFFCURVE",
"511 460 CURVE SMOOTH",
"511 475 OFFCURVE",
"511 499 OFFCURVE",
"509 514 CURVE",
"508 522 OFFCURVE",
"507 532 OFFCURVE",
"507 540 CURVE",
"505 557 LINE",
"503 557 LINE SMOOTH",
"501 557 OFFCURVE",
"499 557 OFFCURVE",
"497 561 CURVE",
"496 564 OFFCURVE",
"493 566 OFFCURVE",
"493 566 CURVE",
"491 568 OFFCURVE",
"490 569 OFFCURVE",
"489 569 CURVE SMOOTH",
"481 569 OFFCURVE",
"469 571 OFFCURVE",
"458 574 CURVE SMOOTH",
"434 580 LINE",
"424 580 OFFCURVE",
"418 581 OFFCURVE",
"413 581 CURVE",
"365 588 OFFCURVE",
"358 591 OFFCURVE",
"332 591 CURVE SMOOTH",
"237 591 OFFCURVE",
"179 563 OFFCURVE",
"120 514 CURVE SMOOTH",
"57 462 OFFCURVE",
"25 376 OFFCURVE",
"25 280 CURVE",
"36 185 OFFCURVE",
"58 98 OFFCURVE",
"120 47 CURVE SMOOTH",
"179 -2 OFFCURVE",
"254 -28 OFFCURVE",
"347 -28 CURVE SMOOTH",
"385 -28 OFFCURVE",
"476 -24 OFFCURVE",
"534 38 CURVE",
"533 77 OFFCURVE",
"530 121 OFFCURVE",
"513 168 CURVE",
"513 170 LINE",
"512 175 OFFCURVE",
"508 181 OFFCURVE",
"502 185 CURVE"
);
}
);
width = 564;
}
);
leftKerningGroup = c;
note = c;
unicode = 0063;
},
{
glyphname = ccedilla;
lastChange = "2017-08-11 19:01:13 +0000";
layers = (
{
layerId = "CBDECE4A-293B-4E5C-B714-A3FD26C7130D";
paths = (
{
closed = 1;
nodes = (
"273 -15 LINE",
"263 -78 LINE",
"261 -118 LINE",
"274 -112 OFFCURVE",
"288 -109 OFFCURVE",
"303 -109 CURVE SMOOTH",
"342 -109 OFFCURVE",
"366 -128 OFFCURVE",
"366 -163 CURVE SMOOTH",
"366 -196 OFFCURVE",
"346 -229 OFFCURVE",
"301 -229 CURVE SMOOTH",
"276 -229 OFFCURVE",
"253 -224 OFFCURVE",
"232 -215 CURVE",
"231 -216 OFFCURVE",
"230 -219 OFFCURVE",
"228 -224 CURVE SMOOTH",
"226 -229 OFFCURVE",
"224 -236 OFFCURVE",
"221 -243 CURVE",
"211 -298 LINE",
"217 -305 OFFCURVE",
"226 -311 OFFCURVE",
"237 -315 CURVE SMOOTH",
"260 -323 OFFCURVE",
"281 -328 OFFCURVE",
"301 -328 CURVE SMOOTH",
"318 -328 LINE SMOOTH",
"487 -328 OFFCURVE",
"541 -261 OFFCURVE",
"541 -174 CURVE SMOOTH",
"541 -115 OFFCURVE",
"489 -65 OFFCURVE",
"376 -48 CURVE",
"381 -24 LINE",
"388 -24 LINE"
);
},
{
closed = 1;
nodes = (
"505 177 OFFCURVE",
"485 166 OFFCURVE",
"464 162 CURVE SMOOTH",
"431 155 LINE",
"365 155 OFFCURVE",
"316 217 OFFCURVE",
"316 297 CURVE SMOOTH",
"316 385 OFFCURVE",
"403 425 OFFCURVE",
"439 425 CURVE",
"439 425 OFFCURVE",
"440 425 OFFCURVE",
"440 426 CURVE",
"461 428 OFFCURVE",
"451 425 OFFCURVE",
"469 425 CURVE SMOOTH",
"480 425 LINE",
"548 416 LINE",
"564 425 OFFCURVE",
"566 442 OFFCURVE",
"566 470 CURVE SMOOTH",
"566 485 OFFCURVE",
"566 509 OFFCURVE",
"564 524 CURVE",
"563 532 OFFCURVE",
"562 542 OFFCURVE",
"562 550 CURVE",
"560 568 LINE",
"558 568 LINE SMOOTH",
"556 568 OFFCURVE",
"554 568 OFFCURVE",
"552 572 CURVE",
"551 575 OFFCURVE",
"548 577 OFFCURVE",
"548 577 CURVE",
"546 579 OFFCURVE",
"545 580 OFFCURVE",
"544 580 CURVE SMOOTH",
"536 580 OFFCURVE",
"523 582 OFFCURVE",
"512 585 CURVE SMOOTH",
"488 591 LINE",
"478 591 OFFCURVE",
"472 592 OFFCURVE",
"467 592 CURVE",
"418 599 OFFCURVE",
"411 602 OFFCURVE",
"385 602 CURVE SMOOTH",
"289 602 OFFCURVE",
"181 574 OFFCURVE",
"121 524 CURVE SMOOTH",
"58 471 OFFCURVE",
"25 385 OFFCURVE",
"25 288 CURVE",
"36 192 OFFCURVE",
"58 104 OFFCURVE",
"121 53 CURVE SMOOTH",
"182 4 OFFCURVE",
"256 -23 OFFCURVE",
"350 -23 CURVE SMOOTH",
"429 -23 OFFCURVE",
"521 -19 OFFCURVE",
"579 43 CURVE",
"578 83 OFFCURVE",
"575 127 OFFCURVE",
"558 175 CURVE",
"558 177 LINE",
"557 182 OFFCURVE",
"553 188 OFFCURVE",
"547 192 CURVE"
);
}
);
width = 594;
}
);
leftKerningGroup = c;
note = ccedilla;
unicode = 00E7;
},
{
glyphname = d;
lastChange = "2017-08-22 21:55:57 +0000";
layers = (
{
layerId = "CBDECE4A-293B-4E5C-B714-A3FD26C7130D";
paths = (
{
closed = 1;
nodes = (
"356 149 OFFCURVE",
"333 147 OFFCURVE",
"333 183 CURVE",
"328 200 OFFCURVE",
"327 248 OFFCURVE",
"326 269 CURVE",
"327 280 OFFCURVE",
"322 326 OFFCURVE",
"326 345 CURVE SMOOTH",
"338 404 OFFCURVE",
"348 425 OFFCURVE",
"363 425 CURVE SMOOTH",
"398 425 OFFCURVE",
"414 375 OFFCURVE",
"417 340 CURVE",
"417 336 OFFCURVE",
"419 330 OFFCURVE",
"419 322 CURVE",
"420 316 LINE",
"420 294 OFFCURVE",
"419 278 OFFCURVE",
"415 264 CURVE",
"415 237 OFFCURVE",
"411 213 OFFCURVE",
"406 194 CURVE",
"401 175 OFFCURVE",
"393 158 OFFCURVE",
"385 156 CURVE SMOOTH"
);
},
{
closed = 1;
nodes = (
"633 768 LINE",
"628 764 LINE",
"603 764 OFFCURVE",
"564 766 OFFCURVE",
"552 767 CURVE",
"546 767 OFFCURVE",
"538 768 OFFCURVE",
"527 769 CURVE SMOOTH",
"516 770 OFFCURVE",
"505 770 OFFCURVE",
"495 770 CURVE SMOOTH",
"456 770 OFFCURVE",
"430 766 OFFCURVE",
"430 752 CURVE SMOOTH",
"430 700 LINE",
"431 633 LINE",
"430 633 LINE",
"430 573 LINE",
"429 539 LINE",
"378 583 OFFCURVE",
"287 581 OFFCURVE",
"238 581 CURVE SMOOTH",
"130 581 OFFCURVE",
"22 474 OFFCURVE",
"20 300 CURVE SMOOTH",
"19 198 OFFCURVE",
"32 130 OFFCURVE",
"62 89 CURVE",
"96 15 OFFCURVE",
"175 -29 OFFCURVE",
"248 -29 CURVE SMOOTH",
"327 -29 OFFCURVE",
"368 -25 OFFCURVE",
"407 30 CURVE",
"416 59 LINE",
"416 57 OFFCURVE",
"416 54 OFFCURVE",
"417 53 CURVE",
"417 51 OFFCURVE",
"417 46 OFFCURVE",
"416 41 CURVE SMOOTH",
"413 28 OFFCURVE",
"415 4 OFFCURVE",
"430 -3 CURVE",
"441 -10 OFFCURVE",
"454 -12 OFFCURVE",
"473 -12 CURVE SMOOTH",
"496 -12 OFFCURVE",
"513 -12 OFFCURVE",
"521 -14 CURVE",
"622 -14 LINE",
"689 -15 LINE SMOOTH",
"713 -15 OFFCURVE",
"717 8 OFFCURVE",
"717 46 CURVE SMOOTH",
"717 72 OFFCURVE",
"718 95 OFFCURVE",
"721 119 CURVE",
"721 149 LINE",
"723 164 OFFCURVE",
"723 196 OFFCURVE",
"723 241 CURVE SMOOTH",
"723 459 LINE",
"724 481 LINE",
"724 484 LINE SMOOTH",
"724 585 OFFCURVE",
"725 607 OFFCURVE",
"725 735 CURVE SMOOTH",
"725 745 OFFCURVE",
"732 767 OFFCURVE",
"691 764 CURVE"
);
}
);
width = 755;
}
);
note = d;
unicode = 0064;
},
{
glyphname = eth;
lastChange = "2017-08-07 20:26:22 +0000";
layers = (
{
layerId = "CBDECE4A-293B-4E5C-B714-A3FD26C7130D";
paths = (
{
closed = 1;
nodes = (
"750 745 OFFCURVE",
"737 745 OFFCURVE",
"720 745 CURVE",
"720 810 LINE SMOOTH",
"720 822 OFFCURVE",
"727 844 OFFCURVE",
"684 841 CURVE",
"627 845 LINE",
"621 841 LINE",
"598 841 OFFCURVE",
"558 842 OFFCURVE",
"546 844 CURVE",
"540 844 OFFCURVE",
"532 845 OFFCURVE",
"521 845 CURVE SMOOTH",
"509 845 OFFCURVE",
"498 846 OFFCURVE",
"487 846 CURVE SMOOTH",
"461 846 OFFCURVE",
"433 842 OFFCURVE",
"433 829 CURVE SMOOTH",
"433 745 LINE",
"395 745 LINE SMOOTH",
"380 745 OFFCURVE",
"362 739 OFFCURVE",
"362 729 CURVE",
"361 729 OFFCURVE",
"363 654 OFFCURVE",
"363 653 CURVE",
"362 645 OFFCURVE",
"362 636 OFFCURVE",
"362 629 CURVE SMOOTH",
"362 625 OFFCURVE",
"365 619 OFFCURVE",
"375 618 CURVE",
"384 612 OFFCURVE",
"402 609 OFFCURVE",
"433 609 CURVE",
"433 574 LINE",
"384 574 LINE SMOOTH",
"363 574 OFFCURVE",
"332 575 OFFCURVE",
"290 575 CURVE SMOOTH",
"191 575 OFFCURVE",
"131 547 OFFCURVE",
"75 476 CURVE SMOOTH",
"41 433 OFFCURVE",
"25 345 OFFCURVE",
"25 283 CURVE SMOOTH",
"25 84 OFFCURVE",
"114 -12 OFFCURVE",
"248 -12 CURVE SMOOTH",
"303 -12 OFFCURVE",
"361 -1 OFFCURVE",
"410 81 CURVE",
"410 81 OFFCURVE",
"410 95 OFFCURVE",
"411 90 CURVE",
"411 90 OFFCURVE",
"411 75 OFFCURVE",
"412 74 CURVE",
"412 73 OFFCURVE",
"412 68 OFFCURVE",
"411 63 CURVE",
"410 59 OFFCURVE",
"410 54 OFFCURVE",
"410 49 CURVE SMOOTH",
"410 40 LINE SMOOTH",
"410 19 OFFCURVE",
"415 5 OFFCURVE",
"424 -1 CURVE",
"434 -8 OFFCURVE",
"447 -10 OFFCURVE",
"467 -10 CURVE SMOOTH",
"490 -10 OFFCURVE",
"507 -10 OFFCURVE",
"515 -12 CURVE",
"616 -12 LINE",
"683 -12 LINE SMOOTH",
"707 -12 OFFCURVE",
"711 10 OFFCURVE",
"711 47 CURVE SMOOTH",
"711 74 OFFCURVE",
"712 96 OFFCURVE",
"716 121 CURVE",
"716 151 LINE",
"717 165 OFFCURVE",
"717 197 OFFCURVE",
"717 243 CURVE SMOOTH",
"717 460 LINE",
"719 483 LINE",
"719 487 LINE",
"719 613 LINE",
"734 613 OFFCURVE",
"745 614 OFFCURVE",
"752 615 CURVE",
"773 619 OFFCURVE",
"784 623 OFFCURVE",
"784 651 CURVE SMOOTH",
"784 670 LINE",
"785 685 LINE",
"785 691 OFFCURVE",
"786 697 OFFCURVE",
"787 705 CURVE SMOOTH",
"788 713 OFFCURVE",
"788 721 OFFCURVE",
"788 728 CURVE SMOOTH",
"788 737 OFFCURVE",
"777 743 OFFCURVE",
"758 744 CURVE"
);
},
{
closed = 1;
nodes = (
"404 191 OFFCURVE",
"389 167 OFFCURVE",
"360 167 CURVE SMOOTH",
"349 167 OFFCURVE",
"342 180 OFFCURVE",
"336 203 CURVE",
"332 223 OFFCURVE",
"327 251 OFFCURVE",
"327 284 CURVE",
"325 302 OFFCURVE",
"325 323 OFFCURVE",
"325 346 CURVE SMOOTH",
"325 356 LINE SMOOTH",
"325 365 OFFCURVE",
"327 373 OFFCURVE",
"327 377 CURVE",
"332 419 OFFCURVE",
"349 465 OFFCURVE",
"388 465 CURVE SMOOTH",
"403 465 OFFCURVE",
"412 428 OFFCURVE",
"418 373 CURVE SMOOTH",
"421 345 OFFCURVE",
"424 302 OFFCURVE",
"424 289 CURVE",
"423 266 OFFCURVE",
"419 246 OFFCURVE",
"415 223 CURVE"
);
}
);
width = 750;
}
);
note = eth;
unicode = 00F0;
},
{
glyphname = dcroat;
lastChange = "2017-06-11 23:28:21 +0000";
layers = (
{
layerId = "CBDECE4A-293B-4E5C-B714-A3FD26C7130D";
paths = (
{
closed = 1;
nodes = (
"472 0 OFFCURVE",
"564 22 OFFCURVE",
"623 73 CURVE SMOOTH",
"680 122 OFFCURVE",
"705 200 OFFCURVE",
"705 319 CURVE SMOOTH",
"705 385 OFFCURVE",
"692 439 OFFCURVE",
"665 480 CURVE SMOOTH",
"618 551 OFFCURVE",
"543 578 OFFCURVE",
"468 578 CURVE SMOOTH",
"413 578 OFFCURVE",
"374 577 OFFCURVE",
"351 576 CURVE SMOOTH",
"327 575 OFFCURVE",
"294 575 OFFCURVE",
"251 575 CURVE SMOOTH",
"222 575 OFFCURVE",
"198 575 OFFCURVE",
"179 576 CURVE",
"161 576 OFFCURVE",
"147 576 OFFCURVE",
"138 577 CURVE",
"80 578 LINE SMOOTH",
"71 578 OFFCURVE",
"58 564 OFFCURVE",
"58 555 CURVE SMOOTH",
"58 396 LINE",
"28 396 LINE SMOOTH",
"16 396 OFFCURVE",
"0 385 OFFCURVE",
"0 373 CURVE SMOOTH",
"0 343 OFFCURVE",
"0 321 OFFCURVE",
"1 308 CURVE",
"1 243 LINE SMOOTH",
"1 235 OFFCURVE",
"4 229 OFFCURVE",
"10 226 CURVE",
"19 219 OFFCURVE",
"36 216 OFFCURVE",
"59 216 CURVE",
"60 209 OFFCURVE",
"60 200 OFFCURVE",
"60 188 CURVE",
"61 175 OFFCURVE",
"61 156 OFFCURVE",
"61 133 CURVE",
"62 110 OFFCURVE",
"63 84 OFFCURVE",
"63 54 CURVE SMOOTH",
"63 21 OFFCURVE",
"66 1 OFFCURVE",
"85 1 CURVE SMOOTH",
"147 1 OFFCURVE",
"191 1 OFFCURVE",
"216 0 CURVE",
"329 0 LINE SMOOTH"
);
},
{
closed = 1;
nodes = (
"344 220 OFFCURVE",
"358 224 OFFCURVE",
"364 233 CURVE",
"370 239 OFFCURVE",
"373 251 OFFCURVE",
"373 268 CURVE SMOOTH",
"373 293 LINE",
"373 314 LINE",
"374 335 OFFCURVE",
"375 355 OFFCURVE",
"375 373 CURVE SMOOTH",
"375 377 OFFCURVE",
"373 381 OFFCURVE",
"369 385 CURVE",
"360 390 OFFCURVE",
"348 394 OFFCURVE",
"333 395 CURVE",
"330 395 LINE",
"331 404 OFFCURVE",
"331 418 OFFCURVE",
"331 436 CURVE",
"332 447 OFFCURVE",
"333 462 OFFCURVE",
"333 481 CURVE",
"334 482 OFFCURVE",
"338 484 OFFCURVE",
"345 485 CURVE",
"355 488 OFFCURVE",
"368 490 OFFCURVE",
"383 490 CURVE SMOOTH",
"394 490 OFFCURVE",
"403 486 OFFCURVE",
"410 479 CURVE SMOOTH",
"438 452 OFFCURVE",
"446 398 OFFCURVE",
"449 351 CURVE",
"449 335 LINE SMOOTH",
"449 291 OFFCURVE",
"443 249 OFFCURVE",
"430 208 CURVE",
"418 164 OFFCURVE",
"400 131 OFFCURVE",
"383 120 CURVE",
"376 117 OFFCURVE",
"370 116 OFFCURVE",
"365 115 CURVE",
"356 114 OFFCURVE",
"339 113 OFFCURVE",
"315 113 CURVE",
"323 220 LINE"
);
}
);
width = 751;
}
);
note = dcroat;
unicode = 0111;
},
